%TF.GenerationSoftware,KiCad,Pcbnew,(6.0.9)*%
%TF.CreationDate,2022-11-20T17:42:03-05:00*%
%TF.ProjectId,Nemesis-MixSigPCB,4e656d65-7369-4732-9d4d-697853696750,rev?*%
%TF.SameCoordinates,Original*%
%TF.FileFunction,Copper,L1,Top*%
%TF.FilePolarity,Positive*%
%FSLAX46Y46*%
G04 Gerber Fmt 4.6, Leading zero omitted, Abs format (unit mm)*
G04 Created by KiCad (PCBNEW (6.0.9)) date 2022-11-20 17:42:03*
%MOMM*%
%LPD*%
G01*
G04 APERTURE LIST*
G04 Aperture macros list*
%AMRoundRect*
0 Rectangle with rounded corners*
0 $1 Rounding radius*
0 $2 $3 $4 $5 $6 $7 $8 $9 X,Y pos of 4 corners*
0 Add a 4 corners polygon primitive as box body*
4,1,4,$2,$3,$4,$5,$6,$7,$8,$9,$2,$3,0*
0 Add four circle primitives for the rounded corners*
1,1,$1+$1,$2,$3*
1,1,$1+$1,$4,$5*
1,1,$1+$1,$6,$7*
1,1,$1+$1,$8,$9*
0 Add four rect primitives between the rounded corners*
20,1,$1+$1,$2,$3,$4,$5,0*
20,1,$1+$1,$4,$5,$6,$7,0*
20,1,$1+$1,$6,$7,$8,$9,0*
20,1,$1+$1,$8,$9,$2,$3,0*%
%AMFreePoly0*
4,1,9,3.862500,-0.866500,0.737500,-0.866500,0.737500,-0.450000,-0.737500,-0.450000,-0.737500,0.450000,0.737500,0.450000,0.737500,0.866500,3.862500,0.866500,3.862500,-0.866500,3.862500,-0.866500,$1*%
G04 Aperture macros list end*
%TA.AperFunction,SMDPad,CuDef*%
%ADD10RoundRect,0.140000X-0.170000X0.140000X-0.170000X-0.140000X0.170000X-0.140000X0.170000X0.140000X0*%
%TD*%
%TA.AperFunction,SMDPad,CuDef*%
%ADD11RoundRect,0.135000X0.185000X-0.135000X0.185000X0.135000X-0.185000X0.135000X-0.185000X-0.135000X0*%
%TD*%
%TA.AperFunction,SMDPad,CuDef*%
%ADD12RoundRect,0.147500X0.147500X0.172500X-0.147500X0.172500X-0.147500X-0.172500X0.147500X-0.172500X0*%
%TD*%
%TA.AperFunction,SMDPad,CuDef*%
%ADD13RoundRect,0.135000X-0.185000X0.135000X-0.185000X-0.135000X0.185000X-0.135000X0.185000X0.135000X0*%
%TD*%
%TA.AperFunction,SMDPad,CuDef*%
%ADD14RoundRect,0.135000X0.135000X0.185000X-0.135000X0.185000X-0.135000X-0.185000X0.135000X-0.185000X0*%
%TD*%
%TA.AperFunction,SMDPad,CuDef*%
%ADD15R,2.350000X3.500000*%
%TD*%
%TA.AperFunction,SMDPad,CuDef*%
%ADD16RoundRect,0.135000X-0.135000X-0.185000X0.135000X-0.185000X0.135000X0.185000X-0.135000X0.185000X0*%
%TD*%
%TA.AperFunction,SMDPad,CuDef*%
%ADD17RoundRect,0.150000X-0.512500X-0.150000X0.512500X-0.150000X0.512500X0.150000X-0.512500X0.150000X0*%
%TD*%
%TA.AperFunction,SMDPad,CuDef*%
%ADD18RoundRect,0.140000X-0.140000X-0.170000X0.140000X-0.170000X0.140000X0.170000X-0.140000X0.170000X0*%
%TD*%
%TA.AperFunction,SMDPad,CuDef*%
%ADD19R,1.400000X1.200000*%
%TD*%
%TA.AperFunction,SMDPad,CuDef*%
%ADD20RoundRect,0.225000X-0.250000X0.225000X-0.250000X-0.225000X0.250000X-0.225000X0.250000X0.225000X0*%
%TD*%
%TA.AperFunction,SMDPad,CuDef*%
%ADD21RoundRect,0.250000X-0.475000X0.250000X-0.475000X-0.250000X0.475000X-0.250000X0.475000X0.250000X0*%
%TD*%
%TA.AperFunction,SMDPad,CuDef*%
%ADD22RoundRect,0.250000X0.450000X-0.262500X0.450000X0.262500X-0.450000X0.262500X-0.450000X-0.262500X0*%
%TD*%
%TA.AperFunction,SMDPad,CuDef*%
%ADD23R,0.450000X0.600000*%
%TD*%
%TA.AperFunction,SMDPad,CuDef*%
%ADD24RoundRect,0.150000X0.512500X0.150000X-0.512500X0.150000X-0.512500X-0.150000X0.512500X-0.150000X0*%
%TD*%
%TA.AperFunction,SMDPad,CuDef*%
%ADD25RoundRect,0.140000X0.170000X-0.140000X0.170000X0.140000X-0.170000X0.140000X-0.170000X-0.140000X0*%
%TD*%
%TA.AperFunction,SMDPad,CuDef*%
%ADD26R,0.600000X0.450000*%
%TD*%
%TA.AperFunction,SMDPad,CuDef*%
%ADD27RoundRect,0.140000X0.140000X0.170000X-0.140000X0.170000X-0.140000X-0.170000X0.140000X-0.170000X0*%
%TD*%
%TA.AperFunction,SMDPad,CuDef*%
%ADD28R,1.200000X0.700000*%
%TD*%
%TA.AperFunction,SMDPad,CuDef*%
%ADD29RoundRect,0.250000X0.250000X0.475000X-0.250000X0.475000X-0.250000X-0.475000X0.250000X-0.475000X0*%
%TD*%
%TA.AperFunction,SMDPad,CuDef*%
%ADD30RoundRect,0.225000X0.250000X-0.225000X0.250000X0.225000X-0.250000X0.225000X-0.250000X-0.225000X0*%
%TD*%
%TA.AperFunction,SMDPad,CuDef*%
%ADD31RoundRect,0.150000X0.587500X0.150000X-0.587500X0.150000X-0.587500X-0.150000X0.587500X-0.150000X0*%
%TD*%
%TA.AperFunction,SMDPad,CuDef*%
%ADD32R,1.300000X0.900000*%
%TD*%
%TA.AperFunction,SMDPad,CuDef*%
%ADD33FreePoly0,0.000000*%
%TD*%
%TA.AperFunction,SMDPad,CuDef*%
%ADD34RoundRect,0.218750X0.218750X0.256250X-0.218750X0.256250X-0.218750X-0.256250X0.218750X-0.256250X0*%
%TD*%
%TA.AperFunction,SMDPad,CuDef*%
%ADD35R,0.800000X1.000000*%
%TD*%
%TA.AperFunction,SMDPad,CuDef*%
%ADD36R,0.740000X2.400000*%
%TD*%
%TA.AperFunction,SMDPad,CuDef*%
%ADD37RoundRect,0.150000X0.150000X-0.512500X0.150000X0.512500X-0.150000X0.512500X-0.150000X-0.512500X0*%
%TD*%
%TA.AperFunction,SMDPad,CuDef*%
%ADD38RoundRect,0.250000X0.475000X-0.250000X0.475000X0.250000X-0.475000X0.250000X-0.475000X-0.250000X0*%
%TD*%
%TA.AperFunction,ComponentPad*%
%ADD39C,1.900000*%
%TD*%
%TA.AperFunction,ComponentPad*%
%ADD40C,3.000000*%
%TD*%
%TA.AperFunction,SMDPad,CuDef*%
%ADD41RoundRect,0.075000X-0.662500X-0.075000X0.662500X-0.075000X0.662500X0.075000X-0.662500X0.075000X0*%
%TD*%
%TA.AperFunction,SMDPad,CuDef*%
%ADD42RoundRect,0.075000X-0.075000X-0.662500X0.075000X-0.662500X0.075000X0.662500X-0.075000X0.662500X0*%
%TD*%
%TA.AperFunction,SMDPad,CuDef*%
%ADD43RoundRect,0.225000X0.225000X0.250000X-0.225000X0.250000X-0.225000X-0.250000X0.225000X-0.250000X0*%
%TD*%
%TA.AperFunction,SMDPad,CuDef*%
%ADD44R,0.300000X1.450000*%
%TD*%
%TA.AperFunction,SMDPad,CuDef*%
%ADD45R,1.450000X0.600000*%
%TD*%
%TA.AperFunction,SMDPad,CuDef*%
%ADD46R,1.450000X0.300000*%
%TD*%
%TA.AperFunction,ComponentPad*%
%ADD47O,1.600000X1.000000*%
%TD*%
%TA.AperFunction,ComponentPad*%
%ADD48O,2.100000X1.000000*%
%TD*%
%TA.AperFunction,ViaPad*%
%ADD49C,0.800000*%
%TD*%
%TA.AperFunction,ViaPad*%
%ADD50C,0.700000*%
%TD*%
%TA.AperFunction,Conductor*%
%ADD51C,0.500000*%
%TD*%
%TA.AperFunction,Conductor*%
%ADD52C,0.293370*%
%TD*%
%TA.AperFunction,Conductor*%
%ADD53C,0.300000*%
%TD*%
%TA.AperFunction,Conductor*%
%ADD54C,0.203200*%
%TD*%
%TA.AperFunction,Conductor*%
%ADD55C,0.261112*%
%TD*%
G04 APERTURE END LIST*
D10*
%TO.P,C203,1*%
%TO.N,+3V3*%
X71370000Y-83670000D03*
%TO.P,C203,2*%
%TO.N,GND*%
X71370000Y-84630000D03*
%TD*%
D11*
%TO.P,R405,1*%
%TO.N,/DAC/OUT*%
X80450000Y-118390000D03*
%TO.P,R405,2*%
%TO.N,/DAC/OUT_AA_BUF_OUT*%
X80450000Y-117370000D03*
%TD*%
D12*
%TO.P,L200,1,1*%
%TO.N,VDDA*%
X57622500Y-90330000D03*
%TO.P,L200,2,2*%
%TO.N,+3V3*%
X56652500Y-90330000D03*
%TD*%
D13*
%TO.P,R204,1*%
%TO.N,+3V3*%
X78552157Y-84612157D03*
%TO.P,R204,2*%
%TO.N,/MCU/USB_D+*%
X78552157Y-85632157D03*
%TD*%
D14*
%TO.P,R205,1*%
%TO.N,/MCU/USB_CONN_CC1*%
X96452157Y-92622157D03*
%TO.P,R205,2*%
%TO.N,GND*%
X95432157Y-92622157D03*
%TD*%
D15*
%TO.P,L101,1,1*%
%TO.N,/Power/BUCK_SW*%
X74675000Y-70150000D03*
%TO.P,L101,2,2*%
%TO.N,+3V3*%
X80725000Y-70150000D03*
%TD*%
D16*
%TO.P,R103,1*%
%TO.N,GND*%
X95300000Y-77010000D03*
%TO.P,R103,2*%
%TO.N,/Power/LED_PWR_K*%
X96320000Y-77010000D03*
%TD*%
D14*
%TO.P,R201,1*%
%TO.N,/MCU/HSE_OUT*%
X54050000Y-86730000D03*
%TO.P,R201,2*%
%TO.N,/MCU/XTAL_IN*%
X53030000Y-86730000D03*
%TD*%
D17*
%TO.P,U102,1*%
%TO.N,VCOM*%
X67012500Y-114250000D03*
%TO.P,U102,2,V-*%
%TO.N,GND*%
X67012500Y-115200000D03*
%TO.P,U102,3,+*%
%TO.N,/Power/VREF*%
X67012500Y-116150000D03*
%TO.P,U102,4,-*%
%TO.N,VCOM*%
X69287500Y-116150000D03*
%TO.P,U102,5,V+*%
%TO.N,+3.3VA*%
X69287500Y-114250000D03*
%TD*%
D18*
%TO.P,C211,1*%
%TO.N,+3V3*%
X40260000Y-77370000D03*
%TO.P,C211,2*%
%TO.N,GND*%
X41220000Y-77370000D03*
%TD*%
D13*
%TO.P,R400,1*%
%TO.N,SPI2_SCK*%
X77550000Y-96180000D03*
%TO.P,R400,2*%
%TO.N,/DAC/DAC_SCLK*%
X77550000Y-97200000D03*
%TD*%
D19*
%TO.P,Y200,1,1*%
%TO.N,/MCU/HSE_IN*%
X55507500Y-82090000D03*
%TO.P,Y200,2,2*%
%TO.N,GND*%
X53307500Y-82090000D03*
%TO.P,Y200,3,3*%
%TO.N,/MCU/XTAL_IN*%
X53307500Y-83790000D03*
%TO.P,Y200,4,4*%
%TO.N,GND*%
X55507500Y-83790000D03*
%TD*%
D20*
%TO.P,C402,1*%
%TO.N,/DAC/DAC_VREF*%
X74750000Y-102225000D03*
%TO.P,C402,2*%
%TO.N,GND*%
X74750000Y-103775000D03*
%TD*%
D18*
%TO.P,C212,1*%
%TO.N,/MCU/NRST*%
X60620000Y-75710000D03*
%TO.P,C212,2*%
%TO.N,GND*%
X61580000Y-75710000D03*
%TD*%
D10*
%TO.P,C303,1*%
%TO.N,Net-(C303-Pad1)*%
X54600000Y-115520000D03*
%TO.P,C303,2*%
%TO.N,GND*%
X54600000Y-116480000D03*
%TD*%
D16*
%TO.P,R105,1*%
%TO.N,GND*%
X65990000Y-117620000D03*
%TO.P,R105,2*%
%TO.N,/Power/VREF*%
X67010000Y-117620000D03*
%TD*%
D14*
%TO.P,R210,1*%
%TO.N,/MCU/SWDIO*%
X53810000Y-75710000D03*
%TO.P,R210,2*%
%TO.N,/MCU/CONN_SWDIO*%
X52790000Y-75710000D03*
%TD*%
D21*
%TO.P,C104,1*%
%TO.N,+5V*%
X74500000Y-75150000D03*
%TO.P,C104,2*%
%TO.N,GND*%
X74500000Y-77050000D03*
%TD*%
D22*
%TO.P,R100,1*%
%TO.N,/Power/+5V_FILT*%
X68650000Y-103612500D03*
%TO.P,R100,2*%
%TO.N,+5V*%
X68650000Y-101787500D03*
%TD*%
D11*
%TO.P,R403,1*%
%TO.N,Net-(C405-Pad1)*%
X78350000Y-114000000D03*
%TO.P,R403,2*%
%TO.N,Net-(C403-Pad1)*%
X78350000Y-112980000D03*
%TD*%
D23*
%TO.P,D201,1,A1*%
%TO.N,+3V3*%
X61410000Y-66610000D03*
%TO.P,D201,2,A2*%
%TO.N,GND*%
X61410000Y-68710000D03*
%TD*%
D24*
%TO.P,U101,1,EN*%
%TO.N,+5V*%
X78975000Y-77050000D03*
%TO.P,U101,2,GND*%
%TO.N,GND*%
X78975000Y-76100000D03*
%TO.P,U101,3,SW*%
%TO.N,/Power/BUCK_SW*%
X78975000Y-75150000D03*
%TO.P,U101,4,VIN*%
%TO.N,+5V*%
X76700000Y-75150000D03*
%TO.P,U101,5,FB*%
%TO.N,/Power/BUCK_FB*%
X76700000Y-77050000D03*
%TD*%
D25*
%TO.P,C304,1*%
%TO.N,/ADC/IN_AA_BUF_IN*%
X49635000Y-114295000D03*
%TO.P,C304,2*%
%TO.N,GND*%
X49635000Y-113335000D03*
%TD*%
D11*
%TO.P,R200,1*%
%TO.N,/MCU/BOOT0*%
X64730000Y-81210000D03*
%TO.P,R200,2*%
%TO.N,GND*%
X64730000Y-80190000D03*
%TD*%
D18*
%TO.P,C403,1*%
%TO.N,Net-(C403-Pad1)*%
X78370000Y-111700000D03*
%TO.P,C403,2*%
%TO.N,GND*%
X79330000Y-111700000D03*
%TD*%
D26*
%TO.P,D205,1,A1*%
%TO.N,/MCU/CONN_NRST*%
X58450000Y-74010000D03*
%TO.P,D205,2,A2*%
%TO.N,GND*%
X60550000Y-74010000D03*
%TD*%
D14*
%TO.P,R404,1*%
%TO.N,/DAC/OUT_AA_BUF_IN*%
X80560000Y-114000000D03*
%TO.P,R404,2*%
%TO.N,Net-(C405-Pad1)*%
X79540000Y-114000000D03*
%TD*%
D11*
%TO.P,R308,1*%
%TO.N,/ADC/ADC_VREF_VIN*%
X45810000Y-98910000D03*
%TO.P,R308,2*%
%TO.N,+5V*%
X45810000Y-97890000D03*
%TD*%
D10*
%TO.P,C313,1*%
%TO.N,+3.3VA*%
X52190000Y-101540000D03*
%TO.P,C313,2*%
%TO.N,GND*%
X52190000Y-102500000D03*
%TD*%
D20*
%TO.P,C100,1*%
%TO.N,VBUS*%
X87147157Y-90217157D03*
%TO.P,C100,2*%
%TO.N,GND*%
X87147157Y-91767157D03*
%TD*%
D27*
%TO.P,C202,1*%
%TO.N,+3V3*%
X68397500Y-92830000D03*
%TO.P,C202,2*%
%TO.N,GND*%
X67437500Y-92830000D03*
%TD*%
D28*
%TO.P,L201,1,1*%
%TO.N,/MCU/USB_CMC_D-*%
X83817157Y-86582157D03*
%TO.P,L201,2,2*%
%TO.N,/MCU/USB_CMC_D+*%
X83817157Y-85482157D03*
%TO.P,L201,3,3*%
%TO.N,/MCU/USB_D+*%
X81167157Y-85482157D03*
%TO.P,L201,4,4*%
%TO.N,/MCU/USB_D-*%
X81167157Y-86582157D03*
%TD*%
D13*
%TO.P,R304,1*%
%TO.N,Net-(C305-Pad1)*%
X53190000Y-114360000D03*
%TO.P,R304,2*%
%TO.N,Net-(C303-Pad1)*%
X53190000Y-115380000D03*
%TD*%
D25*
%TO.P,C205,1*%
%TO.N,VDDA*%
X59637500Y-88410000D03*
%TO.P,C205,2*%
%TO.N,GND*%
X59637500Y-87450000D03*
%TD*%
D16*
%TO.P,R203,1*%
%TO.N,+3V3*%
X61900000Y-93040000D03*
%TO.P,R203,2*%
%TO.N,SPI1_NSS*%
X62920000Y-93040000D03*
%TD*%
D12*
%TO.P,L100,1,1*%
%TO.N,VBUS*%
X86732157Y-88592157D03*
%TO.P,L100,2,2*%
%TO.N,+5V*%
X85762157Y-88592157D03*
%TD*%
D26*
%TO.P,D300,1,A1*%
%TO.N,/ADC/IN*%
X55890000Y-121130000D03*
%TO.P,D300,2,A2*%
%TO.N,GND*%
X57990000Y-121130000D03*
%TD*%
D29*
%TO.P,C107,1*%
%TO.N,/Power/VREF*%
X67010000Y-119380000D03*
%TO.P,C107,2*%
%TO.N,GND*%
X65110000Y-119380000D03*
%TD*%
D27*
%TO.P,C106,1*%
%TO.N,+3V3*%
X78280000Y-79900000D03*
%TO.P,C106,2*%
%TO.N,/Power/BUCK_FB*%
X77320000Y-79900000D03*
%TD*%
D25*
%TO.P,C406,1*%
%TO.N,+3.3VA*%
X74850000Y-117380000D03*
%TO.P,C406,2*%
%TO.N,GND*%
X74850000Y-116420000D03*
%TD*%
D27*
%TO.P,C301,1*%
%TO.N,/ADC/IN_BUF*%
X60830000Y-118400000D03*
%TO.P,C301,2*%
%TO.N,/ADC/IN_RF*%
X59870000Y-118400000D03*
%TD*%
D14*
%TO.P,R207,1*%
%TO.N,/MCU/TIM4_CH3*%
X44130000Y-79120000D03*
%TO.P,R207,2*%
%TO.N,/MCU/LED_R_K*%
X43110000Y-79120000D03*
%TD*%
D25*
%TO.P,C311,1*%
%TO.N,/ADC/ADC_VREF*%
X52200000Y-105880000D03*
%TO.P,C311,2*%
%TO.N,GND*%
X52200000Y-104920000D03*
%TD*%
D26*
%TO.P,D400,1,A1*%
%TO.N,/DAC/OUT*%
X80450000Y-121300000D03*
%TO.P,D400,2,A2*%
%TO.N,GND*%
X82550000Y-121300000D03*
%TD*%
D30*
%TO.P,C207,1*%
%TO.N,+3V3*%
X56237500Y-88905000D03*
%TO.P,C207,2*%
%TO.N,GND*%
X56237500Y-87355000D03*
%TD*%
%TO.P,C310,1*%
%TO.N,/ADC/ADC_VREF*%
X50600000Y-106375000D03*
%TO.P,C310,2*%
%TO.N,GND*%
X50600000Y-104825000D03*
%TD*%
D20*
%TO.P,C101,1*%
%TO.N,+5V*%
X85247157Y-90217157D03*
%TO.P,C101,2*%
%TO.N,GND*%
X85247157Y-91767157D03*
%TD*%
D10*
%TO.P,C108,1*%
%TO.N,+3.3VA*%
X70950000Y-114270000D03*
%TO.P,C108,2*%
%TO.N,GND*%
X70950000Y-115230000D03*
%TD*%
D27*
%TO.P,C405,1*%
%TO.N,Net-(C405-Pad1)*%
X77130000Y-114000000D03*
%TO.P,C405,2*%
%TO.N,/DAC/OUT_AA_BUF_OUT*%
X76170000Y-114000000D03*
%TD*%
D14*
%TO.P,R212,1*%
%TO.N,/MCU/SWO*%
X56010000Y-75710000D03*
%TO.P,R212,2*%
%TO.N,/MCU/CONN_SWO*%
X54990000Y-75710000D03*
%TD*%
D31*
%TO.P,U302,1,IN*%
%TO.N,/ADC/ADC_VREF_VIN*%
X48337500Y-108450000D03*
%TO.P,U302,2,OUT*%
%TO.N,/ADC/ADC_VREF*%
X48337500Y-106550000D03*
%TO.P,U302,3,GND*%
%TO.N,GND*%
X46462500Y-107500000D03*
%TD*%
D26*
%TO.P,D202,1,A1*%
%TO.N,/MCU/CONN_SWDIO*%
X53810000Y-74010000D03*
%TO.P,D202,2,A2*%
%TO.N,GND*%
X51710000Y-74010000D03*
%TD*%
D18*
%TO.P,C307,1*%
%TO.N,/ADC/ADC_IN+*%
X53820000Y-108400000D03*
%TO.P,C307,2*%
%TO.N,/ADC/ADC_IN-*%
X54780000Y-108400000D03*
%TD*%
D32*
%TO.P,U100,1,GND*%
%TO.N,GND*%
X66750000Y-108000000D03*
D33*
%TO.P,U100,2,VIN*%
%TO.N,/Power/+5V_FILT*%
X66837500Y-109500000D03*
D32*
%TO.P,U100,3,VOUT*%
%TO.N,+3.3VA*%
X66750000Y-111000000D03*
%TD*%
D14*
%TO.P,R402,1*%
%TO.N,Net-(C403-Pad1)*%
X77150000Y-111700000D03*
%TO.P,R402,2*%
%TO.N,/DAC/DAC_OUT_A*%
X76130000Y-111700000D03*
%TD*%
D25*
%TO.P,C300,1*%
%TO.N,/ADC/IN_RF*%
X58650000Y-118380000D03*
%TO.P,C300,2*%
%TO.N,GND*%
X58650000Y-117420000D03*
%TD*%
D18*
%TO.P,C302,1*%
%TO.N,+3.3VA*%
X58950000Y-111650000D03*
%TO.P,C302,2*%
%TO.N,GND*%
X59910000Y-111650000D03*
%TD*%
%TO.P,C404,1*%
%TO.N,/DAC/OUT_AA_BUF_IN*%
X80560000Y-115410000D03*
%TO.P,C404,2*%
%TO.N,GND*%
X81520000Y-115410000D03*
%TD*%
D27*
%TO.P,C401,1*%
%TO.N,+3V3*%
X76630000Y-100600000D03*
%TO.P,C401,2*%
%TO.N,GND*%
X75670000Y-100600000D03*
%TD*%
D11*
%TO.P,R211,1*%
%TO.N,/MCU/SWCLK*%
X50000000Y-67620000D03*
%TO.P,R211,2*%
%TO.N,/MCU/CONN_SWCLK*%
X50000000Y-66600000D03*
%TD*%
D24*
%TO.P,U401,1*%
%TO.N,/DAC/OUT_AA_BUF_OUT*%
X78825000Y-117400000D03*
%TO.P,U401,2,V-*%
%TO.N,GND*%
X78825000Y-116450000D03*
%TO.P,U401,3,+*%
%TO.N,/DAC/OUT_AA_BUF_IN*%
X78825000Y-115500000D03*
%TO.P,U401,4,-*%
%TO.N,/DAC/OUT_AA_BUF_OUT*%
X76550000Y-115500000D03*
%TO.P,U401,5,V+*%
%TO.N,+3.3VA*%
X76550000Y-117400000D03*
%TD*%
D27*
%TO.P,C314,1*%
%TO.N,+3V3*%
X53780000Y-99800000D03*
%TO.P,C314,2*%
%TO.N,GND*%
X52820000Y-99800000D03*
%TD*%
D14*
%TO.P,R208,1*%
%TO.N,/MCU/TIM4_CH1*%
X44120000Y-82330000D03*
%TO.P,R208,2*%
%TO.N,/MCU/LED_G_K*%
X43100000Y-82330000D03*
%TD*%
D18*
%TO.P,C210,1*%
%TO.N,VBUS*%
X87402157Y-83572157D03*
%TO.P,C210,2*%
%TO.N,GND*%
X88362157Y-83572157D03*
%TD*%
D13*
%TO.P,R306,1*%
%TO.N,/ADC/ADC_IN+*%
X52600000Y-108390000D03*
%TO.P,R306,2*%
%TO.N,/ADC/IN_AA_BUF_OUT*%
X52600000Y-109410000D03*
%TD*%
D16*
%TO.P,R302,1*%
%TO.N,/ADC/IN_BUF*%
X60840000Y-117180000D03*
%TO.P,R302,2*%
%TO.N,VCOM*%
X61860000Y-117180000D03*
%TD*%
D14*
%TO.P,R209,1*%
%TO.N,/MCU/TIM4_CH2*%
X44150000Y-80620000D03*
%TO.P,R209,2*%
%TO.N,/MCU/LED_B_K*%
X43130000Y-80620000D03*
%TD*%
D27*
%TO.P,C208,1*%
%TO.N,/MCU/HSE_IN*%
X56507500Y-85570000D03*
%TO.P,C208,2*%
%TO.N,GND*%
X55547500Y-85570000D03*
%TD*%
D14*
%TO.P,R206,1*%
%TO.N,/MCU/USB_CONN_CC2*%
X96122157Y-80452157D03*
%TO.P,R206,2*%
%TO.N,GND*%
X95102157Y-80452157D03*
%TD*%
D11*
%TO.P,R202,1*%
%TO.N,+3V3*%
X71760000Y-91070000D03*
%TO.P,R202,2*%
%TO.N,SPI2_NSS*%
X71760000Y-90050000D03*
%TD*%
D29*
%TO.P,C102,1*%
%TO.N,/Power/+5V_FILT*%
X68650000Y-105700000D03*
%TO.P,C102,2*%
%TO.N,GND*%
X66750000Y-105700000D03*
%TD*%
D34*
%TO.P,D100,1,K*%
%TO.N,/Power/LED_PWR_K*%
X96377500Y-75150000D03*
%TO.P,D100,2,A*%
%TO.N,+3V3*%
X94802500Y-75150000D03*
%TD*%
D13*
%TO.P,R309,1*%
%TO.N,SPI1_SCK*%
X56020000Y-95670000D03*
%TO.P,R309,2*%
%TO.N,/ADC/ADC_SCLK*%
X56020000Y-96690000D03*
%TD*%
D18*
%TO.P,C305,1*%
%TO.N,Net-(C305-Pad1)*%
X54420000Y-114300000D03*
%TO.P,C305,2*%
%TO.N,/ADC/IN_AA_BUF_OUT*%
X55380000Y-114300000D03*
%TD*%
%TO.P,C209,1*%
%TO.N,/MCU/XTAL_IN*%
X53067500Y-85560000D03*
%TO.P,C209,2*%
%TO.N,GND*%
X54027500Y-85560000D03*
%TD*%
D14*
%TO.P,R213,1*%
%TO.N,/MCU/NRST*%
X59500000Y-75710000D03*
%TO.P,R213,2*%
%TO.N,/MCU/CONN_NRST*%
X58480000Y-75710000D03*
%TD*%
D20*
%TO.P,C312,1*%
%TO.N,+3.3VA*%
X50600000Y-101425000D03*
%TO.P,C312,2*%
%TO.N,GND*%
X50600000Y-102975000D03*
%TD*%
D35*
%TO.P,D200,1*%
%TO.N,/MCU/LED_G_K*%
X40290000Y-80620000D03*
%TO.P,D200,2*%
%TO.N,+3V3*%
X40290000Y-79120000D03*
%TO.P,D200,3*%
%TO.N,/MCU/LED_R_K*%
X41390000Y-79120000D03*
%TO.P,D200,4*%
%TO.N,/MCU/LED_B_K*%
X41390000Y-80620000D03*
%TD*%
D36*
%TO.P,J201,1,Pin_1*%
%TO.N,+3V3*%
X59140000Y-66560000D03*
%TO.P,J201,2,Pin_2*%
%TO.N,GND*%
X59140000Y-70460000D03*
%TO.P,J201,3,Pin_3*%
X57870000Y-66560000D03*
%TO.P,J201,4,Pin_4*%
%TO.N,unconnected-(J201-Pad4)*%
X57870000Y-70460000D03*
%TO.P,J201,5,Pin_5*%
%TO.N,GND*%
X56600000Y-66560000D03*
%TO.P,J201,6,Pin_6*%
%TO.N,/MCU/CONN_NRST*%
X56600000Y-70460000D03*
%TO.P,J201,7,Pin_7*%
%TO.N,unconnected-(J201-Pad7)*%
X55330000Y-66560000D03*
%TO.P,J201,8,Pin_8*%
%TO.N,/MCU/CONN_SWO*%
X55330000Y-70460000D03*
%TO.P,J201,9,Pin_9*%
%TO.N,/MCU/CONN_SWCLK*%
X54060000Y-66560000D03*
%TO.P,J201,10,Pin_10*%
%TO.N,/MCU/CONN_SWDIO*%
X54060000Y-70460000D03*
%TD*%
D25*
%TO.P,C201,1*%
%TO.N,+3V3*%
X59587500Y-84310000D03*
%TO.P,C201,2*%
%TO.N,GND*%
X59587500Y-83350000D03*
%TD*%
D10*
%TO.P,C306,1*%
%TO.N,+3.3VA*%
X56500000Y-110960000D03*
%TO.P,C306,2*%
%TO.N,GND*%
X56500000Y-111920000D03*
%TD*%
D13*
%TO.P,R300,1*%
%TO.N,/ADC/IN_RF*%
X55890000Y-118410000D03*
%TO.P,R300,2*%
%TO.N,/ADC/IN*%
X55890000Y-119430000D03*
%TD*%
D37*
%TO.P,U300,1*%
%TO.N,/ADC/IN_BUF_OUT*%
X58950000Y-115437500D03*
%TO.P,U300,2,V-*%
%TO.N,GND*%
X59900000Y-115437500D03*
%TO.P,U300,3,+*%
%TO.N,/ADC/IN_BUF*%
X60850000Y-115437500D03*
%TO.P,U300,4,-*%
%TO.N,/ADC/IN_BUF_OUT*%
X60850000Y-113162500D03*
%TO.P,U300,5,V+*%
%TO.N,+3.3VA*%
X58950000Y-113162500D03*
%TD*%
D38*
%TO.P,C103,1*%
%TO.N,+3.3VA*%
X64600000Y-110550000D03*
%TO.P,C103,2*%
%TO.N,GND*%
X64600000Y-108650000D03*
%TD*%
D16*
%TO.P,R104,1*%
%TO.N,/Power/VREF*%
X68940000Y-117630000D03*
%TO.P,R104,2*%
%TO.N,+3.3VA*%
X69960000Y-117630000D03*
%TD*%
D18*
%TO.P,C204,1*%
%TO.N,+3V3*%
X62457500Y-81230000D03*
%TO.P,C204,2*%
%TO.N,GND*%
X63417500Y-81230000D03*
%TD*%
D39*
%TO.P,J400,1,In*%
%TO.N,/DAC/OUT*%
X80800000Y-127000000D03*
D40*
%TO.P,J400,2,Ext*%
%TO.N,GND*%
X75720000Y-132080000D03*
X85880000Y-132080000D03*
D39*
X83340000Y-127000000D03*
%TD*%
D41*
%TO.P,U200,1,VBAT*%
%TO.N,+3V3*%
X61275000Y-84280000D03*
%TO.P,U200,2,PC13*%
%TO.N,unconnected-(U200-Pad2)*%
X61275000Y-84780000D03*
%TO.P,U200,3,PC14*%
%TO.N,unconnected-(U200-Pad3)*%
X61275000Y-85280000D03*
%TO.P,U200,4,PC15*%
%TO.N,unconnected-(U200-Pad4)*%
X61275000Y-85780000D03*
%TO.P,U200,5,PD0*%
%TO.N,/MCU/HSE_IN*%
X61275000Y-86280000D03*
%TO.P,U200,6,PD1*%
%TO.N,/MCU/HSE_OUT*%
X61275000Y-86780000D03*
%TO.P,U200,7,NRST*%
%TO.N,/MCU/NRST*%
X61275000Y-87280000D03*
%TO.P,U200,8,VSSA*%
%TO.N,GND*%
X61275000Y-87780000D03*
%TO.P,U200,9,VDDA*%
%TO.N,VDDA*%
X61275000Y-88280000D03*
%TO.P,U200,10,PA0*%
%TO.N,unconnected-(U200-Pad10)*%
X61275000Y-88780000D03*
%TO.P,U200,11,PA1*%
%TO.N,unconnected-(U200-Pad11)*%
X61275000Y-89280000D03*
%TO.P,U200,12,PA2*%
%TO.N,unconnected-(U200-Pad12)*%
X61275000Y-89780000D03*
D42*
%TO.P,U200,13,PA3*%
%TO.N,unconnected-(U200-Pad13)*%
X62687500Y-91192500D03*
%TO.P,U200,14,PA4*%
%TO.N,SPI1_NSS*%
X63187500Y-91192500D03*
%TO.P,U200,15,PA5*%
%TO.N,SPI1_SCK*%
X63687500Y-91192500D03*
%TO.P,U200,16,PA6*%
%TO.N,SPI1_MISO*%
X64187500Y-91192500D03*
%TO.P,U200,17,PA7*%
%TO.N,unconnected-(U200-Pad17)*%
X64687500Y-91192500D03*
%TO.P,U200,18,PB0*%
%TO.N,unconnected-(U200-Pad18)*%
X65187500Y-91192500D03*
%TO.P,U200,19,PB1*%
%TO.N,unconnected-(U200-Pad19)*%
X65687500Y-91192500D03*
%TO.P,U200,20,PB2*%
%TO.N,DAC_NCLR*%
X66187500Y-91192500D03*
%TO.P,U200,21,PB10*%
%TO.N,DAC_NLDAC*%
X66687500Y-91192500D03*
%TO.P,U200,22,PB11*%
%TO.N,unconnected-(U200-Pad22)*%
X67187500Y-91192500D03*
%TO.P,U200,23,VSS*%
%TO.N,GND*%
X67687500Y-91192500D03*
%TO.P,U200,24,VDD*%
%TO.N,+3V3*%
X68187500Y-91192500D03*
D41*
%TO.P,U200,25,PB12*%
%TO.N,SPI2_NSS*%
X69600000Y-89780000D03*
%TO.P,U200,26,PB13*%
%TO.N,SPI2_SCK*%
X69600000Y-89280000D03*
%TO.P,U200,27,PB14*%
%TO.N,unconnected-(U200-Pad27)*%
X69600000Y-88780000D03*
%TO.P,U200,28,PB15*%
%TO.N,SPI2_MOSI*%
X69600000Y-88280000D03*
%TO.P,U200,29,PA8*%
%TO.N,unconnected-(U200-Pad29)*%
X69600000Y-87780000D03*
%TO.P,U200,30,PA9*%
%TO.N,unconnected-(U200-Pad30)*%
X69600000Y-87280000D03*
%TO.P,U200,31,PA10*%
%TO.N,unconnected-(U200-Pad31)*%
X69600000Y-86780000D03*
%TO.P,U200,32,PA11*%
%TO.N,/MCU/USB_D-*%
X69600000Y-86280000D03*
%TO.P,U200,33,PA12*%
%TO.N,/MCU/USB_D+*%
X69600000Y-85780000D03*
%TO.P,U200,34,PA13*%
%TO.N,/MCU/SWDIO*%
X69600000Y-85280000D03*
%TO.P,U200,35,VSS*%
%TO.N,GND*%
X69600000Y-84780000D03*
%TO.P,U200,36,VDD*%
%TO.N,+3V3*%
X69600000Y-84280000D03*
D42*
%TO.P,U200,37,PA14*%
%TO.N,/MCU/SWCLK*%
X68187500Y-82867500D03*
%TO.P,U200,38,PA15*%
%TO.N,unconnected-(U200-Pad38)*%
X67687500Y-82867500D03*
%TO.P,U200,39,PB3*%
%TO.N,/MCU/SWO*%
X67187500Y-82867500D03*
%TO.P,U200,40,PB4*%
%TO.N,unconnected-(U200-Pad40)*%
X66687500Y-82867500D03*
%TO.P,U200,41,PB5*%
%TO.N,unconnected-(U200-Pad41)*%
X66187500Y-82867500D03*
%TO.P,U200,42,PB6*%
%TO.N,/MCU/TIM4_CH1*%
X65687500Y-82867500D03*
%TO.P,U200,43,PB7*%
%TO.N,/MCU/TIM4_CH2*%
X65187500Y-82867500D03*
%TO.P,U200,44,BOOT0*%
%TO.N,/MCU/BOOT0*%
X64687500Y-82867500D03*
%TO.P,U200,45,PB8*%
%TO.N,/MCU/TIM4_CH3*%
X64187500Y-82867500D03*
%TO.P,U200,46,PB9*%
%TO.N,unconnected-(U200-Pad46)*%
X63687500Y-82867500D03*
%TO.P,U200,47,VSS*%
%TO.N,GND*%
X63187500Y-82867500D03*
%TO.P,U200,48,VDD*%
%TO.N,+3V3*%
X62687500Y-82867500D03*
%TD*%
D16*
%TO.P,R303,1*%
%TO.N,Net-(C303-Pad1)*%
X55790000Y-115500000D03*
%TO.P,R303,2*%
%TO.N,/ADC/IN_BUF_OUT*%
X56810000Y-115500000D03*
%TD*%
D43*
%TO.P,C315,1*%
%TO.N,+3V3*%
X54075000Y-98200000D03*
%TO.P,C315,2*%
%TO.N,GND*%
X52525000Y-98200000D03*
%TD*%
%TO.P,C309,1*%
%TO.N,/ADC/ADC_VREF_VIN*%
X48175000Y-110200000D03*
%TO.P,C309,2*%
%TO.N,GND*%
X46625000Y-110200000D03*
%TD*%
%TO.P,C400,1*%
%TO.N,+3V3*%
X76625000Y-99100000D03*
%TO.P,C400,2*%
%TO.N,GND*%
X75075000Y-99100000D03*
%TD*%
D44*
%TO.P,U303,1,VREF*%
%TO.N,/ADC/ADC_VREF*%
X53300000Y-105900000D03*
%TO.P,U303,2,+IN*%
%TO.N,/ADC/ADC_IN+*%
X53800000Y-105900000D03*
%TO.P,U303,3,-IN*%
%TO.N,/ADC/ADC_IN-*%
X54300000Y-105900000D03*
%TO.P,U303,4,GND*%
%TO.N,GND*%
X54800000Y-105900000D03*
%TO.P,U303,5,GND*%
X55300000Y-105900000D03*
%TO.P,U303,6,NCS*%
%TO.N,SPI1_NSS*%
X55300000Y-101500000D03*
%TO.P,U303,7,DOUT*%
%TO.N,SPI1_MISO*%
X54800000Y-101500000D03*
%TO.P,U303,8,SCLK*%
%TO.N,/ADC/ADC_SCLK*%
X54300000Y-101500000D03*
%TO.P,U303,9,VIO*%
%TO.N,+3V3*%
X53800000Y-101500000D03*
%TO.P,U303,10,VA*%
%TO.N,+3.3VA*%
X53300000Y-101500000D03*
%TD*%
D16*
%TO.P,R102,1*%
%TO.N,GND*%
X75090000Y-78550000D03*
%TO.P,R102,2*%
%TO.N,/Power/BUCK_FB*%
X76110000Y-78550000D03*
%TD*%
D13*
%TO.P,R307,1*%
%TO.N,/ADC/ADC_IN-*%
X56000000Y-108390000D03*
%TO.P,R307,2*%
%TO.N,VCOM*%
X56000000Y-109410000D03*
%TD*%
D44*
%TO.P,U400,1,VOUT_A*%
%TO.N,/DAC/DAC_OUT_A*%
X76150000Y-106600000D03*
%TO.P,U400,2,VOUT_B*%
%TO.N,/DAC/DAC_OUT_B*%
X76650000Y-106600000D03*
%TO.P,U400,3,GND*%
%TO.N,GND*%
X77150000Y-106600000D03*
%TO.P,U400,4,NLDAC*%
%TO.N,DAC_NLDAC*%
X77650000Y-106600000D03*
%TO.P,U400,5,NCLR*%
%TO.N,DAC_NCLR*%
X78150000Y-106600000D03*
%TO.P,U400,6,NSYNC*%
%TO.N,SPI2_NSS*%
X78150000Y-102200000D03*
%TO.P,U400,7,SCLK*%
%TO.N,/DAC/DAC_SCLK*%
X77650000Y-102200000D03*
%TO.P,U400,8,DIN*%
%TO.N,SPI2_MOSI*%
X77150000Y-102200000D03*
%TO.P,U400,9,AVDD*%
%TO.N,+3V3*%
X76650000Y-102200000D03*
%TO.P,U400,10,VREFIN/VREFOUT*%
%TO.N,/DAC/DAC_VREF*%
X76150000Y-102200000D03*
%TD*%
D16*
%TO.P,R401,1*%
%TO.N,/DAC/DAC_OUT_B*%
X76820000Y-108920000D03*
%TO.P,R401,2*%
%TO.N,GND*%
X77840000Y-108920000D03*
%TD*%
D17*
%TO.P,U301,1*%
%TO.N,/ADC/IN_AA_BUF_OUT*%
X52562500Y-110950000D03*
%TO.P,U301,2,V-*%
%TO.N,GND*%
X52562500Y-111900000D03*
%TO.P,U301,3,+*%
%TO.N,/ADC/IN_AA_BUF_IN*%
X52562500Y-112850000D03*
%TO.P,U301,4,-*%
%TO.N,/ADC/IN_AA_BUF_OUT*%
X54837500Y-112850000D03*
%TO.P,U301,5,V+*%
%TO.N,+3.3VA*%
X54837500Y-110950000D03*
%TD*%
D23*
%TO.P,D203,1,A1*%
%TO.N,/MCU/CONN_SWCLK*%
X51700000Y-66560000D03*
%TO.P,D203,2,A2*%
%TO.N,GND*%
X51700000Y-68660000D03*
%TD*%
D45*
%TO.P,J200,A1,GND*%
%TO.N,GND*%
X92827157Y-89782157D03*
%TO.P,J200,A4,VBUS*%
%TO.N,VBUS*%
X92827157Y-88982157D03*
D46*
%TO.P,J200,A5,CC1*%
%TO.N,/MCU/USB_CONN_CC1*%
X92827157Y-87782157D03*
%TO.P,J200,A6,D+*%
%TO.N,/MCU/USB_CONN_D+*%
X92827157Y-86782157D03*
%TO.P,J200,A7,D-*%
%TO.N,/MCU/USB_CONN_D-*%
X92827157Y-86282157D03*
%TO.P,J200,A8,SBU1*%
%TO.N,unconnected-(J200-PadA8)*%
X92827157Y-85282157D03*
D45*
%TO.P,J200,A9,VBUS*%
%TO.N,VBUS*%
X92827157Y-84082157D03*
%TO.P,J200,A12,GND*%
%TO.N,GND*%
X92827157Y-83282157D03*
%TO.P,J200,B1,GND*%
X92827157Y-83282157D03*
%TO.P,J200,B4,VBUS*%
%TO.N,VBUS*%
X92827157Y-84082157D03*
D46*
%TO.P,J200,B5,CC2*%
%TO.N,/MCU/USB_CONN_CC2*%
X92827157Y-84782157D03*
%TO.P,J200,B6,D+*%
%TO.N,/MCU/USB_CONN_D+*%
X92827157Y-85782157D03*
%TO.P,J200,B7,D-*%
%TO.N,/MCU/USB_CONN_D-*%
X92827157Y-87282157D03*
%TO.P,J200,B8,SBU2*%
%TO.N,unconnected-(J200-PadB8)*%
X92827157Y-88282157D03*
D45*
%TO.P,J200,B9,VBUS*%
%TO.N,VBUS*%
X92827157Y-88982157D03*
%TO.P,J200,B12,GND*%
%TO.N,GND*%
X92827157Y-89782157D03*
D47*
%TO.P,J200,S1,SHIELD*%
X97922157Y-82212157D03*
D48*
X93742157Y-90852157D03*
D47*
X97922157Y-90852157D03*
D48*
X93742157Y-82212157D03*
%TD*%
D26*
%TO.P,D204,1,A1*%
%TO.N,/MCU/CONN_SWO*%
X55050000Y-74010000D03*
%TO.P,D204,2,A2*%
%TO.N,GND*%
X57150000Y-74010000D03*
%TD*%
D43*
%TO.P,C308,1*%
%TO.N,+5V*%
X45785000Y-96300000D03*
%TO.P,C308,2*%
%TO.N,GND*%
X44235000Y-96300000D03*
%TD*%
D30*
%TO.P,C206,1*%
%TO.N,VDDA*%
X58137500Y-88905000D03*
%TO.P,C206,2*%
%TO.N,GND*%
X58137500Y-87355000D03*
%TD*%
D13*
%TO.P,R301,1*%
%TO.N,GND*%
X57350000Y-117390000D03*
%TO.P,R301,2*%
%TO.N,/ADC/IN_RF*%
X57350000Y-118410000D03*
%TD*%
D16*
%TO.P,R101,1*%
%TO.N,/Power/BUCK_FB*%
X77290000Y-78600000D03*
%TO.P,R101,2*%
%TO.N,+3V3*%
X78310000Y-78600000D03*
%TD*%
D30*
%TO.P,C200,1*%
%TO.N,+3V3*%
X57937500Y-84405000D03*
%TO.P,C200,2*%
%TO.N,GND*%
X57937500Y-82855000D03*
%TD*%
D16*
%TO.P,R305,1*%
%TO.N,/ADC/IN_AA_BUF_IN*%
X50890000Y-114300000D03*
%TO.P,R305,2*%
%TO.N,Net-(C305-Pad1)*%
X51910000Y-114300000D03*
%TD*%
D39*
%TO.P,J300,1,In*%
%TO.N,/ADC/IN*%
X55900000Y-127100000D03*
D40*
%TO.P,J300,2,Ext*%
%TO.N,GND*%
X50820000Y-132180000D03*
X60980000Y-132180000D03*
D39*
X58440000Y-127100000D03*
%TD*%
D21*
%TO.P,C105,1*%
%TO.N,+3V3*%
X81100000Y-75200000D03*
%TO.P,C105,2*%
%TO.N,GND*%
X81100000Y-77100000D03*
%TD*%
D24*
%TO.P,U201,1,I/O1*%
%TO.N,/MCU/USB_CONN_D-*%
X88529657Y-86982157D03*
%TO.P,U201,2,GND*%
%TO.N,GND*%
X88529657Y-86032157D03*
%TO.P,U201,3,I/O2*%
%TO.N,/MCU/USB_CONN_D+*%
X88529657Y-85082157D03*
%TO.P,U201,4,I/O2*%
%TO.N,/MCU/USB_CMC_D+*%
X86254657Y-85082157D03*
%TO.P,U201,5,VBUS*%
%TO.N,VBUS*%
X86254657Y-86032157D03*
%TO.P,U201,6,I/O1*%
%TO.N,/MCU/USB_CMC_D-*%
X86254657Y-86982157D03*
%TD*%
D49*
%TO.N,GND*%
X69544000Y-119222000D03*
X72084000Y-119222000D03*
X77164000Y-119222000D03*
X74624000Y-119222000D03*
X82244000Y-109570000D03*
X82244000Y-107030000D03*
X72592000Y-111094000D03*
X72592000Y-108554000D03*
X72592000Y-105760000D03*
X72592000Y-101696000D03*
X61670000Y-98394000D03*
X65734000Y-97378000D03*
X59638000Y-106268000D03*
X59638000Y-104236000D03*
X65734000Y-102204000D03*
X62686000Y-102204000D03*
X59638000Y-102204000D03*
X64464000Y-121508000D03*
X61924000Y-121508000D03*
X67004000Y-121508000D03*
X74624000Y-121508000D03*
X72084000Y-121508000D03*
X69544000Y-121508000D03*
X77164000Y-121508000D03*
X69544000Y-124556000D03*
X67004000Y-124556000D03*
X64464000Y-124556000D03*
X72084000Y-124556000D03*
X85038000Y-107030000D03*
X85038000Y-99664000D03*
X85038000Y-101950000D03*
X85038000Y-124302000D03*
X85038000Y-97124000D03*
X85038000Y-109570000D03*
X85038000Y-121762000D03*
X85038000Y-116936000D03*
X85038000Y-104490000D03*
X85038000Y-114396000D03*
X85038000Y-119476000D03*
X85038000Y-111856000D03*
X88086000Y-119476000D03*
X88086000Y-116936000D03*
X88086000Y-121762000D03*
X88086000Y-124302000D03*
X88086000Y-109570000D03*
X88086000Y-107030000D03*
X88086000Y-111856000D03*
X88086000Y-114396000D03*
X88086000Y-99664000D03*
X88086000Y-97124000D03*
X88086000Y-101950000D03*
X88086000Y-104490000D03*
X68274000Y-67914000D03*
X68274000Y-65374000D03*
X68274000Y-70200000D03*
X68274000Y-72740000D03*
X71068000Y-67914000D03*
X71068000Y-65374000D03*
X71068000Y-70200000D03*
X71068000Y-72740000D03*
X78434000Y-65374000D03*
X80974000Y-65374000D03*
X76148000Y-65374000D03*
X73608000Y-65374000D03*
X91642000Y-72486000D03*
X94182000Y-72486000D03*
X89356000Y-72486000D03*
X86816000Y-72486000D03*
X86816000Y-65374000D03*
X89102000Y-67660000D03*
X89102000Y-70200000D03*
X86816000Y-67660000D03*
X84276000Y-67660000D03*
X91642000Y-67660000D03*
X84276000Y-65374000D03*
X84276000Y-70200000D03*
X91642000Y-65374000D03*
X91642000Y-70200000D03*
X86816000Y-70200000D03*
X89102000Y-65374000D03*
X93674000Y-97124000D03*
X95960000Y-99410000D03*
X95960000Y-101950000D03*
X93674000Y-99410000D03*
X91134000Y-99410000D03*
X98500000Y-99410000D03*
X91134000Y-97124000D03*
X91134000Y-101950000D03*
X98500000Y-97124000D03*
X98500000Y-101950000D03*
X93674000Y-101950000D03*
X95960000Y-97124000D03*
X93674000Y-104490000D03*
X95960000Y-106776000D03*
X95960000Y-109316000D03*
X93674000Y-106776000D03*
X91134000Y-106776000D03*
X98500000Y-106776000D03*
X91134000Y-104490000D03*
X91134000Y-109316000D03*
X98500000Y-104490000D03*
X98500000Y-109316000D03*
X93674000Y-109316000D03*
X95960000Y-104490000D03*
X93674000Y-111856000D03*
X95960000Y-114142000D03*
X95960000Y-116682000D03*
X93674000Y-114142000D03*
X91134000Y-114142000D03*
X98500000Y-114142000D03*
X91134000Y-111856000D03*
X91134000Y-116682000D03*
X98500000Y-111856000D03*
X98500000Y-116682000D03*
X93674000Y-116682000D03*
X95960000Y-111856000D03*
X93674000Y-119476000D03*
X95960000Y-121762000D03*
X95960000Y-124302000D03*
X93674000Y-121762000D03*
X91134000Y-121762000D03*
X98500000Y-121762000D03*
X91134000Y-119476000D03*
X91134000Y-124302000D03*
X98500000Y-119476000D03*
X98500000Y-124302000D03*
X93674000Y-124302000D03*
X95960000Y-119476000D03*
X98500000Y-131668000D03*
X95960000Y-131668000D03*
X98500000Y-129128000D03*
X95960000Y-129128000D03*
X98500000Y-126842000D03*
X95960000Y-126842000D03*
X93674000Y-126842000D03*
X91134000Y-126842000D03*
X90372000Y-134208000D03*
X91134000Y-136240000D03*
X93674000Y-138526000D03*
X91134000Y-138526000D03*
X93674000Y-131668000D03*
X91134000Y-131668000D03*
X93674000Y-129128000D03*
X91134000Y-129128000D03*
X88340000Y-126842000D03*
X85800000Y-126842000D03*
X88340000Y-129128000D03*
X85800000Y-129128000D03*
X88340000Y-138526000D03*
X85800000Y-138526000D03*
X88340000Y-136240000D03*
X85800000Y-136240000D03*
X82498000Y-138526000D03*
X79958000Y-138526000D03*
X77164000Y-127096000D03*
X77164000Y-128874000D03*
X82498000Y-129128000D03*
X79958000Y-129128000D03*
X82498000Y-131668000D03*
X79958000Y-131668000D03*
X82498000Y-133446000D03*
X79958000Y-133446000D03*
X82498000Y-136240000D03*
X79958000Y-136240000D03*
X77164000Y-138526000D03*
X74624000Y-138526000D03*
X77164000Y-136240000D03*
X74624000Y-136240000D03*
X74116000Y-126842000D03*
X71576000Y-126842000D03*
X74116000Y-128874000D03*
X71576000Y-128874000D03*
X71576000Y-138526000D03*
X69036000Y-138526000D03*
X71576000Y-136240000D03*
X69036000Y-136240000D03*
X71576000Y-133954000D03*
X69036000Y-133954000D03*
X71576000Y-131668000D03*
X69036000Y-131668000D03*
X69036000Y-127096000D03*
X66496000Y-127096000D03*
X69036000Y-128874000D03*
X66496000Y-128874000D03*
X61924000Y-138526000D03*
X59384000Y-138526000D03*
X61924000Y-136240000D03*
X59384000Y-136240000D03*
X66496000Y-138526000D03*
X63956000Y-138526000D03*
X66496000Y-136240000D03*
X63956000Y-136240000D03*
X66496000Y-133954000D03*
X63956000Y-133954000D03*
X66496000Y-131668000D03*
X63956000Y-131668000D03*
X63956000Y-128874000D03*
X61416000Y-128874000D03*
X63956000Y-127096000D03*
X61416000Y-127096000D03*
X52780000Y-138526000D03*
X50240000Y-138526000D03*
X52780000Y-136240000D03*
X50240000Y-136240000D03*
X57606000Y-138526000D03*
X55066000Y-138526000D03*
X57606000Y-136240000D03*
X55066000Y-136240000D03*
X57606000Y-133954000D03*
X55066000Y-133954000D03*
X57606000Y-131668000D03*
X55066000Y-131668000D03*
X57606000Y-129636000D03*
X55066000Y-129636000D03*
X47954000Y-138526000D03*
X45414000Y-138526000D03*
X47954000Y-136240000D03*
X45414000Y-136240000D03*
X47954000Y-133954000D03*
X45414000Y-133954000D03*
X46938000Y-131668000D03*
X44398000Y-131668000D03*
X49478000Y-129636000D03*
X52018000Y-129636000D03*
X46938000Y-129636000D03*
X44398000Y-129636000D03*
X49478000Y-126842000D03*
X52018000Y-126842000D03*
X46938000Y-126842000D03*
X44398000Y-126842000D03*
X52018000Y-123794000D03*
X49478000Y-123794000D03*
X46938000Y-123794000D03*
X44398000Y-123794000D03*
X52018000Y-121508000D03*
X49478000Y-121508000D03*
X52018000Y-118968000D03*
X49478000Y-118968000D03*
X46938000Y-121508000D03*
X44398000Y-121508000D03*
X46938000Y-118968000D03*
X44398000Y-118968000D03*
X46938000Y-116428000D03*
X44398000Y-116428000D03*
X44652000Y-110840000D03*
X44906000Y-105760000D03*
X45922000Y-103474000D03*
X47954000Y-98140000D03*
X44144000Y-77312000D03*
X49224000Y-77820000D03*
X50748000Y-94838000D03*
X48208000Y-92806000D03*
X41350000Y-131668000D03*
X38810000Y-131668000D03*
X41350000Y-129382000D03*
X38810000Y-129382000D03*
X41350000Y-126842000D03*
X38810000Y-126842000D03*
X41350000Y-124048000D03*
X38810000Y-124048000D03*
X41308895Y-121480731D03*
X38768895Y-121480731D03*
X41350000Y-118968000D03*
X38810000Y-118968000D03*
X41350000Y-116428000D03*
X38810000Y-116428000D03*
X41350000Y-113380000D03*
X38810000Y-113380000D03*
X41350000Y-110840000D03*
X38810000Y-110840000D03*
X41350000Y-108300000D03*
X38810000Y-108300000D03*
X41350000Y-105760000D03*
X38810000Y-105760000D03*
X41350000Y-103220000D03*
X38810000Y-103220000D03*
X38810000Y-100680000D03*
X41350000Y-100680000D03*
X43636000Y-100680000D03*
X38810000Y-96362000D03*
X38810000Y-98648000D03*
X41350000Y-98648000D03*
X43636000Y-98648000D03*
X41350000Y-96362000D03*
X46176000Y-93822000D03*
X46176000Y-91536000D03*
X39318000Y-93822000D03*
X44144000Y-93822000D03*
X41858000Y-93822000D03*
X39318000Y-91536000D03*
X44144000Y-91536000D03*
X41858000Y-91536000D03*
X39318000Y-89250000D03*
X44144000Y-89250000D03*
X41858000Y-89250000D03*
X39318000Y-86964000D03*
X44144000Y-86964000D03*
X41858000Y-86964000D03*
X44144000Y-84678000D03*
X41858000Y-84678000D03*
X39318000Y-84678000D03*
X41604000Y-74264000D03*
X43636000Y-74264000D03*
X47192000Y-74264000D03*
X45414000Y-74264000D03*
X41604000Y-72740000D03*
X43636000Y-72740000D03*
X45414000Y-72740000D03*
X47192000Y-72740000D03*
X47192000Y-70200000D03*
X45414000Y-70200000D03*
X45414000Y-68422000D03*
X47192000Y-68422000D03*
X47192000Y-66898000D03*
X45414000Y-66898000D03*
X73550000Y-98510000D03*
D50*
X65640000Y-115190000D03*
D49*
X63680000Y-105400000D03*
D50*
X87200000Y-92630000D03*
X89852157Y-86042157D03*
X65720000Y-80200000D03*
D49*
X61660000Y-80180000D03*
D50*
X59067500Y-82540000D03*
X91782157Y-82382157D03*
D49*
X46490000Y-108280000D03*
D50*
X89270000Y-83600000D03*
X59160000Y-72230000D03*
D49*
X48410000Y-95090000D03*
D50*
X91742157Y-90702157D03*
X57100000Y-76880000D03*
X78760000Y-108930000D03*
X76320000Y-91070000D03*
X79220000Y-91530000D03*
X80310000Y-104740000D03*
X56640000Y-68490000D03*
X69800000Y-115240000D03*
D49*
X51710000Y-72910000D03*
D50*
X56080000Y-105900000D03*
D49*
X48750000Y-100410000D03*
D50*
X91462157Y-83262157D03*
X57070000Y-121150000D03*
X51040000Y-111890000D03*
X85280000Y-92640000D03*
D49*
X46550000Y-109250000D03*
D50*
X52160000Y-103290000D03*
D49*
X63680000Y-107430000D03*
X69940000Y-94260000D03*
X93990000Y-80440000D03*
X89300000Y-78840000D03*
D50*
X52150000Y-104150000D03*
D49*
X79940000Y-80720000D03*
D50*
X52210000Y-99170000D03*
D49*
X95310000Y-78020000D03*
D50*
X57570000Y-111950000D03*
X91312157Y-89772157D03*
D49*
X39550000Y-75260000D03*
D50*
X53680000Y-116470000D03*
X74790000Y-100440000D03*
X56240000Y-74000000D03*
X74760000Y-104810000D03*
D49*
X67740000Y-89610000D03*
X74690000Y-93850000D03*
D50*
X62640000Y-75730000D03*
X55170000Y-107280000D03*
X58997500Y-87060000D03*
X74540000Y-96110000D03*
D49*
X59550000Y-110200000D03*
D50*
X52017500Y-82120000D03*
X80230000Y-111730000D03*
D49*
X76420000Y-76130000D03*
D50*
X81650000Y-121310000D03*
X57197500Y-87070000D03*
D49*
X80560000Y-78150000D03*
X68860000Y-99010000D03*
D50*
X76250000Y-116480000D03*
X57870000Y-65000000D03*
X60900000Y-111650000D03*
X64980000Y-117830000D03*
X57990000Y-116690000D03*
D49*
X57390000Y-108490000D03*
D50*
X68267500Y-84790000D03*
D49*
X43130000Y-96270000D03*
X74180000Y-78480000D03*
D50*
X59650000Y-73990000D03*
D49*
X65040000Y-105410000D03*
D50*
X80200000Y-116450000D03*
X58470000Y-97620000D03*
D49*
X84750000Y-74150000D03*
X83140000Y-89790000D03*
X81760000Y-78180000D03*
X65030000Y-106500000D03*
X59880000Y-81430000D03*
X83420000Y-83760000D03*
D50*
X51700000Y-67740000D03*
X42160000Y-77360000D03*
D49*
X52970000Y-95750000D03*
D50*
X61390000Y-67770000D03*
X66060000Y-86750000D03*
D49*
X56700000Y-94270000D03*
X65060000Y-107440000D03*
X94490000Y-92600000D03*
X73240000Y-77730000D03*
D50*
X77490000Y-107970000D03*
X54860000Y-79390000D03*
X50610000Y-103870000D03*
D49*
X63680000Y-106510000D03*
D50*
X49655000Y-112455000D03*
D49*
X77630000Y-76110000D03*
D50*
X81570000Y-114410000D03*
X63197500Y-84200000D03*
X58090000Y-94730000D03*
D49*
X63340000Y-65320000D03*
D50*
X54837500Y-85200000D03*
X59880000Y-116850000D03*
D49*
%TO.N,+5V*%
X68870000Y-100070000D03*
X82970000Y-88660000D03*
X82370000Y-84230000D03*
X48390000Y-96300000D03*
%TO.N,+3.3VA*%
X48790000Y-101520000D03*
X56940000Y-110960000D03*
X58470000Y-110156185D03*
X58500000Y-108550000D03*
%TO.N,+3V3*%
X60770000Y-93050000D03*
X54130000Y-95620000D03*
X74850000Y-97720000D03*
X60680000Y-82730000D03*
X63300000Y-66600000D03*
X40330000Y-76030000D03*
X62900000Y-80130000D03*
X73560000Y-94160000D03*
X79290000Y-79920000D03*
X69750000Y-93050000D03*
X77050000Y-84650000D03*
X71370000Y-82630000D03*
X56710000Y-93050000D03*
X83880000Y-75150000D03*
X85610000Y-75130000D03*
D50*
%TO.N,SPI2_NSS*%
X79180000Y-92910000D03*
X76260000Y-92340000D03*
%TO.N,SPI1_NSS*%
X59040000Y-94760000D03*
X58510000Y-96580000D03*
%TO.N,/MCU/TIM4_CH3*%
X64060000Y-84870000D03*
X53350000Y-89650000D03*
%TO.N,/MCU/TIM4_CH1*%
X67270000Y-85150000D03*
X53440000Y-92050000D03*
%TO.N,/MCU/TIM4_CH2*%
X53370000Y-90750000D03*
X65170000Y-86110000D03*
%TO.N,/MCU/SWO*%
X55950000Y-79380000D03*
X55970000Y-76880000D03*
%TO.N,DAC_NCLR*%
X79350000Y-105330000D03*
X75520000Y-96910000D03*
%TO.N,DAC_NLDAC*%
X75610000Y-95290000D03*
X79370000Y-104250000D03*
%TD*%
D51*
%TO.N,VBUS*%
X91512157Y-88592157D02*
X87822157Y-88592157D01*
X90220000Y-83180000D02*
X89350000Y-82310000D01*
X92827157Y-88982157D02*
X91872157Y-88982157D01*
X91872157Y-88982157D02*
X91530000Y-88640000D01*
X90462157Y-84082157D02*
X90220000Y-83840000D01*
X89350000Y-82310000D02*
X87860000Y-82310000D01*
D52*
X86254657Y-86032157D02*
X87232157Y-86032157D01*
X87232157Y-86032157D02*
X87402157Y-85862157D01*
X87402157Y-85862157D02*
X87402157Y-84572157D01*
D51*
X87432157Y-88592157D02*
X86732157Y-88592157D01*
D52*
X87412157Y-87812157D02*
X87432157Y-87832157D01*
D51*
X87402157Y-82767843D02*
X87402157Y-83572157D01*
X92827157Y-84082157D02*
X90462157Y-84082157D01*
X87432157Y-88592157D02*
X87432157Y-87832157D01*
X90220000Y-83840000D02*
X90220000Y-83180000D01*
X87402157Y-83572157D02*
X87402157Y-84382157D01*
D52*
X87232157Y-86032157D02*
X87412157Y-86212157D01*
D51*
X87860000Y-82310000D02*
X87402157Y-82767843D01*
D52*
X87412157Y-86212157D02*
X87412157Y-87812157D01*
D51*
%TO.N,GND*%
X64730000Y-80190000D02*
X65710000Y-80190000D01*
D53*
X63417500Y-81230000D02*
X63417500Y-81798959D01*
D51*
X57870000Y-65000000D02*
X57870000Y-66560000D01*
X65650000Y-115200000D02*
X65640000Y-115190000D01*
X59140000Y-72210000D02*
X59160000Y-72230000D01*
X89242157Y-83572157D02*
X89270000Y-83600000D01*
D53*
X67687500Y-91192500D02*
X67687500Y-89662500D01*
D51*
X93990000Y-80440000D02*
X95090000Y-80440000D01*
X43160000Y-96300000D02*
X43130000Y-96270000D01*
X53377500Y-82090000D02*
X53447500Y-82160000D01*
X54600000Y-116480000D02*
X53690000Y-116480000D01*
X60900000Y-111650000D02*
X59910000Y-111650000D01*
X62620000Y-75710000D02*
X62640000Y-75730000D01*
X95432157Y-92622157D02*
X94512157Y-92622157D01*
X54837500Y-84530000D02*
X54837500Y-85200000D01*
X81520000Y-115410000D02*
X81520000Y-114460000D01*
X67012500Y-115200000D02*
X65650000Y-115200000D01*
X58650000Y-116920000D02*
X58650000Y-117420000D01*
X53307500Y-82090000D02*
X52047500Y-82090000D01*
X60550000Y-74010000D02*
X59670000Y-74010000D01*
X82550000Y-121300000D02*
X81660000Y-121300000D01*
D53*
X54800000Y-106910000D02*
X54800000Y-105900000D01*
X67687500Y-91192500D02*
X67687500Y-92130000D01*
D51*
X69810000Y-115230000D02*
X69800000Y-115240000D01*
D53*
X71220000Y-84780000D02*
X71370000Y-84630000D01*
X67687500Y-92130000D02*
X67437500Y-92380000D01*
D51*
X57350000Y-117390000D02*
X57350000Y-116840000D01*
X61410000Y-67790000D02*
X61390000Y-67770000D01*
X74750000Y-103775000D02*
X74750000Y-104800000D01*
X74750000Y-104800000D02*
X74760000Y-104810000D01*
D53*
X77150000Y-107630000D02*
X77490000Y-107970000D01*
D51*
X59140000Y-70460000D02*
X59140000Y-72210000D01*
X59670000Y-74010000D02*
X59650000Y-73990000D01*
X56640000Y-68490000D02*
X56600000Y-68450000D01*
X56080000Y-105900000D02*
X55300000Y-105900000D01*
X55507500Y-83860000D02*
X54837500Y-84530000D01*
D53*
X68277500Y-84780000D02*
X68267500Y-84790000D01*
X67687500Y-89662500D02*
X67740000Y-89610000D01*
X77150000Y-106600000D02*
X77150000Y-107630000D01*
X63187500Y-82028959D02*
X63187500Y-82867500D01*
D51*
X55507500Y-83790000D02*
X55507500Y-83860000D01*
X53690000Y-116480000D02*
X53680000Y-116470000D01*
X41220000Y-77370000D02*
X42150000Y-77370000D01*
X56500000Y-111920000D02*
X57540000Y-111920000D01*
D53*
X67437500Y-92380000D02*
X67437500Y-92830000D01*
D51*
X49635000Y-113335000D02*
X49635000Y-112475000D01*
X89842157Y-86032157D02*
X89852157Y-86042157D01*
X74850000Y-116420000D02*
X76190000Y-116420000D01*
X95300000Y-77010000D02*
X95300000Y-78010000D01*
X81660000Y-121300000D02*
X81650000Y-121310000D01*
D53*
X69600000Y-84780000D02*
X68277500Y-84780000D01*
D51*
X57990000Y-116690000D02*
X58420000Y-116690000D01*
X52047500Y-82090000D02*
X52017500Y-82120000D01*
X56600000Y-68450000D02*
X56600000Y-66560000D01*
D53*
X61275000Y-87780000D02*
X60337500Y-87780000D01*
D51*
X77840000Y-108920000D02*
X78750000Y-108920000D01*
D53*
X69600000Y-84780000D02*
X71220000Y-84780000D01*
D51*
X52562500Y-111900000D02*
X51050000Y-111900000D01*
D53*
X63187500Y-82867500D02*
X63187500Y-84190000D01*
D51*
X70950000Y-115230000D02*
X69810000Y-115230000D01*
X56250000Y-74010000D02*
X56240000Y-74000000D01*
X78825000Y-116450000D02*
X80200000Y-116450000D01*
X57350000Y-116840000D02*
X57500000Y-116690000D01*
X57990000Y-121130000D02*
X57090000Y-121130000D01*
X59900000Y-115437500D02*
X59900000Y-116830000D01*
X57500000Y-116690000D02*
X57990000Y-116690000D01*
X49635000Y-112475000D02*
X49655000Y-112455000D01*
X51050000Y-111900000D02*
X51040000Y-111890000D01*
X88529657Y-86032157D02*
X89842157Y-86032157D01*
X80200000Y-111700000D02*
X80230000Y-111730000D01*
X95090000Y-80440000D02*
X95102157Y-80452157D01*
D53*
X60337500Y-87780000D02*
X60007500Y-87450000D01*
D51*
X42150000Y-77370000D02*
X42160000Y-77360000D01*
D53*
X60007500Y-87450000D02*
X59637500Y-87450000D01*
D51*
X53307500Y-82090000D02*
X53377500Y-82090000D01*
X94512157Y-92622157D02*
X94490000Y-92600000D01*
X57150000Y-74010000D02*
X56250000Y-74010000D01*
X79330000Y-111700000D02*
X80200000Y-111700000D01*
X44235000Y-96300000D02*
X43160000Y-96300000D01*
X57540000Y-111920000D02*
X57570000Y-111950000D01*
X51700000Y-68660000D02*
X51700000Y-67740000D01*
X65710000Y-80190000D02*
X65720000Y-80200000D01*
D52*
X95300000Y-78010000D02*
X95310000Y-78020000D01*
D51*
X59900000Y-116830000D02*
X59880000Y-116850000D01*
X57090000Y-121130000D02*
X57070000Y-121150000D01*
X81520000Y-114460000D02*
X81570000Y-114410000D01*
X58420000Y-116690000D02*
X58650000Y-116920000D01*
X61580000Y-75710000D02*
X62620000Y-75710000D01*
X88362157Y-83572157D02*
X89242157Y-83572157D01*
X78750000Y-108920000D02*
X78760000Y-108930000D01*
D53*
X54800000Y-106910000D02*
X55170000Y-107280000D01*
X63417500Y-81798959D02*
X63187500Y-82028959D01*
D51*
X76190000Y-116420000D02*
X76250000Y-116480000D01*
X51710000Y-74010000D02*
X51710000Y-72910000D01*
D53*
X63187500Y-84190000D02*
X63197500Y-84200000D01*
D51*
X61410000Y-68710000D02*
X61410000Y-67790000D01*
%TO.N,+5V*%
X74500000Y-75150000D02*
X72030000Y-75150000D01*
D52*
X82160000Y-79210000D02*
X83120000Y-80170000D01*
D51*
X82340000Y-83390000D02*
X82340000Y-84200000D01*
D52*
X83120000Y-81870000D02*
X82220000Y-82770000D01*
D51*
X85694314Y-88660000D02*
X85762157Y-88592157D01*
D52*
X79560000Y-78970000D02*
X79800000Y-79210000D01*
X79560000Y-78160000D02*
X79560000Y-78970000D01*
D51*
X68870000Y-101567500D02*
X68650000Y-101787500D01*
X82340000Y-84200000D02*
X82370000Y-84230000D01*
X68870000Y-100070000D02*
X68870000Y-101567500D01*
X71520000Y-79310000D02*
X74250000Y-82040000D01*
X45785000Y-97865000D02*
X45810000Y-97890000D01*
X72030000Y-75150000D02*
X71520000Y-75660000D01*
D52*
X78975000Y-77575000D02*
X79560000Y-78160000D01*
D51*
X48390000Y-96300000D02*
X45785000Y-96300000D01*
X80990000Y-82040000D02*
X81720000Y-82770000D01*
D52*
X83120000Y-80170000D02*
X83120000Y-81870000D01*
D51*
X74250000Y-82040000D02*
X80990000Y-82040000D01*
D52*
X82220000Y-82770000D02*
X81720000Y-82770000D01*
X79800000Y-79210000D02*
X82160000Y-79210000D01*
D51*
X82970000Y-88660000D02*
X85694314Y-88660000D01*
X81720000Y-82770000D02*
X82340000Y-83390000D01*
X71520000Y-75660000D02*
X71520000Y-79310000D01*
X45785000Y-96300000D02*
X45785000Y-97865000D01*
D52*
X78975000Y-77050000D02*
X78975000Y-77575000D01*
D51*
%TO.N,+3.3VA*%
X70940000Y-113010000D02*
X70950000Y-113020000D01*
X63400000Y-110550000D02*
X61620000Y-108770000D01*
X58950000Y-111650000D02*
X58950000Y-111170000D01*
X69287500Y-114250000D02*
X70930000Y-114250000D01*
D53*
X53260000Y-101540000D02*
X53300000Y-101500000D01*
D51*
X64600000Y-110550000D02*
X64600000Y-112390000D01*
X50505000Y-101520000D02*
X50600000Y-101425000D01*
X61170000Y-108320000D02*
X58940000Y-108320000D01*
X58730000Y-108320000D02*
X58500000Y-108550000D01*
X64600000Y-112390000D02*
X65220000Y-113010000D01*
D53*
X76530000Y-117380000D02*
X76550000Y-117400000D01*
D51*
X72600000Y-117380000D02*
X72910000Y-117380000D01*
X58310000Y-110960000D02*
X56940000Y-110960000D01*
X76550000Y-117400000D02*
X74870000Y-117400000D01*
X58470000Y-110800000D02*
X58310000Y-110960000D01*
X70950000Y-113020000D02*
X70950000Y-114270000D01*
X70930000Y-114250000D02*
X70950000Y-114270000D01*
X72350000Y-117630000D02*
X72600000Y-117380000D01*
X54837500Y-110950000D02*
X56490000Y-110950000D01*
X56490000Y-110950000D02*
X56500000Y-110960000D01*
X70530000Y-113010000D02*
X70940000Y-113010000D01*
X72910000Y-113790000D02*
X72130000Y-113010000D01*
X65220000Y-113010000D02*
X70530000Y-113010000D01*
X58950000Y-111170000D02*
X58740000Y-110960000D01*
X72910000Y-117380000D02*
X74850000Y-117380000D01*
X61620000Y-108770000D02*
X61170000Y-108320000D01*
X56940000Y-110960000D02*
X56500000Y-110960000D01*
X72910000Y-117380000D02*
X72910000Y-113790000D01*
X69960000Y-117630000D02*
X72350000Y-117630000D01*
X48790000Y-101520000D02*
X50505000Y-101520000D01*
D53*
X74870000Y-117400000D02*
X74850000Y-117380000D01*
X52190000Y-101540000D02*
X53260000Y-101540000D01*
D51*
X58470000Y-110156185D02*
X58470000Y-110800000D01*
X64600000Y-110550000D02*
X63400000Y-110550000D01*
X58950000Y-111650000D02*
X58950000Y-113162500D01*
X72130000Y-113010000D02*
X70530000Y-113010000D01*
X58940000Y-108320000D02*
X58730000Y-108320000D01*
X58740000Y-110960000D02*
X58310000Y-110960000D01*
D52*
%TO.N,+3V3*%
X81150000Y-75150000D02*
X81100000Y-75200000D01*
D51*
X77050000Y-84650000D02*
X78514314Y-84650000D01*
X54130000Y-98145000D02*
X54075000Y-98200000D01*
X71370000Y-82630000D02*
X71370000Y-83670000D01*
X68617500Y-93050000D02*
X68397500Y-92830000D01*
X76625000Y-99100000D02*
X76625000Y-98135000D01*
X76370000Y-97880000D02*
X76210000Y-97720000D01*
D52*
X83880000Y-75150000D02*
X86080000Y-75150000D01*
D53*
X70360000Y-84280000D02*
X70970000Y-83670000D01*
D51*
X60780000Y-93040000D02*
X60770000Y-93050000D01*
D53*
X53800000Y-99820000D02*
X53780000Y-99800000D01*
D51*
X59190000Y-66610000D02*
X59140000Y-66560000D01*
D53*
X69600000Y-84280000D02*
X70360000Y-84280000D01*
X62457500Y-81800000D02*
X62457500Y-81230000D01*
D51*
X71760000Y-91070000D02*
X71760000Y-92910000D01*
D52*
X78310000Y-78600000D02*
X78310000Y-79870000D01*
D51*
X40260000Y-77370000D02*
X40260000Y-79090000D01*
X72980000Y-93050000D02*
X71900000Y-93050000D01*
X61410000Y-66610000D02*
X59190000Y-66610000D01*
D52*
X78280000Y-79900000D02*
X79270000Y-79900000D01*
X78310000Y-79870000D02*
X78280000Y-79900000D01*
D51*
X40330000Y-77300000D02*
X40260000Y-77370000D01*
D53*
X76650000Y-102200000D02*
X76650000Y-100620000D01*
X62687500Y-82030000D02*
X62457500Y-81800000D01*
X68187500Y-91192500D02*
X68187500Y-91930000D01*
D51*
X76625000Y-98135000D02*
X76370000Y-97880000D01*
D53*
X61275000Y-84280000D02*
X61275000Y-83825000D01*
D51*
X62900000Y-80130000D02*
X62457500Y-80572500D01*
D52*
X79270000Y-79900000D02*
X79290000Y-79920000D01*
D53*
X60710000Y-83260000D02*
X60680000Y-83230000D01*
X70970000Y-83670000D02*
X71370000Y-83670000D01*
D51*
X62457500Y-80572500D02*
X62457500Y-81230000D01*
X40260000Y-79090000D02*
X40290000Y-79120000D01*
X61410000Y-66610000D02*
X63290000Y-66610000D01*
X73560000Y-93630000D02*
X72980000Y-93050000D01*
X71760000Y-92910000D02*
X71900000Y-93050000D01*
D53*
X59617500Y-84280000D02*
X59587500Y-84310000D01*
X68397500Y-92140000D02*
X68397500Y-92830000D01*
D51*
X76210000Y-97720000D02*
X74850000Y-97720000D01*
X56652500Y-90330000D02*
X56652500Y-92992500D01*
D52*
X83880000Y-75150000D02*
X81150000Y-75150000D01*
D51*
X71900000Y-93050000D02*
X69750000Y-93050000D01*
X56652500Y-92992500D02*
X56710000Y-93050000D01*
D53*
X68187500Y-91930000D02*
X68397500Y-92140000D01*
D51*
X78514314Y-84650000D02*
X78552157Y-84612157D01*
X63290000Y-66610000D02*
X63300000Y-66600000D01*
D53*
X53800000Y-101500000D02*
X53800000Y-99820000D01*
X60680000Y-83230000D02*
X60680000Y-82730000D01*
D51*
X69750000Y-93050000D02*
X68617500Y-93050000D01*
X61900000Y-93040000D02*
X60780000Y-93040000D01*
D53*
X76650000Y-100620000D02*
X76630000Y-100600000D01*
D51*
X40330000Y-76030000D02*
X40330000Y-77300000D01*
D53*
X61275000Y-83825000D02*
X60710000Y-83260000D01*
D51*
X73560000Y-94160000D02*
X73560000Y-93630000D01*
X54130000Y-95620000D02*
X54130000Y-98145000D01*
D52*
X86080000Y-75150000D02*
X94802500Y-75150000D01*
D53*
X62687500Y-82867500D02*
X62687500Y-82030000D01*
X61275000Y-84280000D02*
X59617500Y-84280000D01*
D52*
%TO.N,/Power/BUCK_FB*%
X76700000Y-77050000D02*
X76700000Y-78520000D01*
X77320000Y-78630000D02*
X77290000Y-78600000D01*
X76160000Y-78600000D02*
X76110000Y-78550000D01*
X76780000Y-78600000D02*
X76160000Y-78600000D01*
X77290000Y-78600000D02*
X76780000Y-78600000D01*
X77320000Y-79900000D02*
X77320000Y-78630000D01*
X76700000Y-78520000D02*
X76780000Y-78600000D01*
%TO.N,/Power/VREF*%
X67010000Y-117620000D02*
X67010000Y-119380000D01*
X67010000Y-117620000D02*
X67010000Y-116152500D01*
X67010000Y-116152500D02*
X67012500Y-116150000D01*
X68930000Y-117620000D02*
X68940000Y-117630000D01*
X67010000Y-117620000D02*
X68930000Y-117620000D01*
D53*
%TO.N,VDDA*%
X60187500Y-88430000D02*
X59657500Y-88430000D01*
X61275000Y-88280000D02*
X60337500Y-88280000D01*
X59657500Y-88430000D02*
X59637500Y-88410000D01*
X60337500Y-88280000D02*
X60187500Y-88430000D01*
D52*
%TO.N,/MCU/HSE_IN*%
X60441147Y-86280000D02*
X59741147Y-85580000D01*
X56517500Y-85580000D02*
X56507500Y-85570000D01*
X56870000Y-82882500D02*
X56077500Y-82090000D01*
X56507500Y-85570000D02*
X56507500Y-84972500D01*
X56870000Y-84610000D02*
X56870000Y-82882500D01*
X56077500Y-82090000D02*
X55507500Y-82090000D01*
X59741147Y-85580000D02*
X56517500Y-85580000D01*
X56507500Y-84972500D02*
X56870000Y-84610000D01*
X61275000Y-86280000D02*
X60441147Y-86280000D01*
%TO.N,/MCU/XTAL_IN*%
X53307500Y-84772500D02*
X53307500Y-83790000D01*
X53067500Y-85560000D02*
X53067500Y-85012500D01*
X53347500Y-83830000D02*
X53307500Y-83790000D01*
X53067500Y-85560000D02*
X53067500Y-86692500D01*
X53067500Y-86692500D02*
X53030000Y-86730000D01*
X53067500Y-85012500D02*
X53307500Y-84772500D01*
%TO.N,/MCU/NRST*%
X61580000Y-82050000D02*
X59640000Y-80110000D01*
X62359185Y-83873038D02*
X61580000Y-83093853D01*
X62359185Y-87029668D02*
X62359185Y-83873038D01*
X59640000Y-80110000D02*
X53292269Y-80110000D01*
X49333315Y-66265480D02*
X51308795Y-64290000D01*
X64090000Y-71830000D02*
X60620000Y-75300000D01*
X64090000Y-65014027D02*
X64090000Y-71830000D01*
X53292269Y-80110000D02*
X49333315Y-76151046D01*
X62108853Y-87280000D02*
X62359185Y-87029668D01*
X63365973Y-64290000D02*
X64090000Y-65014027D01*
X59500000Y-75710000D02*
X60620000Y-75710000D01*
X61275000Y-87280000D02*
X62108853Y-87280000D01*
X61580000Y-83093853D02*
X61580000Y-82050000D01*
X49333315Y-76151046D02*
X49333315Y-66265480D01*
X60620000Y-75300000D02*
X60620000Y-75710000D01*
X51308795Y-64290000D02*
X63365973Y-64290000D01*
%TO.N,/ADC/IN_RF*%
X55890000Y-118410000D02*
X57350000Y-118410000D01*
X58650000Y-118380000D02*
X59850000Y-118380000D01*
X57350000Y-118410000D02*
X58620000Y-118410000D01*
X58620000Y-118410000D02*
X58650000Y-118380000D01*
X59850000Y-118380000D02*
X59870000Y-118400000D01*
%TO.N,/ADC/IN_BUF*%
X60860000Y-117200000D02*
X60860000Y-115447500D01*
X60860000Y-115447500D02*
X60850000Y-115437500D01*
X60830000Y-117230000D02*
X60860000Y-117200000D01*
X60830000Y-118400000D02*
X60830000Y-117230000D01*
%TO.N,Net-(C303-Pad1)*%
X54190000Y-115520000D02*
X54050000Y-115380000D01*
X55790000Y-115500000D02*
X54620000Y-115500000D01*
X54600000Y-115520000D02*
X54190000Y-115520000D01*
X54050000Y-115380000D02*
X53190000Y-115380000D01*
X54620000Y-115500000D02*
X54600000Y-115520000D01*
%TO.N,/ADC/IN_AA_BUF_IN*%
X49640000Y-114300000D02*
X49635000Y-114295000D01*
X50890000Y-114300000D02*
X49640000Y-114300000D01*
X51390000Y-112850000D02*
X50890000Y-113350000D01*
X50890000Y-113350000D02*
X50890000Y-114300000D01*
X49525000Y-114405000D02*
X49635000Y-114295000D01*
X52532500Y-112880000D02*
X52562500Y-112850000D01*
X52562500Y-112850000D02*
X51390000Y-112850000D01*
%TO.N,Net-(C305-Pad1)*%
X51970000Y-114360000D02*
X51910000Y-114300000D01*
X54420000Y-114300000D02*
X53250000Y-114300000D01*
X53250000Y-114300000D02*
X53190000Y-114360000D01*
X53190000Y-114360000D02*
X51970000Y-114360000D01*
%TO.N,/ADC/IN_AA_BUF_OUT*%
X52562500Y-110950000D02*
X53590000Y-110950000D01*
X53590000Y-110950000D02*
X53780000Y-111140000D01*
X55380000Y-114300000D02*
X55380000Y-113920000D01*
X52562500Y-109447500D02*
X52600000Y-109410000D01*
X54837500Y-113377500D02*
X54837500Y-112850000D01*
X53780000Y-111140000D02*
X53780000Y-112660000D01*
X53970000Y-112850000D02*
X54837500Y-112850000D01*
X53780000Y-112660000D02*
X53970000Y-112850000D01*
X52562500Y-110950000D02*
X52562500Y-109447500D01*
X55380000Y-113920000D02*
X54837500Y-113377500D01*
%TO.N,/ADC/ADC_IN+*%
X53800000Y-105900000D02*
X53800000Y-108380000D01*
X52600000Y-108390000D02*
X53810000Y-108390000D01*
X53810000Y-108390000D02*
X53820000Y-108400000D01*
X53800000Y-108380000D02*
X53820000Y-108400000D01*
%TO.N,/ADC/ADC_IN-*%
X54780000Y-107875262D02*
X54780000Y-108400000D01*
X54300000Y-107395262D02*
X54780000Y-107875262D01*
X54780000Y-108400000D02*
X55990000Y-108400000D01*
X55990000Y-108400000D02*
X56000000Y-108390000D01*
X54300000Y-105900000D02*
X54300000Y-107395262D01*
D51*
%TO.N,/ADC/ADC_VREF_VIN*%
X45810000Y-101170000D02*
X42730000Y-104250000D01*
X42730000Y-111480000D02*
X44530000Y-113280000D01*
X44530000Y-113280000D02*
X46800000Y-113280000D01*
X42730000Y-104250000D02*
X42730000Y-111480000D01*
X45810000Y-98910000D02*
X45810000Y-101170000D01*
X46800000Y-113280000D02*
X48175000Y-111905000D01*
X48175000Y-111905000D02*
X48175000Y-110200000D01*
D53*
%TO.N,/ADC/ADC_VREF*%
X53300000Y-105900000D02*
X52220000Y-105900000D01*
X52220000Y-105900000D02*
X52200000Y-105880000D01*
D52*
%TO.N,/DAC/DAC_VREF*%
X74750000Y-102225000D02*
X76125000Y-102225000D01*
X76125000Y-102225000D02*
X76150000Y-102200000D01*
%TO.N,Net-(C403-Pad1)*%
X78350000Y-111720000D02*
X78370000Y-111700000D01*
X78350000Y-112980000D02*
X78350000Y-111720000D01*
X78370000Y-111700000D02*
X77150000Y-111700000D01*
%TO.N,/DAC/OUT_AA_BUF_IN*%
X80560000Y-114000000D02*
X80560000Y-115410000D01*
X80560000Y-115410000D02*
X78915000Y-115410000D01*
X78915000Y-115410000D02*
X78825000Y-115500000D01*
%TO.N,Net-(C405-Pad1)*%
X77130000Y-114000000D02*
X78350000Y-114000000D01*
X78350000Y-114000000D02*
X79540000Y-114000000D01*
%TO.N,/DAC/OUT_AA_BUF_OUT*%
X78825000Y-117400000D02*
X77870000Y-117400000D01*
X75210000Y-114380000D02*
X75590000Y-114000000D01*
X77660000Y-115620000D02*
X77540000Y-115500000D01*
X78855000Y-117370000D02*
X78825000Y-117400000D01*
X77540000Y-115500000D02*
X76550000Y-115500000D01*
X75590000Y-114000000D02*
X76170000Y-114000000D01*
X80450000Y-117370000D02*
X78855000Y-117370000D01*
X77660000Y-117190000D02*
X77660000Y-115620000D01*
X75590000Y-115500000D02*
X75210000Y-115120000D01*
X75210000Y-115120000D02*
X75210000Y-114380000D01*
X77870000Y-117400000D02*
X77660000Y-117190000D01*
X76550000Y-115500000D02*
X75590000Y-115500000D01*
%TO.N,/Power/LED_PWR_K*%
X96377500Y-76952500D02*
X96320000Y-77010000D01*
X96377500Y-75150000D02*
X96377500Y-76952500D01*
%TO.N,/MCU/LED_G_K*%
X40290000Y-81900000D02*
X40720000Y-82330000D01*
X40290000Y-80620000D02*
X40290000Y-81900000D01*
X40720000Y-82330000D02*
X43100000Y-82330000D01*
%TO.N,/MCU/LED_R_K*%
X41390000Y-79120000D02*
X43110000Y-79120000D01*
%TO.N,/MCU/LED_B_K*%
X41390000Y-80620000D02*
X43130000Y-80620000D01*
%TO.N,/MCU/CONN_SWDIO*%
X54060000Y-70460000D02*
X54060000Y-72180000D01*
X54060000Y-72180000D02*
X53810000Y-72430000D01*
X53810000Y-74010000D02*
X53090000Y-74010000D01*
X53810000Y-72430000D02*
X53810000Y-74010000D01*
X52790000Y-74310000D02*
X52790000Y-75710000D01*
X53090000Y-74010000D02*
X52790000Y-74310000D01*
%TO.N,/MCU/CONN_SWCLK*%
X50000000Y-66600000D02*
X51660000Y-66600000D01*
X51660000Y-66600000D02*
X51700000Y-66560000D01*
X51700000Y-66560000D02*
X54060000Y-66560000D01*
%TO.N,/MCU/CONN_SWO*%
X55330000Y-73400000D02*
X55330000Y-70460000D01*
X54990000Y-75710000D02*
X54990000Y-74070000D01*
X54990000Y-74070000D02*
X55050000Y-74010000D01*
X55050000Y-74010000D02*
X55050000Y-73680000D01*
X55050000Y-73680000D02*
X55330000Y-73400000D01*
%TO.N,/MCU/CONN_NRST*%
X57150000Y-72330000D02*
X58090000Y-72330000D01*
X58450000Y-72690000D02*
X58450000Y-74010000D01*
X58480000Y-75710000D02*
X58480000Y-74040000D01*
X58090000Y-72330000D02*
X58450000Y-72690000D01*
X58480000Y-74040000D02*
X58450000Y-74010000D01*
X56600000Y-70460000D02*
X56600000Y-71780000D01*
X56600000Y-71780000D02*
X57150000Y-72330000D01*
%TO.N,/ADC/IN*%
X55900000Y-127100000D02*
X55900000Y-121140000D01*
X55890000Y-121130000D02*
X55890000Y-119430000D01*
X55900000Y-121140000D02*
X55890000Y-121130000D01*
%TO.N,/DAC/OUT*%
X80450000Y-121300000D02*
X80450000Y-118390000D01*
X80450000Y-122590000D02*
X80450000Y-121300000D01*
X80800000Y-127000000D02*
X80800000Y-122940000D01*
X80800000Y-122940000D02*
X80450000Y-122590000D01*
%TO.N,/MCU/USB_CONN_CC1*%
X96452157Y-89332157D02*
X96452157Y-92622157D01*
X92827157Y-87782157D02*
X94902157Y-87782157D01*
X94902157Y-87782157D02*
X96452157Y-89332157D01*
D54*
%TO.N,/MCU/USB_CONN_D+*%
X93632157Y-85782157D02*
X92827157Y-85782157D01*
X93882157Y-86705357D02*
X93882157Y-86032157D01*
D55*
X90492157Y-85082157D02*
X88529657Y-85082157D01*
X91739656Y-85782157D02*
X91721812Y-85800001D01*
D54*
X93805357Y-86782157D02*
X93882157Y-86705357D01*
D55*
X91721812Y-85800001D02*
X91210001Y-85800001D01*
X92827157Y-85782157D02*
X91739656Y-85782157D01*
D54*
X92827157Y-86782157D02*
X93805357Y-86782157D01*
D55*
X91210001Y-85800001D02*
X90492157Y-85082157D01*
D54*
X93882157Y-86032157D02*
X93632157Y-85782157D01*
%TO.N,/MCU/USB_CONN_D-*%
X91800557Y-87233757D02*
X91800557Y-86392157D01*
D55*
X88549657Y-87002157D02*
X88529657Y-86982157D01*
X91222157Y-86282157D02*
X91112157Y-86392157D01*
X91112157Y-86392157D02*
X90502157Y-87002157D01*
X90502157Y-87002157D02*
X88549657Y-87002157D01*
D54*
X91848957Y-87282157D02*
X91800557Y-87233757D01*
D55*
X92827157Y-86282157D02*
X91222157Y-86282157D01*
D54*
X92827157Y-87282157D02*
X91848957Y-87282157D01*
X91800557Y-86392157D02*
X91112157Y-86392157D01*
D52*
%TO.N,/MCU/USB_CONN_CC2*%
X96122157Y-82883486D02*
X96122157Y-80452157D01*
X94223486Y-84782157D02*
X96122157Y-82883486D01*
X92827157Y-84782157D02*
X94223486Y-84782157D01*
D55*
%TO.N,/MCU/USB_CMC_D-*%
X84717158Y-86582157D02*
X83817157Y-86582157D01*
X86254657Y-86982157D02*
X86184657Y-86912157D01*
X86184657Y-86912157D02*
X85047158Y-86912157D01*
X85047158Y-86912157D02*
X84717158Y-86582157D01*
%TO.N,/MCU/USB_CMC_D+*%
X84752157Y-85482157D02*
X83817157Y-85482157D01*
X86254657Y-85082157D02*
X85152157Y-85082157D01*
X85152157Y-85082157D02*
X84752157Y-85482157D01*
%TO.N,/MCU/USB_D+*%
X71340000Y-85800000D02*
X71320000Y-85780000D01*
X69617843Y-85797843D02*
X69600000Y-85780000D01*
X81172501Y-85472156D02*
X80272500Y-85472156D01*
X79949312Y-85800001D02*
X79949312Y-85795344D01*
X71320000Y-85780000D02*
X69600000Y-85780000D01*
X79949312Y-85795344D02*
X80272500Y-85472156D01*
X79949312Y-85800001D02*
X71340000Y-85800000D01*
%TO.N,/MCU/USB_D-*%
X80272500Y-86572156D02*
X81172501Y-86572156D01*
X79964657Y-86264313D02*
X80272500Y-86572156D01*
X69600000Y-86280000D02*
X69615686Y-86264314D01*
X69617843Y-86262157D02*
X69600000Y-86280000D01*
X69615686Y-86264314D02*
X79964657Y-86264313D01*
D52*
%TO.N,/MCU/BOOT0*%
X64687500Y-82867500D02*
X64687500Y-81252500D01*
X64687500Y-81252500D02*
X64730000Y-81210000D01*
%TO.N,/MCU/HSE_OUT*%
X54060000Y-86740000D02*
X54050000Y-86730000D01*
X55480000Y-86350000D02*
X55090000Y-86740000D01*
X54347500Y-86740000D02*
X54060000Y-86740000D01*
X55090000Y-86740000D02*
X54347500Y-86740000D01*
X54347500Y-86740000D02*
X54337500Y-86750000D01*
X61275000Y-86780000D02*
X59702762Y-86780000D01*
X59702762Y-86780000D02*
X59272762Y-86350000D01*
X59272762Y-86350000D02*
X55480000Y-86350000D01*
%TO.N,SPI2_NSS*%
X69600000Y-89780000D02*
X70290000Y-89780000D01*
X70580000Y-90070000D02*
X71740000Y-90070000D01*
X71740000Y-90070000D02*
X71760000Y-90050000D01*
X72780000Y-90050000D02*
X71760000Y-90050000D01*
X76260000Y-92340000D02*
X75420000Y-91500000D01*
X80010000Y-93740000D02*
X79180000Y-92910000D01*
X70290000Y-89780000D02*
X70580000Y-90070000D01*
X78150000Y-101740000D02*
X80010000Y-99880000D01*
X75420000Y-91500000D02*
X74230000Y-91500000D01*
X74230000Y-91500000D02*
X72780000Y-90050000D01*
X78150000Y-102200000D02*
X78150000Y-101740000D01*
X80010000Y-99880000D02*
X80010000Y-93740000D01*
%TO.N,SPI1_NSS*%
X55300000Y-101500000D02*
X55300000Y-100690000D01*
X59480000Y-94320000D02*
X62460000Y-94320000D01*
X62920000Y-92500000D02*
X62920000Y-93040000D01*
X57300000Y-98690000D02*
X57300000Y-97210000D01*
X63187500Y-92232500D02*
X62920000Y-92500000D01*
X57300000Y-97210000D02*
X57930000Y-96580000D01*
X62460000Y-94320000D02*
X62920000Y-93860000D01*
X57930000Y-96580000D02*
X58510000Y-96580000D01*
X57240000Y-98750000D02*
X57300000Y-98690000D01*
X63187500Y-91192500D02*
X63187500Y-92232500D01*
X55300000Y-100690000D02*
X57240000Y-98750000D01*
X59040000Y-94760000D02*
X59480000Y-94320000D01*
X62920000Y-93860000D02*
X62920000Y-93040000D01*
%TO.N,/MCU/TIM4_CH3*%
X48370000Y-87660000D02*
X50380000Y-89670000D01*
X64187500Y-82867500D02*
X64187500Y-84742500D01*
X64187500Y-84742500D02*
X64060000Y-84870000D01*
X53330000Y-89670000D02*
X53350000Y-89650000D01*
X50380000Y-89670000D02*
X50540000Y-89670000D01*
X44130000Y-79120000D02*
X45400000Y-79120000D01*
X45400000Y-79120000D02*
X48150000Y-81870000D01*
X48370000Y-82090000D02*
X48370000Y-87660000D01*
X64060000Y-84870000D02*
X64190815Y-84739185D01*
X48150000Y-81870000D02*
X48370000Y-82090000D01*
X50540000Y-89670000D02*
X53330000Y-89670000D01*
%TO.N,/MCU/TIM4_CH1*%
X53400000Y-92090000D02*
X53440000Y-92050000D01*
X67136147Y-85150000D02*
X67270000Y-85150000D01*
X65687500Y-82867500D02*
X65687500Y-83701353D01*
X65687500Y-83701353D02*
X67136147Y-85150000D01*
X45600000Y-82400000D02*
X44190000Y-82400000D01*
X45980000Y-82780000D02*
X45980000Y-88500000D01*
X45600000Y-82400000D02*
X45980000Y-82780000D01*
X49570000Y-92090000D02*
X53400000Y-92090000D01*
X44190000Y-82400000D02*
X44120000Y-82330000D01*
X45980000Y-88500000D02*
X49570000Y-92090000D01*
%TO.N,/MCU/TIM4_CH2*%
X65187500Y-82867500D02*
X65187500Y-86092500D01*
X49890000Y-90750000D02*
X47130000Y-87990000D01*
X45390000Y-80620000D02*
X44150000Y-80620000D01*
X65187500Y-86092500D02*
X65170000Y-86110000D01*
X47130000Y-87990000D02*
X47130000Y-82360000D01*
X47130000Y-82360000D02*
X45390000Y-80620000D01*
X53370000Y-90750000D02*
X49890000Y-90750000D01*
X65170000Y-86110000D02*
X65190815Y-86089185D01*
%TO.N,/MCU/SWDIO*%
X72270000Y-81760000D02*
X69600000Y-81760000D01*
X73130000Y-82620000D02*
X72270000Y-81760000D01*
X72430000Y-85280000D02*
X73130000Y-84580000D01*
X67430000Y-77650000D02*
X54080000Y-77650000D01*
X69600000Y-81760000D02*
X69350000Y-81510000D01*
X53810000Y-77380000D02*
X53810000Y-75710000D01*
X69350000Y-81510000D02*
X69350000Y-79550000D01*
X54080000Y-77650000D02*
X53810000Y-77380000D01*
X69350000Y-79550000D02*
X68070000Y-78270000D01*
X73130000Y-84580000D02*
X73130000Y-82620000D01*
X68070000Y-78270000D02*
X68050000Y-78270000D01*
X69600000Y-85280000D02*
X72430000Y-85280000D01*
X68050000Y-78270000D02*
X67430000Y-77650000D01*
%TO.N,/MCU/SWCLK*%
X49960000Y-76080000D02*
X49960000Y-67660000D01*
X52340000Y-78460000D02*
X49960000Y-76080000D01*
X68187500Y-79797500D02*
X66850000Y-78460000D01*
X66850000Y-78460000D02*
X52340000Y-78460000D01*
X49960000Y-67660000D02*
X50000000Y-67620000D01*
X68187500Y-82867500D02*
X68187500Y-79797500D01*
%TO.N,/MCU/SWO*%
X66380000Y-79340000D02*
X55990000Y-79340000D01*
X67187500Y-82867500D02*
X67187500Y-80147500D01*
X55970000Y-76880000D02*
X55970000Y-75750000D01*
X55990000Y-79340000D02*
X55950000Y-79380000D01*
X67187500Y-80147500D02*
X66380000Y-79340000D01*
X55950000Y-75770000D02*
X56010000Y-75710000D01*
X55970000Y-75750000D02*
X56010000Y-75710000D01*
%TO.N,VCOM*%
X60779500Y-109409500D02*
X56000500Y-109409500D01*
X62660000Y-114130000D02*
X62660000Y-111290000D01*
X69287500Y-116150000D02*
X68330000Y-116150000D01*
X68160000Y-115980000D02*
X68160000Y-114430000D01*
X67012500Y-114250000D02*
X62780000Y-114250000D01*
X61860000Y-117180000D02*
X62660000Y-116380000D01*
X62660000Y-111290000D02*
X60779500Y-109409500D01*
X68330000Y-116150000D02*
X68160000Y-115980000D01*
X68160000Y-114430000D02*
X67980000Y-114250000D01*
X62780000Y-114250000D02*
X62660000Y-114130000D01*
X56000500Y-109409500D02*
X56000000Y-109410000D01*
X67980000Y-114250000D02*
X67012500Y-114250000D01*
X62660000Y-116380000D02*
X62660000Y-114130000D01*
%TO.N,/ADC/IN_BUF_OUT*%
X58950000Y-115437500D02*
X58950000Y-115022581D01*
X56872500Y-115437500D02*
X56810000Y-115500000D01*
X58950000Y-115022581D02*
X59672581Y-114300000D01*
X59672581Y-114300000D02*
X60660000Y-114300000D01*
X60850000Y-114110000D02*
X60850000Y-113162500D01*
X58950000Y-115437500D02*
X56872500Y-115437500D01*
X60660000Y-114300000D02*
X60850000Y-114110000D01*
%TO.N,SPI1_SCK*%
X63687500Y-94512500D02*
X62530000Y-95670000D01*
X62530000Y-95670000D02*
X56020000Y-95670000D01*
X63687500Y-91192500D02*
X63687500Y-94512500D01*
%TO.N,/ADC/ADC_SCLK*%
X56020000Y-96690000D02*
X56020000Y-98711630D01*
X56020000Y-98711630D02*
X54300000Y-100431630D01*
X54300000Y-100431630D02*
X54300000Y-101500000D01*
%TO.N,SPI2_SCK*%
X77570000Y-96160000D02*
X77550000Y-96180000D01*
X77570000Y-90550000D02*
X77570000Y-96160000D01*
X76300000Y-89280000D02*
X77570000Y-90550000D01*
X69600000Y-89280000D02*
X76300000Y-89280000D01*
%TO.N,/DAC/DAC_SCLK*%
X77550000Y-97200000D02*
X77550000Y-98120000D01*
X77550000Y-98120000D02*
X77650000Y-98220000D01*
X77650000Y-98220000D02*
X77650000Y-102200000D01*
%TO.N,/DAC/DAC_OUT_B*%
X76820000Y-108920000D02*
X76820000Y-108360000D01*
X76650000Y-108190000D02*
X76650000Y-106600000D01*
X76820000Y-108360000D02*
X76650000Y-108190000D01*
%TO.N,/DAC/DAC_OUT_A*%
X76150000Y-111680000D02*
X76150000Y-106600000D01*
X76130000Y-111700000D02*
X76150000Y-111680000D01*
%TO.N,SPI1_MISO*%
X58230000Y-99280000D02*
X60560000Y-96950000D01*
X63300000Y-96950000D02*
X64980000Y-95270000D01*
X55320000Y-103130000D02*
X56970000Y-103130000D01*
X54800000Y-102610000D02*
X55320000Y-103130000D01*
X64180870Y-92030870D02*
X64180870Y-91950000D01*
X54800000Y-101500000D02*
X54800000Y-102610000D01*
X60560000Y-96950000D02*
X63300000Y-96950000D01*
X56970000Y-103130000D02*
X58230000Y-101870000D01*
X64980000Y-95270000D02*
X64980000Y-92830000D01*
X58230000Y-101870000D02*
X58230000Y-99280000D01*
X64980000Y-92830000D02*
X64180870Y-92030870D01*
%TO.N,DAC_NCLR*%
X72860000Y-96910000D02*
X75260000Y-96910000D01*
X66187500Y-92202500D02*
X65860000Y-92530000D01*
X78150000Y-105540000D02*
X78220000Y-105470000D01*
X78220000Y-105470000D02*
X78360000Y-105330000D01*
X68520000Y-96910000D02*
X72860000Y-96910000D01*
X78360000Y-105330000D02*
X79350000Y-105330000D01*
X78150000Y-106600000D02*
X78150000Y-105540000D01*
X66187500Y-91192500D02*
X66187500Y-92202500D01*
X65860000Y-94250000D02*
X68520000Y-96910000D01*
X72860000Y-96910000D02*
X73130000Y-96910000D01*
X75260000Y-96910000D02*
X75520000Y-96910000D01*
X65860000Y-92530000D02*
X65860000Y-94250000D01*
%TO.N,DAC_NLDAC*%
X66687500Y-91192500D02*
X66687500Y-93078277D01*
X66687500Y-93078277D02*
X68879223Y-95270000D01*
X77650000Y-104660000D02*
X78040000Y-104270000D01*
X77650000Y-106600000D02*
X77650000Y-104660000D01*
X68879223Y-95270000D02*
X75590000Y-95270000D01*
X78060000Y-104250000D02*
X79370000Y-104250000D01*
X78040000Y-104270000D02*
X78060000Y-104250000D01*
X75590000Y-95270000D02*
X75610000Y-95290000D01*
%TO.N,SPI2_MOSI*%
X80060000Y-103350000D02*
X82290000Y-101120000D01*
X70433853Y-88280000D02*
X69600000Y-88280000D01*
X77340000Y-103350000D02*
X80060000Y-103350000D01*
X79190000Y-87530000D02*
X71183853Y-87530000D01*
X77150000Y-103160000D02*
X77340000Y-103350000D01*
X77150000Y-102200000D02*
X77150000Y-103160000D01*
X71183853Y-87530000D02*
X70433853Y-88280000D01*
X82290000Y-101120000D02*
X82290000Y-90630000D01*
X82290000Y-90630000D02*
X79190000Y-87530000D01*
%TD*%
%TA.AperFunction,Conductor*%
%TO.N,+3V3*%
G36*
X56703431Y-88350002D02*
G01*
X56724405Y-88366905D01*
X56850595Y-88493095D01*
X56884621Y-88555407D01*
X56887500Y-88582190D01*
X56887500Y-89730000D01*
X56950595Y-89793095D01*
X56984621Y-89855407D01*
X56987500Y-89882190D01*
X56987500Y-90600255D01*
X56974198Y-90656603D01*
X56922326Y-90760348D01*
X56873971Y-90812333D01*
X56809628Y-90830000D01*
X55713500Y-90830000D01*
X55645379Y-90809998D01*
X55598886Y-90756342D01*
X55587500Y-90704000D01*
X55587500Y-88597433D01*
X55607502Y-88529312D01*
X55643608Y-88492595D01*
X55855757Y-88351162D01*
X55925649Y-88330000D01*
X56635310Y-88330000D01*
X56703431Y-88350002D01*
G37*
%TD.AperFunction*%
%TD*%
%TA.AperFunction,Conductor*%
%TO.N,VBUS*%
G36*
X87062121Y-88210002D02*
G01*
X87108614Y-88263658D01*
X87120000Y-88316000D01*
X87120000Y-89220000D01*
X87240000Y-89370000D01*
X87495459Y-89370000D01*
X87563580Y-89390002D01*
X87597712Y-89422378D01*
X87716253Y-89587018D01*
X87740000Y-89660640D01*
X87740000Y-90570521D01*
X87719998Y-90638642D01*
X87706332Y-90656258D01*
X87647387Y-90719737D01*
X87586377Y-90756045D01*
X87555055Y-90760000D01*
X86779479Y-90760000D01*
X86711358Y-90739998D01*
X86693742Y-90726332D01*
X86630263Y-90667387D01*
X86593955Y-90606377D01*
X86590000Y-90575055D01*
X86590000Y-89140000D01*
X86404946Y-88946535D01*
X86372315Y-88883483D01*
X86370000Y-88859442D01*
X86370000Y-88366280D01*
X86390002Y-88298159D01*
X86424617Y-88262451D01*
X86497751Y-88212171D01*
X86569134Y-88190000D01*
X86994000Y-88190000D01*
X87062121Y-88210002D01*
G37*
%TD.AperFunction*%
%TD*%
%TA.AperFunction,Conductor*%
%TO.N,GND*%
G36*
X75431743Y-98471162D02*
G01*
X75643892Y-98612595D01*
X75689477Y-98667024D01*
X75700000Y-98717433D01*
X75700000Y-99850000D01*
X75708741Y-99861654D01*
X75708741Y-99861655D01*
X75974800Y-100216400D01*
X75999671Y-100282898D01*
X76000000Y-100292000D01*
X76000000Y-100797810D01*
X75979998Y-100865931D01*
X75963095Y-100886905D01*
X75836905Y-101013095D01*
X75774593Y-101047121D01*
X75747810Y-101050000D01*
X74526000Y-101050000D01*
X74457879Y-101029998D01*
X74411386Y-100976342D01*
X74400000Y-100924000D01*
X74400000Y-98802190D01*
X74420002Y-98734069D01*
X74436905Y-98713095D01*
X74663095Y-98486905D01*
X74725407Y-98452879D01*
X74752190Y-98450000D01*
X75361851Y-98450000D01*
X75431743Y-98471162D01*
G37*
%TD.AperFunction*%
%TD*%
%TA.AperFunction,Conductor*%
%TO.N,+3V3*%
G36*
X54451243Y-97670002D02*
G01*
X54465477Y-97680639D01*
X54606357Y-97802308D01*
X54644838Y-97861970D01*
X54650000Y-97897667D01*
X54650000Y-98928539D01*
X54629998Y-98996660D01*
X54613973Y-99016748D01*
X54167119Y-99472539D01*
X54150000Y-99490000D01*
X54150000Y-100007810D01*
X54129998Y-100075931D01*
X54113095Y-100096905D01*
X54096905Y-100113095D01*
X54034593Y-100147121D01*
X54007810Y-100150000D01*
X53556690Y-100150000D01*
X53489044Y-100130301D01*
X53468350Y-100117132D01*
X53421620Y-100063685D01*
X53410000Y-100010833D01*
X53410000Y-99540660D01*
X53430002Y-99472539D01*
X53445068Y-99453440D01*
X53568695Y-99324552D01*
X53880000Y-99000000D01*
X53716591Y-99000000D01*
X53648470Y-98979998D01*
X53612486Y-98944980D01*
X53601277Y-98928539D01*
X53521895Y-98812112D01*
X53500000Y-98741133D01*
X53500000Y-97920197D01*
X53520002Y-97852076D01*
X53546829Y-97822177D01*
X53725358Y-97677980D01*
X53790920Y-97650737D01*
X53804529Y-97650000D01*
X54383122Y-97650000D01*
X54451243Y-97670002D01*
G37*
%TD.AperFunction*%
%TD*%
%TA.AperFunction,Conductor*%
%TO.N,/ADC/ADC_VREF*%
G36*
X52392029Y-105558567D02*
G01*
X52469668Y-105588760D01*
X52525907Y-105632093D01*
X52549792Y-105698951D01*
X52550000Y-105706193D01*
X52550000Y-106314014D01*
X52529998Y-106382135D01*
X52520379Y-106395175D01*
X52427759Y-106505161D01*
X52368580Y-106544383D01*
X52331380Y-106550000D01*
X51760000Y-106550000D01*
X51414096Y-106763914D01*
X51030868Y-107000910D01*
X50963709Y-107019744D01*
X49946854Y-107012583D01*
X49580000Y-107010000D01*
X47720974Y-107010000D01*
X47652853Y-106989998D01*
X47646864Y-106985901D01*
X47511890Y-106887738D01*
X47468563Y-106831495D01*
X47460000Y-106785837D01*
X47460000Y-106362404D01*
X47480002Y-106294283D01*
X47509636Y-106262182D01*
X47636170Y-106165775D01*
X47702476Y-106140402D01*
X47712530Y-106140000D01*
X49610000Y-106140000D01*
X49625704Y-106129275D01*
X49625705Y-106129275D01*
X49987860Y-105881949D01*
X50058919Y-105860000D01*
X51120000Y-105860000D01*
X51133855Y-105852465D01*
X51661848Y-105565311D01*
X51722047Y-105550000D01*
X52346361Y-105550000D01*
X52392029Y-105558567D01*
G37*
%TD.AperFunction*%
%TD*%
%TA.AperFunction,Conductor*%
%TO.N,+5V*%
G36*
X86035931Y-88270002D02*
G01*
X86056905Y-88286905D01*
X86093095Y-88323095D01*
X86127121Y-88385407D01*
X86130000Y-88412190D01*
X86130000Y-88840737D01*
X86109998Y-88908858D01*
X86096587Y-88926197D01*
X85890000Y-89150000D01*
X85890000Y-90531020D01*
X85867989Y-90602170D01*
X85797529Y-90705150D01*
X85742554Y-90750076D01*
X85693540Y-90760000D01*
X84824841Y-90760000D01*
X84756720Y-90739998D01*
X84722311Y-90707236D01*
X84647264Y-90602170D01*
X84633658Y-90583121D01*
X84610189Y-90509300D01*
X84616512Y-89150000D01*
X84619645Y-88476281D01*
X84639964Y-88408255D01*
X84687756Y-88364954D01*
X84882769Y-88264085D01*
X84940656Y-88250000D01*
X85967810Y-88250000D01*
X86035931Y-88270002D01*
G37*
%TD.AperFunction*%
%TD*%
%TA.AperFunction,Conductor*%
%TO.N,+3V3*%
G36*
X58500889Y-83852948D02*
G01*
X58760000Y-83910000D01*
X58768216Y-83909639D01*
X58768218Y-83909639D01*
X58984725Y-83900122D01*
X58990258Y-83900000D01*
X59878102Y-83900000D01*
X59896792Y-83901394D01*
X59939340Y-83907776D01*
X60003740Y-83937661D01*
X60041760Y-83997620D01*
X60042244Y-84052508D01*
X60044506Y-84052806D01*
X60036708Y-84112040D01*
X60038919Y-84126222D01*
X60052076Y-84130000D01*
X60087500Y-84130000D01*
X60087500Y-84430000D01*
X60052458Y-84430000D01*
X60038687Y-84434044D01*
X60036658Y-84447583D01*
X60043428Y-84499005D01*
X60047668Y-84514828D01*
X60060849Y-84546650D01*
X60068439Y-84617240D01*
X60033536Y-84683964D01*
X59924405Y-84793095D01*
X59862093Y-84827121D01*
X59835310Y-84830000D01*
X58787500Y-84830000D01*
X58771979Y-84840347D01*
X58771977Y-84840348D01*
X58494031Y-85025646D01*
X58480488Y-85033506D01*
X58314104Y-85116698D01*
X58257755Y-85130000D01*
X57537900Y-85130000D01*
X57469779Y-85109998D01*
X57451003Y-85095241D01*
X57316747Y-84967378D01*
X57281213Y-84905914D01*
X57277644Y-84875802D01*
X57279817Y-84058948D01*
X57300001Y-83990881D01*
X57338171Y-83952982D01*
X57362247Y-83937661D01*
X57469045Y-83869699D01*
X57536690Y-83850000D01*
X58473795Y-83850000D01*
X58500889Y-83852948D01*
G37*
%TD.AperFunction*%
%TD*%
%TA.AperFunction,Conductor*%
%TO.N,/Power/+5V_FILT*%
G36*
X70584194Y-103050002D02*
G01*
X70626063Y-103094534D01*
X70737052Y-103293145D01*
X70954091Y-103681531D01*
X70970099Y-103742613D01*
X70989805Y-110225910D01*
X70970011Y-110294091D01*
X70938318Y-110327900D01*
X70873263Y-110375607D01*
X70806501Y-110399761D01*
X70798751Y-110400000D01*
X67646000Y-110400000D01*
X67577879Y-110379998D01*
X67531386Y-110326342D01*
X67520000Y-110274000D01*
X67520000Y-109980000D01*
X66186000Y-109980000D01*
X66117879Y-109959998D01*
X66071386Y-109906342D01*
X66060000Y-109854000D01*
X66060000Y-109156000D01*
X66080002Y-109087879D01*
X66133658Y-109041386D01*
X66186000Y-109030000D01*
X67560000Y-109030000D01*
X67606419Y-108751488D01*
X67637348Y-108687582D01*
X67700145Y-108649964D01*
X67842424Y-108614394D01*
X67860000Y-108610000D01*
X68010000Y-108280000D01*
X68010000Y-104330000D01*
X67839103Y-104167241D01*
X67803569Y-104105777D01*
X67800000Y-104076000D01*
X67800000Y-103293145D01*
X67816309Y-103231146D01*
X67893826Y-103094001D01*
X67944759Y-103044539D01*
X68003517Y-103030000D01*
X70516073Y-103030000D01*
X70584194Y-103050002D01*
G37*
%TD.AperFunction*%
%TD*%
%TA.AperFunction,Conductor*%
%TO.N,GND*%
G36*
X91533336Y-89330001D02*
G01*
X91619808Y-89362028D01*
X91650902Y-89378830D01*
X91651397Y-89379196D01*
X91651401Y-89379198D01*
X91658973Y-89384791D01*
X91665789Y-89387184D01*
X91671726Y-89391288D01*
X91680706Y-89394128D01*
X91680708Y-89394129D01*
X91700874Y-89400507D01*
X91727676Y-89408983D01*
X91731407Y-89410228D01*
X91777894Y-89426553D01*
X91777896Y-89426553D01*
X91786788Y-89429676D01*
X91793976Y-89429958D01*
X91794035Y-89429969D01*
X91800887Y-89432137D01*
X91807494Y-89432657D01*
X91860173Y-89432657D01*
X91865119Y-89432754D01*
X91919040Y-89434873D01*
X91919041Y-89434873D01*
X91922151Y-89434995D01*
X91922134Y-89435422D01*
X91985667Y-89446695D01*
X91999595Y-89454766D01*
X92013608Y-89464130D01*
X92013610Y-89464131D01*
X92023926Y-89471024D01*
X92082409Y-89482657D01*
X93516157Y-89482657D01*
X93584278Y-89502659D01*
X93630771Y-89556315D01*
X93642157Y-89608657D01*
X93642157Y-89988925D01*
X93622155Y-90057046D01*
X93615615Y-90066282D01*
X93609990Y-90073514D01*
X93552378Y-90115005D01*
X93510532Y-90122157D01*
X92392157Y-90122157D01*
X92202157Y-90202157D01*
X92202157Y-90865279D01*
X92182155Y-90933400D01*
X92171517Y-90947635D01*
X92049850Y-91088513D01*
X91990187Y-91126995D01*
X91954490Y-91132157D01*
X91521300Y-91132157D01*
X91453179Y-91112155D01*
X91435991Y-91098884D01*
X91349419Y-91019238D01*
X91262848Y-90939592D01*
X91226258Y-90878752D01*
X91222157Y-90846866D01*
X91222157Y-90452157D01*
X91213554Y-90445539D01*
X91213549Y-90445534D01*
X90881334Y-90189985D01*
X90839535Y-90132597D01*
X90832157Y-90090114D01*
X90832157Y-89626686D01*
X90852159Y-89558565D01*
X90860137Y-89547515D01*
X91004334Y-89368986D01*
X91062697Y-89328561D01*
X91102354Y-89322157D01*
X91489574Y-89322157D01*
X91533336Y-89330001D01*
G37*
%TD.AperFunction*%
%TD*%
%TA.AperFunction,Conductor*%
%TO.N,GND*%
G36*
X92048870Y-81992159D02*
G01*
X92055492Y-81996720D01*
X92160900Y-82074389D01*
X92203876Y-82130901D01*
X92212157Y-82175826D01*
X92212157Y-82682157D01*
X92412157Y-82922157D01*
X92774813Y-82928633D01*
X93481289Y-82941249D01*
X93549041Y-82962464D01*
X93568134Y-82978134D01*
X93585252Y-82995252D01*
X93619278Y-83057564D01*
X93622157Y-83084347D01*
X93622157Y-83391978D01*
X93620522Y-83412209D01*
X93610163Y-83475888D01*
X93579483Y-83539913D01*
X93519058Y-83577188D01*
X93485798Y-83581657D01*
X92082409Y-83581657D01*
X92023926Y-83593290D01*
X91998286Y-83610423D01*
X91928285Y-83631657D01*
X91114062Y-83631657D01*
X91045941Y-83611655D01*
X91030144Y-83599645D01*
X90974239Y-83549730D01*
X90936747Y-83489441D01*
X90932157Y-83455742D01*
X90932157Y-83084347D01*
X90952159Y-83016226D01*
X90969062Y-82995252D01*
X91222157Y-82742157D01*
X91222157Y-82189798D01*
X91242159Y-82121677D01*
X91253678Y-82106434D01*
X91334538Y-82014793D01*
X91394606Y-81976947D01*
X91429017Y-81972157D01*
X91980749Y-81972157D01*
X92048870Y-81992159D01*
G37*
%TD.AperFunction*%
%TD*%
%TA.AperFunction,Conductor*%
%TO.N,+3V3*%
G36*
X77015931Y-98470002D02*
G01*
X77036905Y-98486905D01*
X77163095Y-98613095D01*
X77197121Y-98675407D01*
X77200000Y-98702190D01*
X77200000Y-99497810D01*
X77179998Y-99565931D01*
X77163095Y-99586905D01*
X77000000Y-99750000D01*
X77000000Y-100697810D01*
X76979998Y-100765931D01*
X76963095Y-100786905D01*
X76836905Y-100913095D01*
X76774593Y-100947121D01*
X76747810Y-100950000D01*
X76529745Y-100950000D01*
X76473397Y-100936698D01*
X76369652Y-100884826D01*
X76317667Y-100836471D01*
X76300000Y-100772128D01*
X76300000Y-99750000D01*
X76136905Y-99586905D01*
X76102879Y-99524593D01*
X76100000Y-99497810D01*
X76100000Y-98702190D01*
X76120002Y-98634069D01*
X76136905Y-98613095D01*
X76263095Y-98486905D01*
X76325407Y-98452879D01*
X76352190Y-98450000D01*
X76947810Y-98450000D01*
X77015931Y-98470002D01*
G37*
%TD.AperFunction*%
%TD*%
%TA.AperFunction,Conductor*%
%TO.N,+3.3VA*%
G36*
X65291119Y-109970002D02*
G01*
X65305518Y-109980782D01*
X65309101Y-109983887D01*
X65376521Y-110042318D01*
X65414899Y-110102048D01*
X65420000Y-110137535D01*
X65420000Y-110400000D01*
X65530000Y-110500000D01*
X65542103Y-110500206D01*
X67308228Y-110530245D01*
X67375998Y-110551403D01*
X67384797Y-110557838D01*
X67404542Y-110573634D01*
X67445240Y-110631807D01*
X67451824Y-110670750D01*
X67459562Y-111436637D01*
X67440249Y-111504956D01*
X67433657Y-111514449D01*
X67367958Y-111600362D01*
X67310689Y-111642324D01*
X67267510Y-111649822D01*
X66341456Y-111647184D01*
X63871980Y-111640148D01*
X63803917Y-111619952D01*
X63783244Y-111603244D01*
X63756905Y-111576905D01*
X63722879Y-111514593D01*
X63720000Y-111487810D01*
X63720000Y-110144754D01*
X63740002Y-110076633D01*
X63760028Y-110052641D01*
X63833693Y-109983887D01*
X63897141Y-109952030D01*
X63919665Y-109950000D01*
X65222998Y-109950000D01*
X65291119Y-109970002D01*
G37*
%TD.AperFunction*%
%TD*%
%TA.AperFunction,Conductor*%
%TO.N,+3.3VA*%
G36*
X51009705Y-100877603D02*
G01*
X51505416Y-101171358D01*
X51505417Y-101171358D01*
X51520000Y-101180000D01*
X52351851Y-101180000D01*
X52421742Y-101201161D01*
X52483894Y-101242596D01*
X52529477Y-101297024D01*
X52540000Y-101347433D01*
X52540000Y-101752048D01*
X52519998Y-101820169D01*
X52496000Y-101847714D01*
X52435390Y-101899666D01*
X52370652Y-101928812D01*
X52353390Y-101930000D01*
X50243768Y-101930000D01*
X50175647Y-101909998D01*
X50152797Y-101891180D01*
X50111143Y-101847714D01*
X49995029Y-101726552D01*
X49962338Y-101663530D01*
X49960000Y-101639372D01*
X49960000Y-101145291D01*
X49980002Y-101077170D01*
X50000691Y-101052564D01*
X50173834Y-100893273D01*
X50237509Y-100861871D01*
X50259143Y-100860000D01*
X50945470Y-100860000D01*
X51009705Y-100877603D01*
G37*
%TD.AperFunction*%
%TD*%
%TA.AperFunction,Conductor*%
%TO.N,+3V3*%
G36*
X81262643Y-67829735D02*
G01*
X82653988Y-67839603D01*
X82721965Y-67860088D01*
X82747231Y-67881849D01*
X83059446Y-68232784D01*
X83089781Y-68296974D01*
X83091309Y-68316180D01*
X83111017Y-75312271D01*
X83091206Y-75380448D01*
X83069496Y-75406110D01*
X82820450Y-75631157D01*
X82735503Y-75707918D01*
X82671550Y-75738749D01*
X82652151Y-75740427D01*
X80512848Y-75759528D01*
X80444551Y-75740135D01*
X80422628Y-75722628D01*
X80296905Y-75596905D01*
X80262879Y-75534593D01*
X80260000Y-75507810D01*
X80260000Y-72820000D01*
X80160000Y-72710000D01*
X79429311Y-72017269D01*
X79393637Y-71955886D01*
X79390000Y-71925830D01*
X79390000Y-68484476D01*
X79410002Y-68416355D01*
X79417920Y-68405379D01*
X79505344Y-68296974D01*
X79851830Y-67867331D01*
X79910163Y-67826861D01*
X79950803Y-67820431D01*
X81262643Y-67829735D01*
G37*
%TD.AperFunction*%
%TD*%
%TA.AperFunction,Conductor*%
%TO.N,/Power/BUCK_SW*%
G36*
X77029769Y-68220003D02*
G01*
X77067400Y-68257270D01*
X77219191Y-68489698D01*
X77329496Y-68658603D01*
X77350000Y-68727498D01*
X77350000Y-70890000D01*
X77358160Y-70899675D01*
X79690317Y-73664806D01*
X79718946Y-73729774D01*
X79720000Y-73746041D01*
X79720000Y-75138265D01*
X79719951Y-75141764D01*
X79713403Y-75377499D01*
X79691518Y-75445038D01*
X79636592Y-75490023D01*
X79587452Y-75500000D01*
X78338213Y-75500000D01*
X78270092Y-75479998D01*
X78254102Y-75467816D01*
X78039494Y-75275408D01*
X78002126Y-75215041D01*
X77997721Y-75187006D01*
X77960778Y-74328098D01*
X77960000Y-74310000D01*
X77710000Y-74030000D01*
X73316460Y-74030000D01*
X73248339Y-74009998D01*
X73212471Y-73975150D01*
X73044582Y-73729774D01*
X72752011Y-73302170D01*
X72730000Y-73231020D01*
X72730000Y-68555541D01*
X72748572Y-68489698D01*
X72883234Y-68269986D01*
X72935885Y-68222359D01*
X72990355Y-68209829D01*
X74170564Y-68206957D01*
X76961600Y-68200166D01*
X77029769Y-68220003D01*
G37*
%TD.AperFunction*%
%TD*%
%TA.AperFunction,Conductor*%
%TO.N,VDDA*%
G36*
X59929621Y-88050002D02*
G01*
X59976114Y-88103658D01*
X59987500Y-88156000D01*
X59987500Y-90377810D01*
X59967498Y-90445931D01*
X59950595Y-90466905D01*
X59724405Y-90693095D01*
X59662093Y-90727121D01*
X59635310Y-90730000D01*
X57417245Y-90730000D01*
X57360897Y-90716698D01*
X57257152Y-90664826D01*
X57205167Y-90616471D01*
X57187500Y-90552128D01*
X57187500Y-89882190D01*
X57207502Y-89814069D01*
X57224405Y-89793095D01*
X57387500Y-89630000D01*
X57387500Y-88382190D01*
X57407502Y-88314069D01*
X57424405Y-88293095D01*
X57550595Y-88166905D01*
X57612907Y-88132879D01*
X57639690Y-88130000D01*
X59287500Y-88130000D01*
X59350595Y-88066905D01*
X59412907Y-88032879D01*
X59439690Y-88030000D01*
X59861500Y-88030000D01*
X59929621Y-88050002D01*
G37*
%TD.AperFunction*%
%TD*%
%TA.AperFunction,Conductor*%
%TO.N,GND*%
G36*
X47182503Y-107040002D02*
G01*
X47195045Y-107049204D01*
X47294663Y-107132219D01*
X47334190Y-107191195D01*
X47340000Y-107229015D01*
X47340000Y-110435412D01*
X47322342Y-110499740D01*
X47187041Y-110727616D01*
X47135064Y-110775978D01*
X47077453Y-110789282D01*
X46214124Y-110780734D01*
X46146204Y-110760058D01*
X46104635Y-110714854D01*
X45965264Y-110458118D01*
X45950000Y-110398004D01*
X45950000Y-109420000D01*
X45941748Y-109410011D01*
X45941748Y-109410010D01*
X45771538Y-109203967D01*
X45760000Y-109190000D01*
X45664841Y-109190000D01*
X45596720Y-109169998D01*
X45562314Y-109137240D01*
X45473263Y-109012568D01*
X45449796Y-108939976D01*
X45440646Y-107146643D01*
X45460300Y-107078421D01*
X45513718Y-107031655D01*
X45566644Y-107020000D01*
X47114382Y-107020000D01*
X47182503Y-107040002D01*
G37*
%TD.AperFunction*%
%TD*%
%TA.AperFunction,Conductor*%
%TO.N,+5V*%
G36*
X77341741Y-74531161D02*
G01*
X77376050Y-74554033D01*
X77421633Y-74608459D01*
X77432091Y-74654806D01*
X77433871Y-74710000D01*
X77439896Y-74896763D01*
X77439940Y-74903202D01*
X77431208Y-75365994D01*
X77409924Y-75433725D01*
X77355401Y-75479198D01*
X77304166Y-75489613D01*
X75256089Y-75472317D01*
X75248941Y-75482390D01*
X75248940Y-75482391D01*
X75166971Y-75597901D01*
X75111236Y-75641879D01*
X75066125Y-75650968D01*
X74561444Y-75658614D01*
X73846481Y-75669447D01*
X73778870Y-75650975D01*
X73690298Y-75596848D01*
X73642601Y-75544259D01*
X73630000Y-75489334D01*
X73630000Y-74764000D01*
X73650002Y-74695879D01*
X73669103Y-74672759D01*
X73803503Y-74544759D01*
X73866627Y-74512263D01*
X73890400Y-74510000D01*
X77271851Y-74510000D01*
X77341741Y-74531161D01*
G37*
%TD.AperFunction*%
%TD*%
%TA.AperFunction,Conductor*%
%TO.N,GND*%
G36*
X58700358Y-82153470D02*
G01*
X58737500Y-82180000D01*
X59861500Y-82180000D01*
X59929621Y-82200002D01*
X59976114Y-82253658D01*
X59987500Y-82306000D01*
X59987500Y-83493863D01*
X59968348Y-83560642D01*
X59937013Y-83610779D01*
X59883948Y-83657945D01*
X59830165Y-83670000D01*
X58911753Y-83670000D01*
X58888445Y-83667825D01*
X58687500Y-83630000D01*
X57539690Y-83630000D01*
X57471569Y-83609998D01*
X57450595Y-83593095D01*
X57254090Y-83396590D01*
X57220064Y-83334278D01*
X57217185Y-83307495D01*
X57217185Y-82903161D01*
X57217664Y-82892179D01*
X57220238Y-82862753D01*
X57221199Y-82851774D01*
X57210703Y-82812602D01*
X57208325Y-82801878D01*
X57203194Y-82772779D01*
X57201280Y-82761924D01*
X57195769Y-82752378D01*
X57195098Y-82750535D01*
X57187500Y-82707442D01*
X57187500Y-82468149D01*
X57208662Y-82398257D01*
X57350095Y-82186108D01*
X57404524Y-82140523D01*
X57454933Y-82130000D01*
X58627122Y-82130000D01*
X58700358Y-82153470D01*
G37*
%TD.AperFunction*%
%TD*%
%TA.AperFunction,Conductor*%
%TO.N,GND*%
G36*
X67171959Y-104870002D02*
G01*
X67207563Y-104904466D01*
X67347725Y-105107701D01*
X67370000Y-105179235D01*
X67370000Y-106780000D01*
X67374797Y-106791512D01*
X67374797Y-106791514D01*
X67510308Y-107116739D01*
X67520000Y-107165201D01*
X67520000Y-108356768D01*
X67499998Y-108424889D01*
X67493459Y-108434124D01*
X67485371Y-108444523D01*
X67455914Y-108471932D01*
X67430448Y-108488948D01*
X67423553Y-108499267D01*
X67407025Y-108524002D01*
X67352548Y-108569530D01*
X67302260Y-108580000D01*
X65750000Y-108580000D01*
X65520000Y-108730000D01*
X65520000Y-108994398D01*
X65499998Y-109062519D01*
X65466256Y-109097621D01*
X65252539Y-109247223D01*
X65180283Y-109270000D01*
X63293412Y-109270000D01*
X63225291Y-109249998D01*
X63192219Y-109219073D01*
X63098746Y-109093077D01*
X63074222Y-109026450D01*
X63073939Y-109018329D01*
X63073212Y-108736023D01*
X63064140Y-105216070D01*
X63083269Y-105149003D01*
X63232993Y-104909258D01*
X63286042Y-104862074D01*
X63339864Y-104850000D01*
X67103838Y-104850000D01*
X67171959Y-104870002D01*
G37*
%TD.AperFunction*%
%TD*%
%TA.AperFunction,Conductor*%
%TO.N,GND*%
G36*
X66221928Y-117250002D02*
G01*
X66268421Y-117303658D01*
X66271240Y-117310332D01*
X66301433Y-117387971D01*
X66310000Y-117433639D01*
X66310000Y-117870737D01*
X66289998Y-117938858D01*
X66276585Y-117956200D01*
X66227419Y-118009463D01*
X66166517Y-118045952D01*
X66134834Y-118050000D01*
X65780000Y-118050000D01*
X65670000Y-118230000D01*
X65670000Y-119951733D01*
X65649998Y-120019854D01*
X65625605Y-120047736D01*
X65537372Y-120122734D01*
X65505288Y-120150005D01*
X65440430Y-120178882D01*
X65423685Y-120180000D01*
X64768541Y-120180000D01*
X64700420Y-120159998D01*
X64684006Y-120147434D01*
X64551465Y-120027516D01*
X64514371Y-119966980D01*
X64510000Y-119934082D01*
X64510000Y-117459745D01*
X64523302Y-117403396D01*
X64575175Y-117299651D01*
X64623530Y-117247667D01*
X64687873Y-117230000D01*
X66153807Y-117230000D01*
X66221928Y-117250002D01*
G37*
%TD.AperFunction*%
%TD*%
%TA.AperFunction,Conductor*%
%TO.N,GND*%
G36*
X79953305Y-75810105D02*
G01*
X79964741Y-75818357D01*
X80865925Y-76548595D01*
X80880000Y-76560000D01*
X82133863Y-76560000D01*
X82200643Y-76579152D01*
X82271147Y-76623217D01*
X82318312Y-76676283D01*
X82330365Y-76729402D01*
X82339714Y-78505692D01*
X82320071Y-78573917D01*
X82300716Y-78597498D01*
X82156517Y-78735143D01*
X82093431Y-78767710D01*
X82069517Y-78770000D01*
X80439123Y-78770000D01*
X80367757Y-78747841D01*
X80344500Y-78731857D01*
X80074416Y-78546239D01*
X80029605Y-78491171D01*
X80019785Y-78441552D01*
X80029322Y-77020524D01*
X80029423Y-77016253D01*
X80047189Y-76579152D01*
X80050000Y-76510000D01*
X80022078Y-76486732D01*
X79943916Y-76421596D01*
X79943914Y-76421595D01*
X79930000Y-76410000D01*
X75750000Y-76410000D01*
X75739861Y-76418296D01*
X75739860Y-76418296D01*
X75489401Y-76623217D01*
X75420000Y-76680000D01*
X75408594Y-77459077D01*
X75417334Y-78770000D01*
X75417739Y-78830770D01*
X75398192Y-78899023D01*
X75344847Y-78945872D01*
X75290295Y-78957602D01*
X72945985Y-78930644D01*
X72878100Y-78909860D01*
X72852955Y-78888016D01*
X72771915Y-78796170D01*
X72741844Y-78731857D01*
X72740399Y-78711765D01*
X72754376Y-77020524D01*
X72759521Y-76397912D01*
X72780086Y-76329960D01*
X72804263Y-76302653D01*
X73044801Y-76099699D01*
X73109764Y-76071058D01*
X73126055Y-76070000D01*
X75120000Y-76070000D01*
X75126400Y-76062802D01*
X75126401Y-76062802D01*
X75322456Y-75842307D01*
X75382669Y-75804691D01*
X75416341Y-75800031D01*
X79666081Y-75790731D01*
X79885140Y-75790252D01*
X79953305Y-75810105D01*
G37*
%TD.AperFunction*%
%TD*%
%TA.AperFunction,Conductor*%
%TO.N,/ADC/ADC_VREF_VIN*%
G36*
X48932069Y-107991807D02*
G01*
X49094851Y-108102499D01*
X49139935Y-108157345D01*
X49150000Y-108206692D01*
X49150000Y-108716638D01*
X49129998Y-108784759D01*
X49099137Y-108817784D01*
X48800000Y-109040000D01*
X48800000Y-110539600D01*
X48779998Y-110607721D01*
X48765241Y-110626497D01*
X48637241Y-110760897D01*
X48575777Y-110796431D01*
X48546000Y-110800000D01*
X47815918Y-110800000D01*
X47747797Y-110779998D01*
X47722484Y-110758535D01*
X47602566Y-110625994D01*
X47571696Y-110562060D01*
X47570000Y-110541459D01*
X47570000Y-108154500D01*
X47590002Y-108086379D01*
X47635278Y-108044097D01*
X47741642Y-107985597D01*
X47802364Y-107970000D01*
X48861218Y-107970000D01*
X48932069Y-107991807D01*
G37*
%TD.AperFunction*%
%TD*%
%TA.AperFunction,Conductor*%
%TO.N,GND*%
G36*
X58359886Y-86731976D02*
G01*
X58592080Y-86889537D01*
X58592082Y-86889537D01*
X58607500Y-86900000D01*
X59104521Y-86904438D01*
X59286764Y-86906065D01*
X59354703Y-86926674D01*
X59374734Y-86942965D01*
X59442647Y-87010878D01*
X59450074Y-87018982D01*
X59476153Y-87050062D01*
X59485702Y-87055575D01*
X59511282Y-87070344D01*
X59520554Y-87076251D01*
X59544743Y-87093189D01*
X59544745Y-87093190D01*
X59553772Y-87099511D01*
X59564416Y-87102363D01*
X59568451Y-87104245D01*
X59572643Y-87105771D01*
X59582186Y-87111280D01*
X59593041Y-87113194D01*
X59622129Y-87118323D01*
X59632853Y-87120701D01*
X59672036Y-87131200D01*
X59712453Y-87127664D01*
X59723435Y-87127185D01*
X59913522Y-87127185D01*
X59981643Y-87147187D01*
X59998985Y-87160600D01*
X60046978Y-87204901D01*
X60083467Y-87265803D01*
X60087515Y-87297486D01*
X60087515Y-87423910D01*
X60077924Y-87472128D01*
X60047667Y-87545175D01*
X60043428Y-87560995D01*
X60030038Y-87662700D01*
X60029500Y-87670908D01*
X60029500Y-87686318D01*
X60009498Y-87754439D01*
X59955842Y-87800932D01*
X59903500Y-87812318D01*
X55949644Y-87812318D01*
X55889310Y-87796934D01*
X55763178Y-87728134D01*
X55712955Y-87677955D01*
X55697515Y-87617520D01*
X55697515Y-86846000D01*
X55717517Y-86777879D01*
X55771173Y-86731386D01*
X55823515Y-86720000D01*
X56697500Y-86720000D01*
X56697633Y-86719999D01*
X56697738Y-86719999D01*
X58008694Y-86711956D01*
X58288364Y-86710240D01*
X58359886Y-86731976D01*
G37*
%TD.AperFunction*%
%TD*%
%TA.AperFunction,Conductor*%
%TO.N,GND*%
G36*
X87530056Y-91240002D02*
G01*
X87545853Y-91252012D01*
X87747918Y-91432427D01*
X87785410Y-91492717D01*
X87790000Y-91526415D01*
X87790000Y-92614337D01*
X87771309Y-92680373D01*
X87586901Y-92980036D01*
X87534164Y-93027569D01*
X87479592Y-93040000D01*
X85003933Y-93040000D01*
X84935812Y-93019998D01*
X84902247Y-92988404D01*
X84664314Y-92663229D01*
X84640230Y-92596442D01*
X84640000Y-92588825D01*
X84640000Y-91477873D01*
X84660002Y-91409752D01*
X84709651Y-91365175D01*
X84973396Y-91233302D01*
X85029745Y-91220000D01*
X87461935Y-91220000D01*
X87530056Y-91240002D01*
G37*
%TD.AperFunction*%
%TD*%
%TA.AperFunction,Conductor*%
%TO.N,GND*%
G36*
X52492121Y-102240002D02*
G01*
X52538614Y-102293658D01*
X52550000Y-102346000D01*
X52550000Y-105090989D01*
X52529998Y-105159110D01*
X52516887Y-105176124D01*
X52477452Y-105219143D01*
X52416679Y-105255841D01*
X52384573Y-105260000D01*
X51150000Y-105260000D01*
X51058286Y-105305857D01*
X50977313Y-105346343D01*
X50919464Y-105359636D01*
X50203504Y-105351113D01*
X50167706Y-105350687D01*
X50099828Y-105329876D01*
X50072827Y-105305857D01*
X49979782Y-105195366D01*
X49951203Y-105130376D01*
X49950162Y-105113764D01*
X49959688Y-102389247D01*
X49979928Y-102321197D01*
X50033746Y-102274892D01*
X50044293Y-102270682D01*
X50169895Y-102226994D01*
X50211289Y-102220000D01*
X52424000Y-102220000D01*
X52492121Y-102240002D01*
G37*
%TD.AperFunction*%
%TD*%
%TA.AperFunction,Conductor*%
%TO.N,GND*%
G36*
X54654590Y-84875244D02*
G01*
X54689891Y-84888478D01*
X54705149Y-84892105D01*
X54756014Y-84897631D01*
X54762828Y-84898000D01*
X55108246Y-84898000D01*
X55176367Y-84918002D01*
X55210147Y-84949890D01*
X55366846Y-85165351D01*
X55377500Y-85180000D01*
X55766785Y-85171349D01*
X55835332Y-85189833D01*
X55866378Y-85216654D01*
X55898295Y-85254954D01*
X55926540Y-85320091D01*
X55927500Y-85335618D01*
X55927500Y-85824000D01*
X55907498Y-85892121D01*
X55853842Y-85938614D01*
X55801500Y-85950000D01*
X53989757Y-85950000D01*
X53985260Y-85949920D01*
X53829003Y-85944339D01*
X53761639Y-85921918D01*
X53717091Y-85866637D01*
X53707500Y-85818419D01*
X53707500Y-85329836D01*
X53727502Y-85261715D01*
X53766720Y-85222988D01*
X53836857Y-85179152D01*
X53903637Y-85160000D01*
X54337500Y-85160000D01*
X54507607Y-84920304D01*
X54563344Y-84876327D01*
X54634008Y-84869465D01*
X54654590Y-84875244D01*
G37*
%TD.AperFunction*%
%TD*%
%TA.AperFunction,Conductor*%
%TO.N,GND*%
G36*
X52890181Y-97618371D02*
G01*
X53029513Y-97703182D01*
X53077302Y-97755687D01*
X53090000Y-97810811D01*
X53090000Y-99380000D01*
X53099165Y-99394893D01*
X53151309Y-99479627D01*
X53170000Y-99545663D01*
X53170000Y-100054000D01*
X53149998Y-100122121D01*
X53096342Y-100168614D01*
X53044000Y-100180000D01*
X51966524Y-100180000D01*
X51898403Y-100159998D01*
X51851910Y-100106342D01*
X51840525Y-100053477D01*
X51849719Y-97837820D01*
X51870004Y-97769783D01*
X51906764Y-97732885D01*
X51952192Y-97703182D01*
X52078584Y-97620542D01*
X52147536Y-97600000D01*
X52824668Y-97600000D01*
X52890181Y-97618371D01*
G37*
%TD.AperFunction*%
%TD*%
M02*
