%TF.GenerationSoftware,KiCad,Pcbnew,(6.0.9)*%
%TF.CreationDate,2022-11-20T17:42:03-05:00*%
%TF.ProjectId,Nemesis-MixSigPCB,4e656d65-7369-4732-9d4d-697853696750,rev?*%
%TF.SameCoordinates,Original*%
%TF.FileFunction,Copper,L2,Inr*%
%TF.FilePolarity,Positive*%
%FSLAX46Y46*%
G04 Gerber Fmt 4.6, Leading zero omitted, Abs format (unit mm)*
G04 Created by KiCad (PCBNEW (6.0.9)) date 2022-11-20 17:42:03*
%MOMM*%
%LPD*%
G01*
G04 APERTURE LIST*
%TA.AperFunction,ComponentPad*%
%ADD10C,1.900000*%
%TD*%
%TA.AperFunction,ComponentPad*%
%ADD11C,3.000000*%
%TD*%
%TA.AperFunction,ComponentPad*%
%ADD12O,1.600000X1.000000*%
%TD*%
%TA.AperFunction,ComponentPad*%
%ADD13O,2.100000X1.000000*%
%TD*%
%TA.AperFunction,ViaPad*%
%ADD14C,0.800000*%
%TD*%
%TA.AperFunction,ViaPad*%
%ADD15C,0.700000*%
%TD*%
G04 APERTURE END LIST*
D10*
%TO.N,/DAC/OUT*%
%TO.C,J400*%
X80800000Y-127000000D03*
D11*
%TO.N,GND*%
X75720000Y-132080000D03*
X85880000Y-132080000D03*
D10*
X83340000Y-127000000D03*
%TD*%
D12*
%TO.N,GND*%
%TO.C,J200*%
X97922157Y-82212157D03*
D13*
X93742157Y-90852157D03*
D12*
X97922157Y-90852157D03*
D13*
X93742157Y-82212157D03*
%TD*%
D10*
%TO.N,/ADC/IN*%
%TO.C,J300*%
X55900000Y-127100000D03*
D11*
%TO.N,GND*%
X50820000Y-132180000D03*
X60980000Y-132180000D03*
D10*
X58440000Y-127100000D03*
%TD*%
D14*
%TO.N,GND*%
X69544000Y-119222000D03*
X72084000Y-119222000D03*
X77164000Y-119222000D03*
X74624000Y-119222000D03*
X82244000Y-109570000D03*
X82244000Y-107030000D03*
X72592000Y-111094000D03*
X72592000Y-108554000D03*
X72592000Y-105760000D03*
X72592000Y-101696000D03*
X61670000Y-98394000D03*
X65734000Y-97378000D03*
X59638000Y-106268000D03*
X59638000Y-104236000D03*
X65734000Y-102204000D03*
X62686000Y-102204000D03*
X59638000Y-102204000D03*
X64464000Y-121508000D03*
X61924000Y-121508000D03*
X67004000Y-121508000D03*
X74624000Y-121508000D03*
X72084000Y-121508000D03*
X69544000Y-121508000D03*
X77164000Y-121508000D03*
X69544000Y-124556000D03*
X67004000Y-124556000D03*
X64464000Y-124556000D03*
X72084000Y-124556000D03*
X85038000Y-107030000D03*
X85038000Y-99664000D03*
X85038000Y-101950000D03*
X85038000Y-124302000D03*
X85038000Y-97124000D03*
X85038000Y-109570000D03*
X85038000Y-121762000D03*
X85038000Y-116936000D03*
X85038000Y-104490000D03*
X85038000Y-114396000D03*
X85038000Y-119476000D03*
X85038000Y-111856000D03*
X88086000Y-119476000D03*
X88086000Y-116936000D03*
X88086000Y-121762000D03*
X88086000Y-124302000D03*
X88086000Y-109570000D03*
X88086000Y-107030000D03*
X88086000Y-111856000D03*
X88086000Y-114396000D03*
X88086000Y-99664000D03*
X88086000Y-97124000D03*
X88086000Y-101950000D03*
X88086000Y-104490000D03*
X68274000Y-67914000D03*
X68274000Y-65374000D03*
X68274000Y-70200000D03*
X68274000Y-72740000D03*
X71068000Y-67914000D03*
X71068000Y-65374000D03*
X71068000Y-70200000D03*
X71068000Y-72740000D03*
X78434000Y-65374000D03*
X80974000Y-65374000D03*
X76148000Y-65374000D03*
X73608000Y-65374000D03*
X91642000Y-72486000D03*
X94182000Y-72486000D03*
X89356000Y-72486000D03*
X86816000Y-72486000D03*
X86816000Y-65374000D03*
X89102000Y-67660000D03*
X89102000Y-70200000D03*
X86816000Y-67660000D03*
X84276000Y-67660000D03*
X91642000Y-67660000D03*
X84276000Y-65374000D03*
X84276000Y-70200000D03*
X91642000Y-65374000D03*
X91642000Y-70200000D03*
X86816000Y-70200000D03*
X89102000Y-65374000D03*
X93674000Y-97124000D03*
X95960000Y-99410000D03*
X95960000Y-101950000D03*
X93674000Y-99410000D03*
X91134000Y-99410000D03*
X98500000Y-99410000D03*
X91134000Y-97124000D03*
X91134000Y-101950000D03*
X98500000Y-97124000D03*
X98500000Y-101950000D03*
X93674000Y-101950000D03*
X95960000Y-97124000D03*
X93674000Y-104490000D03*
X95960000Y-106776000D03*
X95960000Y-109316000D03*
X93674000Y-106776000D03*
X91134000Y-106776000D03*
X98500000Y-106776000D03*
X91134000Y-104490000D03*
X91134000Y-109316000D03*
X98500000Y-104490000D03*
X98500000Y-109316000D03*
X93674000Y-109316000D03*
X95960000Y-104490000D03*
X93674000Y-111856000D03*
X95960000Y-114142000D03*
X95960000Y-116682000D03*
X93674000Y-114142000D03*
X91134000Y-114142000D03*
X98500000Y-114142000D03*
X91134000Y-111856000D03*
X91134000Y-116682000D03*
X98500000Y-111856000D03*
X98500000Y-116682000D03*
X93674000Y-116682000D03*
X95960000Y-111856000D03*
X93674000Y-119476000D03*
X95960000Y-121762000D03*
X95960000Y-124302000D03*
X93674000Y-121762000D03*
X91134000Y-121762000D03*
X98500000Y-121762000D03*
X91134000Y-119476000D03*
X91134000Y-124302000D03*
X98500000Y-119476000D03*
X98500000Y-124302000D03*
X93674000Y-124302000D03*
X95960000Y-119476000D03*
X98500000Y-131668000D03*
X95960000Y-131668000D03*
X98500000Y-129128000D03*
X95960000Y-129128000D03*
X98500000Y-126842000D03*
X95960000Y-126842000D03*
X93674000Y-126842000D03*
X91134000Y-126842000D03*
X90372000Y-134208000D03*
X91134000Y-136240000D03*
X93674000Y-138526000D03*
X91134000Y-138526000D03*
X93674000Y-131668000D03*
X91134000Y-131668000D03*
X93674000Y-129128000D03*
X91134000Y-129128000D03*
X88340000Y-126842000D03*
X85800000Y-126842000D03*
X88340000Y-129128000D03*
X85800000Y-129128000D03*
X88340000Y-138526000D03*
X85800000Y-138526000D03*
X88340000Y-136240000D03*
X85800000Y-136240000D03*
X82498000Y-138526000D03*
X79958000Y-138526000D03*
X77164000Y-127096000D03*
X77164000Y-128874000D03*
X82498000Y-129128000D03*
X79958000Y-129128000D03*
X82498000Y-131668000D03*
X79958000Y-131668000D03*
X82498000Y-133446000D03*
X79958000Y-133446000D03*
X82498000Y-136240000D03*
X79958000Y-136240000D03*
X77164000Y-138526000D03*
X74624000Y-138526000D03*
X77164000Y-136240000D03*
X74624000Y-136240000D03*
X74116000Y-126842000D03*
X71576000Y-126842000D03*
X74116000Y-128874000D03*
X71576000Y-128874000D03*
X71576000Y-138526000D03*
X69036000Y-138526000D03*
X71576000Y-136240000D03*
X69036000Y-136240000D03*
X71576000Y-133954000D03*
X69036000Y-133954000D03*
X71576000Y-131668000D03*
X69036000Y-131668000D03*
X69036000Y-127096000D03*
X66496000Y-127096000D03*
X69036000Y-128874000D03*
X66496000Y-128874000D03*
X61924000Y-138526000D03*
X59384000Y-138526000D03*
X61924000Y-136240000D03*
X59384000Y-136240000D03*
X66496000Y-138526000D03*
X63956000Y-138526000D03*
X66496000Y-136240000D03*
X63956000Y-136240000D03*
X66496000Y-133954000D03*
X63956000Y-133954000D03*
X66496000Y-131668000D03*
X63956000Y-131668000D03*
X63956000Y-128874000D03*
X61416000Y-128874000D03*
X63956000Y-127096000D03*
X61416000Y-127096000D03*
X52780000Y-138526000D03*
X50240000Y-138526000D03*
X52780000Y-136240000D03*
X50240000Y-136240000D03*
X57606000Y-138526000D03*
X55066000Y-138526000D03*
X57606000Y-136240000D03*
X55066000Y-136240000D03*
X57606000Y-133954000D03*
X55066000Y-133954000D03*
X57606000Y-131668000D03*
X55066000Y-131668000D03*
X57606000Y-129636000D03*
X55066000Y-129636000D03*
X47954000Y-138526000D03*
X45414000Y-138526000D03*
X47954000Y-136240000D03*
X45414000Y-136240000D03*
X47954000Y-133954000D03*
X45414000Y-133954000D03*
X46938000Y-131668000D03*
X44398000Y-131668000D03*
X49478000Y-129636000D03*
X52018000Y-129636000D03*
X46938000Y-129636000D03*
X44398000Y-129636000D03*
X49478000Y-126842000D03*
X52018000Y-126842000D03*
X46938000Y-126842000D03*
X44398000Y-126842000D03*
X52018000Y-123794000D03*
X49478000Y-123794000D03*
X46938000Y-123794000D03*
X44398000Y-123794000D03*
X52018000Y-121508000D03*
X49478000Y-121508000D03*
X52018000Y-118968000D03*
X49478000Y-118968000D03*
X46938000Y-121508000D03*
X44398000Y-121508000D03*
X46938000Y-118968000D03*
X44398000Y-118968000D03*
X46938000Y-116428000D03*
X44398000Y-116428000D03*
X44652000Y-110840000D03*
X44906000Y-105760000D03*
X45922000Y-103474000D03*
X47954000Y-98140000D03*
X44144000Y-77312000D03*
X49224000Y-77820000D03*
X50748000Y-94838000D03*
X48208000Y-92806000D03*
X41350000Y-131668000D03*
X38810000Y-131668000D03*
X41350000Y-129382000D03*
X38810000Y-129382000D03*
X41350000Y-126842000D03*
X38810000Y-126842000D03*
X41350000Y-124048000D03*
X38810000Y-124048000D03*
X41308895Y-121480731D03*
X38768895Y-121480731D03*
X41350000Y-118968000D03*
X38810000Y-118968000D03*
X41350000Y-116428000D03*
X38810000Y-116428000D03*
X41350000Y-113380000D03*
X38810000Y-113380000D03*
X41350000Y-110840000D03*
X38810000Y-110840000D03*
X41350000Y-108300000D03*
X38810000Y-108300000D03*
X41350000Y-105760000D03*
X38810000Y-105760000D03*
X41350000Y-103220000D03*
X38810000Y-103220000D03*
X38810000Y-100680000D03*
X41350000Y-100680000D03*
X43636000Y-100680000D03*
X38810000Y-96362000D03*
X38810000Y-98648000D03*
X41350000Y-98648000D03*
X43636000Y-98648000D03*
X41350000Y-96362000D03*
X46176000Y-93822000D03*
X46176000Y-91536000D03*
X39318000Y-93822000D03*
X44144000Y-93822000D03*
X41858000Y-93822000D03*
X39318000Y-91536000D03*
X44144000Y-91536000D03*
X41858000Y-91536000D03*
X39318000Y-89250000D03*
X44144000Y-89250000D03*
X41858000Y-89250000D03*
X39318000Y-86964000D03*
X44144000Y-86964000D03*
X41858000Y-86964000D03*
X44144000Y-84678000D03*
X41858000Y-84678000D03*
X39318000Y-84678000D03*
X41604000Y-74264000D03*
X43636000Y-74264000D03*
X47192000Y-74264000D03*
X45414000Y-74264000D03*
X41604000Y-72740000D03*
X43636000Y-72740000D03*
X45414000Y-72740000D03*
X47192000Y-72740000D03*
X47192000Y-70200000D03*
X45414000Y-70200000D03*
X45414000Y-68422000D03*
X47192000Y-68422000D03*
X47192000Y-66898000D03*
X45414000Y-66898000D03*
X73550000Y-98510000D03*
D15*
X65640000Y-115190000D03*
D14*
X63680000Y-105400000D03*
D15*
X87200000Y-92630000D03*
X89852157Y-86042157D03*
X65720000Y-80200000D03*
D14*
X61660000Y-80180000D03*
D15*
X59067500Y-82540000D03*
X91782157Y-82382157D03*
D14*
X46490000Y-108280000D03*
D15*
X89270000Y-83600000D03*
X59160000Y-72230000D03*
D14*
X48410000Y-95090000D03*
D15*
X91742157Y-90702157D03*
X57100000Y-76880000D03*
X78760000Y-108930000D03*
X76320000Y-91070000D03*
X79220000Y-91530000D03*
X80310000Y-104740000D03*
X56640000Y-68490000D03*
X69800000Y-115240000D03*
D14*
X51710000Y-72910000D03*
D15*
X56080000Y-105900000D03*
D14*
X48750000Y-100410000D03*
D15*
X91462157Y-83262157D03*
X57070000Y-121150000D03*
X51040000Y-111890000D03*
X85280000Y-92640000D03*
D14*
X46550000Y-109250000D03*
D15*
X52160000Y-103290000D03*
D14*
X63680000Y-107430000D03*
X69940000Y-94260000D03*
X93990000Y-80440000D03*
X89300000Y-78840000D03*
D15*
X52150000Y-104150000D03*
D14*
X79940000Y-80720000D03*
D15*
X52210000Y-99170000D03*
D14*
X95310000Y-78020000D03*
D15*
X57570000Y-111950000D03*
X91312157Y-89772157D03*
D14*
X39550000Y-75260000D03*
D15*
X53680000Y-116470000D03*
X74790000Y-100440000D03*
X56240000Y-74000000D03*
X74760000Y-104810000D03*
D14*
X67740000Y-89610000D03*
X74690000Y-93850000D03*
D15*
X62640000Y-75730000D03*
X55170000Y-107280000D03*
X58997500Y-87060000D03*
X74540000Y-96110000D03*
D14*
X59550000Y-110200000D03*
D15*
X52017500Y-82120000D03*
X80230000Y-111730000D03*
D14*
X76420000Y-76130000D03*
D15*
X81650000Y-121310000D03*
X57197500Y-87070000D03*
D14*
X80560000Y-78150000D03*
X68860000Y-99010000D03*
D15*
X76250000Y-116480000D03*
X57870000Y-65000000D03*
X60900000Y-111650000D03*
X64980000Y-117830000D03*
X57990000Y-116690000D03*
D14*
X57390000Y-108490000D03*
D15*
X68267500Y-84790000D03*
D14*
X43130000Y-96270000D03*
X74180000Y-78480000D03*
D15*
X59650000Y-73990000D03*
D14*
X65040000Y-105410000D03*
D15*
X80200000Y-116450000D03*
X58470000Y-97620000D03*
D14*
X84750000Y-74150000D03*
X83140000Y-89790000D03*
X81760000Y-78180000D03*
X65030000Y-106500000D03*
X59880000Y-81430000D03*
X83420000Y-83760000D03*
D15*
X51700000Y-67740000D03*
X42160000Y-77360000D03*
D14*
X52970000Y-95750000D03*
D15*
X61390000Y-67770000D03*
X66060000Y-86750000D03*
D14*
X56700000Y-94270000D03*
X65060000Y-107440000D03*
X94490000Y-92600000D03*
X73240000Y-77730000D03*
D15*
X77490000Y-107970000D03*
X54860000Y-79390000D03*
X50610000Y-103870000D03*
D14*
X63680000Y-106510000D03*
D15*
X49655000Y-112455000D03*
D14*
X77630000Y-76110000D03*
D15*
X81570000Y-114410000D03*
X63197500Y-84200000D03*
X58090000Y-94730000D03*
D14*
X63340000Y-65320000D03*
D15*
X54837500Y-85200000D03*
X59880000Y-116850000D03*
D14*
%TO.N,+5V*%
X68870000Y-100070000D03*
X82970000Y-88660000D03*
X82370000Y-84230000D03*
X48390000Y-96300000D03*
%TO.N,+3.3VA*%
X48790000Y-101520000D03*
X56940000Y-110960000D03*
X58470000Y-110156185D03*
X58500000Y-108550000D03*
%TO.N,+3V3*%
X60770000Y-93050000D03*
X54130000Y-95620000D03*
X74850000Y-97720000D03*
X60680000Y-82730000D03*
X63300000Y-66600000D03*
X40330000Y-76030000D03*
X62900000Y-80130000D03*
X73560000Y-94160000D03*
X79290000Y-79920000D03*
X69750000Y-93050000D03*
X77050000Y-84650000D03*
X71370000Y-82630000D03*
X56710000Y-93050000D03*
X83880000Y-75150000D03*
X85610000Y-75130000D03*
D15*
%TO.N,SPI2_NSS*%
X79180000Y-92910000D03*
X76260000Y-92340000D03*
%TO.N,SPI1_NSS*%
X59040000Y-94760000D03*
X58510000Y-96580000D03*
%TO.N,/MCU/TIM4_CH3*%
X64060000Y-84870000D03*
X53350000Y-89650000D03*
%TO.N,/MCU/TIM4_CH1*%
X67270000Y-85150000D03*
X53440000Y-92050000D03*
%TO.N,/MCU/TIM4_CH2*%
X53370000Y-90750000D03*
X65170000Y-86110000D03*
%TO.N,/MCU/SWO*%
X55950000Y-79380000D03*
X55970000Y-76880000D03*
%TO.N,DAC_NCLR*%
X79350000Y-105330000D03*
X75520000Y-96910000D03*
%TO.N,DAC_NLDAC*%
X75610000Y-95290000D03*
X79370000Y-104250000D03*
%TD*%
%TA.AperFunction,Conductor*%
%TO.N,GND*%
G36*
X94289297Y-64102297D02*
G01*
X94294731Y-64103225D01*
X94294733Y-64103225D01*
X94306965Y-64105313D01*
X94319064Y-64102561D01*
X94329621Y-64102273D01*
X94342293Y-64100948D01*
X94662472Y-64105834D01*
X94731314Y-64106884D01*
X94742006Y-64107502D01*
X94950554Y-64128493D01*
X95159097Y-64149483D01*
X95169701Y-64151009D01*
X95581681Y-64228266D01*
X95592115Y-64230685D01*
X95981882Y-64338738D01*
X95996073Y-64342672D01*
X96006267Y-64345971D01*
X96399239Y-64491869D01*
X96409115Y-64496022D01*
X96788261Y-64674772D01*
X96797750Y-64679749D01*
X97160348Y-64890070D01*
X97169378Y-64895835D01*
X97512796Y-65136199D01*
X97521305Y-65142710D01*
X97843060Y-65411380D01*
X97850985Y-65418591D01*
X98148766Y-65713639D01*
X98156029Y-65721475D01*
X98264444Y-65848905D01*
X98427656Y-66040743D01*
X98434246Y-66049191D01*
X98677770Y-66390386D01*
X98683618Y-66399364D01*
X98897267Y-66760000D01*
X98902331Y-66769441D01*
X99084573Y-67146931D01*
X99088817Y-67156769D01*
X99089968Y-67159784D01*
X99223233Y-67508834D01*
X99238333Y-67548385D01*
X99241722Y-67558538D01*
X99355501Y-67954738D01*
X99357425Y-67961436D01*
X99359941Y-67971848D01*
X99429463Y-68324597D01*
X99440997Y-68383117D01*
X99442620Y-68393707D01*
X99488443Y-68810379D01*
X99489160Y-68821070D01*
X99498680Y-69209989D01*
X99497462Y-69222773D01*
X99497273Y-69233270D01*
X99494634Y-69245389D01*
X99496834Y-69257597D01*
X99497499Y-69261288D01*
X99499496Y-69283644D01*
X99497529Y-89245044D01*
X99493080Y-134400443D01*
X99490659Y-134425011D01*
X99490589Y-134425363D01*
X99490589Y-134425367D01*
X99488168Y-134437538D01*
X99490589Y-134449708D01*
X99490589Y-134459990D01*
X99491596Y-134472993D01*
X99487909Y-134561336D01*
X99476334Y-134838664D01*
X99474644Y-134879145D01*
X99473770Y-134889611D01*
X99469666Y-134922232D01*
X99419254Y-135322960D01*
X99417508Y-135333323D01*
X99327076Y-135760596D01*
X99324473Y-135770777D01*
X99198752Y-136189022D01*
X99195310Y-136198951D01*
X99035165Y-136605286D01*
X99030910Y-136614888D01*
X98990758Y-136696162D01*
X98837470Y-137006446D01*
X98832429Y-137015662D01*
X98607017Y-137389764D01*
X98601235Y-137398512D01*
X98383279Y-137700152D01*
X98345437Y-137752523D01*
X98338932Y-137760777D01*
X98054532Y-138092229D01*
X98047362Y-138099912D01*
X97736335Y-138406508D01*
X97728550Y-138413567D01*
X97393050Y-138693183D01*
X97384703Y-138699569D01*
X97027075Y-138950250D01*
X97018226Y-138955918D01*
X96640946Y-139175929D01*
X96631654Y-139180840D01*
X96237337Y-139368654D01*
X96227691Y-139372763D01*
X95971895Y-139469361D01*
X95819099Y-139527062D01*
X95809121Y-139530361D01*
X95389118Y-139650068D01*
X95378900Y-139652525D01*
X94950358Y-139736820D01*
X94939971Y-139738416D01*
X94505913Y-139786705D01*
X94495446Y-139787429D01*
X94089055Y-139798554D01*
X94076093Y-139797362D01*
X94065801Y-139797214D01*
X94053665Y-139794618D01*
X94038622Y-139797387D01*
X94015700Y-139799467D01*
X42296410Y-139749544D01*
X42286866Y-139748364D01*
X42286859Y-139748509D01*
X42274468Y-139747905D01*
X42262427Y-139744895D01*
X42250151Y-139746721D01*
X42239738Y-139746214D01*
X42226862Y-139746580D01*
X41845674Y-139711867D01*
X41835161Y-139710462D01*
X41428545Y-139638533D01*
X41418179Y-139636245D01*
X41019059Y-139530344D01*
X41008951Y-139527201D01*
X40620147Y-139388076D01*
X40610312Y-139384081D01*
X40234623Y-139212734D01*
X40225159Y-139207926D01*
X39865222Y-139005560D01*
X39856214Y-138999985D01*
X39514574Y-138768031D01*
X39506052Y-138761705D01*
X39185162Y-138501828D01*
X39177201Y-138494805D01*
X38879330Y-138208845D01*
X38871989Y-138201178D01*
X38776140Y-138092229D01*
X38599238Y-137891151D01*
X38592569Y-137882893D01*
X38346889Y-137551019D01*
X38340937Y-137542228D01*
X38124050Y-137190828D01*
X38118880Y-137181602D01*
X37932340Y-136813192D01*
X37927953Y-136803539D01*
X37773090Y-136420744D01*
X37769527Y-136410745D01*
X37715943Y-136237618D01*
X37647433Y-136016266D01*
X37644728Y-136006014D01*
X37617729Y-135882895D01*
X37556279Y-135602684D01*
X37554444Y-135592229D01*
X37504181Y-135212522D01*
X37504029Y-135200294D01*
X37503062Y-135189519D01*
X37504386Y-135177178D01*
X37500976Y-135165574D01*
X37500533Y-135155588D01*
X37500562Y-135117792D01*
X37500768Y-134843233D01*
X40494906Y-134843233D01*
X40521102Y-135117792D01*
X40522187Y-135122226D01*
X40522188Y-135122232D01*
X40547697Y-135226477D01*
X40586657Y-135385694D01*
X40690199Y-135641326D01*
X40692500Y-135645256D01*
X40692503Y-135645262D01*
X40827255Y-135875403D01*
X40827260Y-135875410D01*
X40829558Y-135879335D01*
X40832405Y-135882895D01*
X40950028Y-136029974D01*
X41001816Y-136094732D01*
X41005157Y-136097853D01*
X41159728Y-136242245D01*
X41203364Y-136283008D01*
X41429979Y-136440216D01*
X41434055Y-136442244D01*
X41434057Y-136442245D01*
X41672827Y-136561032D01*
X41672830Y-136561033D01*
X41676914Y-136563065D01*
X41938998Y-136648980D01*
X41943489Y-136649760D01*
X41943490Y-136649760D01*
X42206957Y-136695506D01*
X42206965Y-136695507D01*
X42210738Y-136696162D01*
X42214575Y-136696353D01*
X42296305Y-136700422D01*
X42296313Y-136700422D01*
X42297876Y-136700500D01*
X42470070Y-136700500D01*
X42472338Y-136700335D01*
X42472350Y-136700335D01*
X42606603Y-136690594D01*
X42675083Y-136685625D01*
X42679538Y-136684641D01*
X42679541Y-136684641D01*
X42939947Y-136627148D01*
X42939950Y-136627147D01*
X42944403Y-136626164D01*
X43202319Y-136528449D01*
X43281189Y-136484641D01*
X43439435Y-136396743D01*
X43439436Y-136396742D01*
X43443428Y-136394525D01*
X43642962Y-136242245D01*
X43659046Y-136229970D01*
X43659047Y-136229969D01*
X43662678Y-136227198D01*
X43665873Y-136223930D01*
X43852283Y-136033242D01*
X43852287Y-136033237D01*
X43855477Y-136029974D01*
X43858166Y-136026280D01*
X44015100Y-135810676D01*
X44015102Y-135810673D01*
X44017787Y-135806984D01*
X44146206Y-135562899D01*
X44238045Y-135302832D01*
X44274516Y-135117792D01*
X44290499Y-135036704D01*
X44290500Y-135036698D01*
X44291380Y-135032232D01*
X44291607Y-135027676D01*
X44304867Y-134761336D01*
X44304867Y-134761330D01*
X44305094Y-134756767D01*
X44294262Y-134643233D01*
X92194906Y-134643233D01*
X92221102Y-134917792D01*
X92222187Y-134922226D01*
X92222188Y-134922232D01*
X92282068Y-135166942D01*
X92286657Y-135185694D01*
X92390199Y-135441326D01*
X92392500Y-135445256D01*
X92392503Y-135445262D01*
X92527255Y-135675403D01*
X92527260Y-135675410D01*
X92529558Y-135679335D01*
X92532405Y-135682895D01*
X92692350Y-135882895D01*
X92701816Y-135894732D01*
X92705157Y-135897853D01*
X92846592Y-136029974D01*
X92903364Y-136083008D01*
X93129979Y-136240216D01*
X93134055Y-136242244D01*
X93134057Y-136242245D01*
X93372827Y-136361032D01*
X93372830Y-136361033D01*
X93376914Y-136363065D01*
X93638998Y-136448980D01*
X93643489Y-136449760D01*
X93643490Y-136449760D01*
X93906957Y-136495506D01*
X93906965Y-136495507D01*
X93910738Y-136496162D01*
X93914575Y-136496353D01*
X93996305Y-136500422D01*
X93996313Y-136500422D01*
X93997876Y-136500500D01*
X94170070Y-136500500D01*
X94172338Y-136500335D01*
X94172350Y-136500335D01*
X94306603Y-136490594D01*
X94375083Y-136485625D01*
X94379538Y-136484641D01*
X94379541Y-136484641D01*
X94639947Y-136427148D01*
X94639950Y-136427147D01*
X94644403Y-136426164D01*
X94902319Y-136328449D01*
X94979448Y-136285608D01*
X95139435Y-136196743D01*
X95139436Y-136196742D01*
X95143428Y-136194525D01*
X95293633Y-136079892D01*
X95359046Y-136029970D01*
X95359047Y-136029969D01*
X95362678Y-136027198D01*
X95373352Y-136016279D01*
X95552283Y-135833242D01*
X95552287Y-135833237D01*
X95555477Y-135829974D01*
X95558166Y-135826280D01*
X95715100Y-135610676D01*
X95715102Y-135610673D01*
X95717787Y-135606984D01*
X95846206Y-135362899D01*
X95938045Y-135102832D01*
X95974516Y-134917792D01*
X95990499Y-134836704D01*
X95990500Y-134836698D01*
X95991380Y-134832232D01*
X95995364Y-134752211D01*
X96004867Y-134561336D01*
X96004867Y-134561330D01*
X96005094Y-134556767D01*
X95978898Y-134282208D01*
X95961248Y-134210075D01*
X95914429Y-134018744D01*
X95913343Y-134014306D01*
X95809801Y-133758674D01*
X95807500Y-133754744D01*
X95807497Y-133754738D01*
X95672745Y-133524597D01*
X95672740Y-133524590D01*
X95670442Y-133520665D01*
X95576492Y-133403187D01*
X95501036Y-133308834D01*
X95501035Y-133308833D01*
X95498184Y-133305268D01*
X95394144Y-133208079D01*
X95299972Y-133120108D01*
X95299969Y-133120106D01*
X95296636Y-133116992D01*
X95070021Y-132959784D01*
X94978746Y-132914375D01*
X94827173Y-132838968D01*
X94827170Y-132838967D01*
X94823086Y-132836935D01*
X94561002Y-132751020D01*
X94556510Y-132750240D01*
X94293043Y-132704494D01*
X94293035Y-132704493D01*
X94289262Y-132703838D01*
X94279029Y-132703329D01*
X94203695Y-132699578D01*
X94203687Y-132699578D01*
X94202124Y-132699500D01*
X94029930Y-132699500D01*
X94027662Y-132699665D01*
X94027650Y-132699665D01*
X93893397Y-132709406D01*
X93824917Y-132714375D01*
X93820462Y-132715359D01*
X93820459Y-132715359D01*
X93560053Y-132772852D01*
X93560050Y-132772853D01*
X93555597Y-132773836D01*
X93297681Y-132871551D01*
X93293694Y-132873765D01*
X93293693Y-132873766D01*
X93113533Y-132973836D01*
X93056572Y-133005475D01*
X93052940Y-133008247D01*
X92854380Y-133159784D01*
X92837322Y-133172802D01*
X92834129Y-133176068D01*
X92834127Y-133176070D01*
X92647717Y-133366758D01*
X92647713Y-133366763D01*
X92644523Y-133370026D01*
X92641836Y-133373718D01*
X92641834Y-133373720D01*
X92501326Y-133566758D01*
X92482213Y-133593016D01*
X92353794Y-133837101D01*
X92261955Y-134097168D01*
X92261075Y-134101634D01*
X92224587Y-134286760D01*
X92208620Y-134367768D01*
X92208393Y-134372322D01*
X92208393Y-134372324D01*
X92198886Y-134563296D01*
X92194906Y-134643233D01*
X44294262Y-134643233D01*
X44278898Y-134482208D01*
X44276644Y-134472993D01*
X44214429Y-134218744D01*
X44213343Y-134214306D01*
X44109801Y-133958674D01*
X44107500Y-133954744D01*
X44107497Y-133954738D01*
X43999127Y-133769654D01*
X49595618Y-133769654D01*
X49602673Y-133779627D01*
X49633679Y-133805551D01*
X49640598Y-133810579D01*
X49865272Y-133951515D01*
X49872807Y-133955556D01*
X50114520Y-134064694D01*
X50122551Y-134067680D01*
X50376832Y-134143002D01*
X50385184Y-134144869D01*
X50647340Y-134184984D01*
X50655874Y-134185700D01*
X50921045Y-134189867D01*
X50929596Y-134189418D01*
X51192883Y-134157557D01*
X51201284Y-134155955D01*
X51457824Y-134088653D01*
X51465926Y-134085926D01*
X51710949Y-133984434D01*
X51718617Y-133980628D01*
X51947598Y-133846822D01*
X51954679Y-133842009D01*
X52034655Y-133779301D01*
X52041545Y-133769654D01*
X59755618Y-133769654D01*
X59762673Y-133779627D01*
X59793679Y-133805551D01*
X59800598Y-133810579D01*
X60025272Y-133951515D01*
X60032807Y-133955556D01*
X60274520Y-134064694D01*
X60282551Y-134067680D01*
X60536832Y-134143002D01*
X60545184Y-134144869D01*
X60807340Y-134184984D01*
X60815874Y-134185700D01*
X61081045Y-134189867D01*
X61089596Y-134189418D01*
X61352883Y-134157557D01*
X61361284Y-134155955D01*
X61617824Y-134088653D01*
X61625926Y-134085926D01*
X61870949Y-133984434D01*
X61878617Y-133980628D01*
X62107598Y-133846822D01*
X62114679Y-133842009D01*
X62194655Y-133779301D01*
X62203125Y-133767442D01*
X62196608Y-133755818D01*
X62110444Y-133669654D01*
X74495618Y-133669654D01*
X74502673Y-133679627D01*
X74533679Y-133705551D01*
X74540598Y-133710579D01*
X74765272Y-133851515D01*
X74772807Y-133855556D01*
X75014520Y-133964694D01*
X75022551Y-133967680D01*
X75276832Y-134043002D01*
X75285184Y-134044869D01*
X75547340Y-134084984D01*
X75555874Y-134085700D01*
X75821045Y-134089867D01*
X75829596Y-134089418D01*
X76092883Y-134057557D01*
X76101284Y-134055955D01*
X76357824Y-133988653D01*
X76365926Y-133985926D01*
X76610949Y-133884434D01*
X76618617Y-133880628D01*
X76847598Y-133746822D01*
X76854679Y-133742009D01*
X76934655Y-133679301D01*
X76941545Y-133669654D01*
X84655618Y-133669654D01*
X84662673Y-133679627D01*
X84693679Y-133705551D01*
X84700598Y-133710579D01*
X84925272Y-133851515D01*
X84932807Y-133855556D01*
X85174520Y-133964694D01*
X85182551Y-133967680D01*
X85436832Y-134043002D01*
X85445184Y-134044869D01*
X85707340Y-134084984D01*
X85715874Y-134085700D01*
X85981045Y-134089867D01*
X85989596Y-134089418D01*
X86252883Y-134057557D01*
X86261284Y-134055955D01*
X86517824Y-133988653D01*
X86525926Y-133985926D01*
X86770949Y-133884434D01*
X86778617Y-133880628D01*
X87007598Y-133746822D01*
X87014679Y-133742009D01*
X87094655Y-133679301D01*
X87103125Y-133667442D01*
X87096608Y-133655818D01*
X85892812Y-132452022D01*
X85878868Y-132444408D01*
X85877035Y-132444539D01*
X85870420Y-132448790D01*
X84662910Y-133656300D01*
X84655618Y-133669654D01*
X76941545Y-133669654D01*
X76943125Y-133667442D01*
X76936608Y-133655818D01*
X75732812Y-132452022D01*
X75718868Y-132444408D01*
X75717035Y-132444539D01*
X75710420Y-132448790D01*
X74502910Y-133656300D01*
X74495618Y-133669654D01*
X62110444Y-133669654D01*
X60992812Y-132552022D01*
X60978868Y-132544408D01*
X60977035Y-132544539D01*
X60970420Y-132548790D01*
X59762910Y-133756300D01*
X59755618Y-133769654D01*
X52041545Y-133769654D01*
X52043125Y-133767442D01*
X52036608Y-133755818D01*
X50832812Y-132552022D01*
X50818868Y-132544408D01*
X50817035Y-132544539D01*
X50810420Y-132548790D01*
X49602910Y-133756300D01*
X49595618Y-133769654D01*
X43999127Y-133769654D01*
X43972745Y-133724597D01*
X43972740Y-133724590D01*
X43970442Y-133720665D01*
X43918582Y-133655818D01*
X43801036Y-133508834D01*
X43801035Y-133508833D01*
X43798184Y-133505268D01*
X43656380Y-133372802D01*
X43599972Y-133320108D01*
X43599969Y-133320106D01*
X43596636Y-133316992D01*
X43370021Y-133159784D01*
X43359772Y-133154685D01*
X43127173Y-133038968D01*
X43127170Y-133038967D01*
X43123086Y-133036935D01*
X42861002Y-132951020D01*
X42856510Y-132950240D01*
X42593043Y-132904494D01*
X42593035Y-132904493D01*
X42589262Y-132903838D01*
X42579029Y-132903329D01*
X42503695Y-132899578D01*
X42503687Y-132899578D01*
X42502124Y-132899500D01*
X42329930Y-132899500D01*
X42327662Y-132899665D01*
X42327650Y-132899665D01*
X42193397Y-132909406D01*
X42124917Y-132914375D01*
X42120462Y-132915359D01*
X42120459Y-132915359D01*
X41860053Y-132972852D01*
X41860050Y-132972853D01*
X41855597Y-132973836D01*
X41597681Y-133071551D01*
X41593694Y-133073765D01*
X41593693Y-133073766D01*
X41409511Y-133176070D01*
X41356572Y-133205475D01*
X41352940Y-133208247D01*
X41145242Y-133366758D01*
X41137322Y-133372802D01*
X41134129Y-133376068D01*
X41134127Y-133376070D01*
X40947717Y-133566758D01*
X40947713Y-133566763D01*
X40944523Y-133570026D01*
X40941836Y-133573718D01*
X40941834Y-133573720D01*
X40791959Y-133779627D01*
X40782213Y-133793016D01*
X40653794Y-134037101D01*
X40561955Y-134297168D01*
X40561075Y-134301634D01*
X40509888Y-134561336D01*
X40508620Y-134567768D01*
X40508393Y-134572322D01*
X40508393Y-134572324D01*
X40495454Y-134832232D01*
X40494906Y-134843233D01*
X37500768Y-134843233D01*
X37502783Y-132163204D01*
X48807665Y-132163204D01*
X48822932Y-132427969D01*
X48824005Y-132436470D01*
X48875065Y-132696722D01*
X48877276Y-132704974D01*
X48963184Y-132955894D01*
X48966499Y-132963779D01*
X49085664Y-133200713D01*
X49090020Y-133208079D01*
X49219347Y-133396250D01*
X49229601Y-133404594D01*
X49243342Y-133397448D01*
X50447978Y-132192812D01*
X50454356Y-132181132D01*
X51184408Y-132181132D01*
X51184539Y-132182965D01*
X51188790Y-132189580D01*
X52395730Y-133396520D01*
X52407939Y-133403187D01*
X52419439Y-133394497D01*
X52516831Y-133261913D01*
X52521418Y-133254685D01*
X52647962Y-133021621D01*
X52651530Y-133013827D01*
X52745271Y-132765750D01*
X52747748Y-132757544D01*
X52806954Y-132499038D01*
X52808294Y-132490577D01*
X52832031Y-132224616D01*
X52832277Y-132219677D01*
X52832666Y-132182485D01*
X52832523Y-132177519D01*
X52831547Y-132163204D01*
X58967665Y-132163204D01*
X58982932Y-132427969D01*
X58984005Y-132436470D01*
X59035065Y-132696722D01*
X59037276Y-132704974D01*
X59123184Y-132955894D01*
X59126499Y-132963779D01*
X59245664Y-133200713D01*
X59250020Y-133208079D01*
X59379347Y-133396250D01*
X59389601Y-133404594D01*
X59403342Y-133397448D01*
X60607978Y-132192812D01*
X60614356Y-132181132D01*
X61344408Y-132181132D01*
X61344539Y-132182965D01*
X61348790Y-132189580D01*
X62555730Y-133396520D01*
X62567939Y-133403187D01*
X62579439Y-133394497D01*
X62676831Y-133261913D01*
X62681418Y-133254685D01*
X62807962Y-133021621D01*
X62811530Y-133013827D01*
X62905271Y-132765750D01*
X62907748Y-132757544D01*
X62966954Y-132499038D01*
X62968294Y-132490577D01*
X62992031Y-132224616D01*
X62992277Y-132219677D01*
X62992666Y-132182485D01*
X62992523Y-132177519D01*
X62984730Y-132063204D01*
X73707665Y-132063204D01*
X73722932Y-132327969D01*
X73724005Y-132336470D01*
X73775065Y-132596722D01*
X73777276Y-132604974D01*
X73863184Y-132855894D01*
X73866499Y-132863779D01*
X73985664Y-133100713D01*
X73990020Y-133108079D01*
X74119347Y-133296250D01*
X74129601Y-133304594D01*
X74143342Y-133297448D01*
X75347978Y-132092812D01*
X75354356Y-132081132D01*
X76084408Y-132081132D01*
X76084539Y-132082965D01*
X76088790Y-132089580D01*
X77295730Y-133296520D01*
X77307939Y-133303187D01*
X77319439Y-133294497D01*
X77416831Y-133161913D01*
X77421418Y-133154685D01*
X77547962Y-132921621D01*
X77551530Y-132913827D01*
X77645271Y-132665750D01*
X77647748Y-132657544D01*
X77706954Y-132399038D01*
X77708294Y-132390577D01*
X77732031Y-132124616D01*
X77732277Y-132119677D01*
X77732666Y-132082485D01*
X77732523Y-132077519D01*
X77731547Y-132063204D01*
X83867665Y-132063204D01*
X83882932Y-132327969D01*
X83884005Y-132336470D01*
X83935065Y-132596722D01*
X83937276Y-132604974D01*
X84023184Y-132855894D01*
X84026499Y-132863779D01*
X84145664Y-133100713D01*
X84150020Y-133108079D01*
X84279347Y-133296250D01*
X84289601Y-133304594D01*
X84303342Y-133297448D01*
X85507978Y-132092812D01*
X85514356Y-132081132D01*
X86244408Y-132081132D01*
X86244539Y-132082965D01*
X86248790Y-132089580D01*
X87455730Y-133296520D01*
X87467939Y-133303187D01*
X87479439Y-133294497D01*
X87576831Y-133161913D01*
X87581418Y-133154685D01*
X87707962Y-132921621D01*
X87711530Y-132913827D01*
X87805271Y-132665750D01*
X87807748Y-132657544D01*
X87866954Y-132399038D01*
X87868294Y-132390577D01*
X87892031Y-132124616D01*
X87892277Y-132119677D01*
X87892666Y-132082485D01*
X87892523Y-132077519D01*
X87874362Y-131811123D01*
X87873201Y-131802649D01*
X87819419Y-131542944D01*
X87817120Y-131534709D01*
X87728588Y-131284705D01*
X87725191Y-131276854D01*
X87603550Y-131041178D01*
X87599122Y-131033866D01*
X87480031Y-130864417D01*
X87469509Y-130856037D01*
X87456121Y-130863089D01*
X86252022Y-132067188D01*
X86244408Y-132081132D01*
X85514356Y-132081132D01*
X85515592Y-132078868D01*
X85515461Y-132077035D01*
X85511210Y-132070420D01*
X84303814Y-130863024D01*
X84291804Y-130856466D01*
X84280064Y-130865434D01*
X84171935Y-131015911D01*
X84167418Y-131023196D01*
X84043325Y-131257567D01*
X84039839Y-131265395D01*
X83948700Y-131514446D01*
X83946311Y-131522670D01*
X83889812Y-131781795D01*
X83888563Y-131790250D01*
X83867754Y-132054653D01*
X83867665Y-132063204D01*
X77731547Y-132063204D01*
X77714362Y-131811123D01*
X77713201Y-131802649D01*
X77659419Y-131542944D01*
X77657120Y-131534709D01*
X77568588Y-131284705D01*
X77565191Y-131276854D01*
X77443550Y-131041178D01*
X77439122Y-131033866D01*
X77320031Y-130864417D01*
X77309509Y-130856037D01*
X77296121Y-130863089D01*
X76092022Y-132067188D01*
X76084408Y-132081132D01*
X75354356Y-132081132D01*
X75355592Y-132078868D01*
X75355461Y-132077035D01*
X75351210Y-132070420D01*
X74143814Y-130863024D01*
X74131804Y-130856466D01*
X74120064Y-130865434D01*
X74011935Y-131015911D01*
X74007418Y-131023196D01*
X73883325Y-131257567D01*
X73879839Y-131265395D01*
X73788700Y-131514446D01*
X73786311Y-131522670D01*
X73729812Y-131781795D01*
X73728563Y-131790250D01*
X73707754Y-132054653D01*
X73707665Y-132063204D01*
X62984730Y-132063204D01*
X62974362Y-131911123D01*
X62973201Y-131902649D01*
X62919419Y-131642944D01*
X62917120Y-131634709D01*
X62828588Y-131384705D01*
X62825191Y-131376854D01*
X62703550Y-131141178D01*
X62699122Y-131133866D01*
X62580031Y-130964417D01*
X62569509Y-130956037D01*
X62556121Y-130963089D01*
X61352022Y-132167188D01*
X61344408Y-132181132D01*
X60614356Y-132181132D01*
X60615592Y-132178868D01*
X60615461Y-132177035D01*
X60611210Y-132170420D01*
X59403814Y-130963024D01*
X59391804Y-130956466D01*
X59380064Y-130965434D01*
X59271935Y-131115911D01*
X59267418Y-131123196D01*
X59143325Y-131357567D01*
X59139839Y-131365395D01*
X59048700Y-131614446D01*
X59046311Y-131622670D01*
X58989812Y-131881795D01*
X58988563Y-131890250D01*
X58967754Y-132154653D01*
X58967665Y-132163204D01*
X52831547Y-132163204D01*
X52814362Y-131911123D01*
X52813201Y-131902649D01*
X52759419Y-131642944D01*
X52757120Y-131634709D01*
X52668588Y-131384705D01*
X52665191Y-131376854D01*
X52543550Y-131141178D01*
X52539122Y-131133866D01*
X52420031Y-130964417D01*
X52409509Y-130956037D01*
X52396121Y-130963089D01*
X51192022Y-132167188D01*
X51184408Y-132181132D01*
X50454356Y-132181132D01*
X50455592Y-132178868D01*
X50455461Y-132177035D01*
X50451210Y-132170420D01*
X49243814Y-130963024D01*
X49231804Y-130956466D01*
X49220064Y-130965434D01*
X49111935Y-131115911D01*
X49107418Y-131123196D01*
X48983325Y-131357567D01*
X48979839Y-131365395D01*
X48888700Y-131614446D01*
X48886311Y-131622670D01*
X48829812Y-131881795D01*
X48828563Y-131890250D01*
X48807754Y-132154653D01*
X48807665Y-132163204D01*
X37502783Y-132163204D01*
X37503964Y-130592500D01*
X49596584Y-130592500D01*
X49602980Y-130603770D01*
X50807188Y-131807978D01*
X50821132Y-131815592D01*
X50822965Y-131815461D01*
X50829580Y-131811210D01*
X52036604Y-130604186D01*
X52042985Y-130592500D01*
X59756584Y-130592500D01*
X59762980Y-130603770D01*
X60967188Y-131807978D01*
X60981132Y-131815592D01*
X60982965Y-131815461D01*
X60989580Y-131811210D01*
X62196604Y-130604186D01*
X62203795Y-130591017D01*
X62196473Y-130580780D01*
X62149233Y-130542115D01*
X62142261Y-130537160D01*
X62069382Y-130492500D01*
X74496584Y-130492500D01*
X74502980Y-130503770D01*
X75707188Y-131707978D01*
X75721132Y-131715592D01*
X75722965Y-131715461D01*
X75729580Y-131711210D01*
X76936604Y-130504186D01*
X76942985Y-130492500D01*
X84656584Y-130492500D01*
X84662980Y-130503770D01*
X85867188Y-131707978D01*
X85881132Y-131715592D01*
X85882965Y-131715461D01*
X85889580Y-131711210D01*
X87096604Y-130504186D01*
X87103795Y-130491017D01*
X87096473Y-130480780D01*
X87049233Y-130442115D01*
X87042261Y-130437160D01*
X86816122Y-130298582D01*
X86808552Y-130294624D01*
X86565704Y-130188022D01*
X86557644Y-130185120D01*
X86302592Y-130112467D01*
X86294214Y-130110685D01*
X86031656Y-130073318D01*
X86023111Y-130072691D01*
X85757908Y-130071302D01*
X85749374Y-130071839D01*
X85486433Y-130106456D01*
X85478035Y-130108149D01*
X85222238Y-130178127D01*
X85214143Y-130180946D01*
X84970199Y-130284997D01*
X84962577Y-130288881D01*
X84735013Y-130425075D01*
X84727981Y-130429962D01*
X84665053Y-130480377D01*
X84656584Y-130492500D01*
X76942985Y-130492500D01*
X76943795Y-130491017D01*
X76936473Y-130480780D01*
X76889233Y-130442115D01*
X76882261Y-130437160D01*
X76656122Y-130298582D01*
X76648552Y-130294624D01*
X76405704Y-130188022D01*
X76397644Y-130185120D01*
X76142592Y-130112467D01*
X76134214Y-130110685D01*
X75871656Y-130073318D01*
X75863111Y-130072691D01*
X75597908Y-130071302D01*
X75589374Y-130071839D01*
X75326433Y-130106456D01*
X75318035Y-130108149D01*
X75062238Y-130178127D01*
X75054143Y-130180946D01*
X74810199Y-130284997D01*
X74802577Y-130288881D01*
X74575013Y-130425075D01*
X74567981Y-130429962D01*
X74505053Y-130480377D01*
X74496584Y-130492500D01*
X62069382Y-130492500D01*
X61916122Y-130398582D01*
X61908552Y-130394624D01*
X61665704Y-130288022D01*
X61657644Y-130285120D01*
X61402592Y-130212467D01*
X61394214Y-130210685D01*
X61131656Y-130173318D01*
X61123111Y-130172691D01*
X60857908Y-130171302D01*
X60849374Y-130171839D01*
X60586433Y-130206456D01*
X60578035Y-130208149D01*
X60322238Y-130278127D01*
X60314143Y-130280946D01*
X60070199Y-130384997D01*
X60062577Y-130388881D01*
X59835013Y-130525075D01*
X59827981Y-130529962D01*
X59765053Y-130580377D01*
X59756584Y-130592500D01*
X52042985Y-130592500D01*
X52043795Y-130591017D01*
X52036473Y-130580780D01*
X51989233Y-130542115D01*
X51982261Y-130537160D01*
X51756122Y-130398582D01*
X51748552Y-130394624D01*
X51505704Y-130288022D01*
X51497644Y-130285120D01*
X51242592Y-130212467D01*
X51234214Y-130210685D01*
X50971656Y-130173318D01*
X50963111Y-130172691D01*
X50697908Y-130171302D01*
X50689374Y-130171839D01*
X50426433Y-130206456D01*
X50418035Y-130208149D01*
X50162238Y-130278127D01*
X50154143Y-130280946D01*
X49910199Y-130384997D01*
X49902577Y-130388881D01*
X49675013Y-130525075D01*
X49667981Y-130529962D01*
X49605053Y-130580377D01*
X49596584Y-130592500D01*
X37503964Y-130592500D01*
X37505689Y-128298900D01*
X57606358Y-128298900D01*
X57609661Y-128303560D01*
X57803399Y-128416771D01*
X57812686Y-128421221D01*
X58027006Y-128503062D01*
X58036908Y-128505939D01*
X58261699Y-128551673D01*
X58271951Y-128552896D01*
X58501202Y-128561302D01*
X58511488Y-128560835D01*
X58739043Y-128531684D01*
X58749129Y-128529541D01*
X58968864Y-128463617D01*
X58978459Y-128459856D01*
X59184466Y-128358935D01*
X59193332Y-128353650D01*
X59260945Y-128305421D01*
X59269346Y-128294721D01*
X59262358Y-128281568D01*
X59179690Y-128198900D01*
X82506358Y-128198900D01*
X82509661Y-128203560D01*
X82703399Y-128316771D01*
X82712686Y-128321221D01*
X82927006Y-128403062D01*
X82936908Y-128405939D01*
X83161699Y-128451673D01*
X83171951Y-128452896D01*
X83401202Y-128461302D01*
X83411488Y-128460835D01*
X83639043Y-128431684D01*
X83649129Y-128429541D01*
X83868864Y-128363617D01*
X83878459Y-128359856D01*
X84084466Y-128258935D01*
X84093332Y-128253650D01*
X84160945Y-128205421D01*
X84169346Y-128194721D01*
X84162358Y-128181568D01*
X83352812Y-127372022D01*
X83338868Y-127364408D01*
X83337035Y-127364539D01*
X83330420Y-127368790D01*
X82513635Y-128185575D01*
X82506358Y-128198900D01*
X59179690Y-128198900D01*
X58452812Y-127472022D01*
X58438868Y-127464408D01*
X58437035Y-127464539D01*
X58430420Y-127468790D01*
X57613635Y-128285575D01*
X57606358Y-128298900D01*
X37505689Y-128298900D01*
X37506613Y-127069754D01*
X54744967Y-127069754D01*
X54758796Y-127280749D01*
X54760217Y-127286345D01*
X54760218Y-127286350D01*
X54790108Y-127404039D01*
X54810845Y-127485690D01*
X54813262Y-127490933D01*
X54855443Y-127582430D01*
X54899369Y-127677714D01*
X55021405Y-127850391D01*
X55172865Y-127997937D01*
X55177661Y-128001142D01*
X55177664Y-128001144D01*
X55259069Y-128055537D01*
X55348677Y-128115411D01*
X55353985Y-128117692D01*
X55353986Y-128117692D01*
X55537650Y-128196600D01*
X55537653Y-128196601D01*
X55542953Y-128198878D01*
X55548582Y-128200152D01*
X55548583Y-128200152D01*
X55743550Y-128244269D01*
X55743553Y-128244269D01*
X55749186Y-128245544D01*
X55754957Y-128245771D01*
X55754959Y-128245771D01*
X55816989Y-128248208D01*
X55960470Y-128253846D01*
X55966179Y-128253018D01*
X55966183Y-128253018D01*
X56164015Y-128224333D01*
X56164019Y-128224332D01*
X56169730Y-128223504D01*
X56248987Y-128196600D01*
X56364483Y-128157395D01*
X56364488Y-128157393D01*
X56369955Y-128155537D01*
X56374998Y-128152713D01*
X56549395Y-128055046D01*
X56549399Y-128055043D01*
X56554442Y-128052219D01*
X56717012Y-127917012D01*
X56852219Y-127754442D01*
X56886363Y-127693475D01*
X56937097Y-127643815D01*
X57006629Y-127629468D01*
X57072880Y-127654989D01*
X57113037Y-127707638D01*
X57132204Y-127754840D01*
X57136852Y-127764041D01*
X57233736Y-127922143D01*
X57244192Y-127931604D01*
X57252970Y-127927820D01*
X58067978Y-127112812D01*
X58074356Y-127101132D01*
X58804408Y-127101132D01*
X58804539Y-127102965D01*
X58808790Y-127109580D01*
X59622130Y-127922920D01*
X59634141Y-127929479D01*
X59645880Y-127920511D01*
X59691012Y-127857702D01*
X59696327Y-127848857D01*
X59797966Y-127643206D01*
X59801765Y-127633611D01*
X59868453Y-127414120D01*
X59870632Y-127404039D01*
X59900813Y-127174789D01*
X59901332Y-127168114D01*
X59902915Y-127103364D01*
X59902721Y-127096647D01*
X59892289Y-126969754D01*
X79644967Y-126969754D01*
X79658796Y-127180749D01*
X79660217Y-127186345D01*
X79660218Y-127186350D01*
X79690108Y-127304039D01*
X79710845Y-127385690D01*
X79713262Y-127390933D01*
X79777127Y-127529468D01*
X79799369Y-127577714D01*
X79921405Y-127750391D01*
X79935417Y-127764041D01*
X80028192Y-127854418D01*
X80072865Y-127897937D01*
X80077661Y-127901142D01*
X80077664Y-127901144D01*
X80216499Y-127993910D01*
X80248677Y-128015411D01*
X80253985Y-128017692D01*
X80253986Y-128017692D01*
X80437650Y-128096600D01*
X80437653Y-128096601D01*
X80442953Y-128098878D01*
X80448582Y-128100152D01*
X80448583Y-128100152D01*
X80643550Y-128144269D01*
X80643553Y-128144269D01*
X80649186Y-128145544D01*
X80654957Y-128145771D01*
X80654959Y-128145771D01*
X80716989Y-128148208D01*
X80860470Y-128153846D01*
X80866179Y-128153018D01*
X80866183Y-128153018D01*
X81064015Y-128124333D01*
X81064019Y-128124332D01*
X81069730Y-128123504D01*
X81148987Y-128096600D01*
X81264483Y-128057395D01*
X81264488Y-128057393D01*
X81269955Y-128055537D01*
X81282483Y-128048521D01*
X81449395Y-127955046D01*
X81449399Y-127955043D01*
X81454442Y-127952219D01*
X81617012Y-127817012D01*
X81752219Y-127654442D01*
X81786363Y-127593475D01*
X81837097Y-127543815D01*
X81906629Y-127529468D01*
X81972880Y-127554989D01*
X82013037Y-127607638D01*
X82032204Y-127654840D01*
X82036852Y-127664041D01*
X82133736Y-127822143D01*
X82144192Y-127831604D01*
X82152970Y-127827820D01*
X82967978Y-127012812D01*
X82974356Y-127001132D01*
X83704408Y-127001132D01*
X83704539Y-127002965D01*
X83708790Y-127009580D01*
X84522130Y-127822920D01*
X84534141Y-127829479D01*
X84545880Y-127820511D01*
X84591012Y-127757702D01*
X84596327Y-127748857D01*
X84697966Y-127543206D01*
X84701765Y-127533611D01*
X84768453Y-127314120D01*
X84770632Y-127304039D01*
X84800813Y-127074789D01*
X84801332Y-127068114D01*
X84802915Y-127003364D01*
X84802721Y-126996647D01*
X84783776Y-126766206D01*
X84782093Y-126756044D01*
X84726204Y-126533539D01*
X84722883Y-126523784D01*
X84631409Y-126313410D01*
X84626531Y-126304312D01*
X84545384Y-126178876D01*
X84534698Y-126169674D01*
X84525133Y-126174077D01*
X83712022Y-126987188D01*
X83704408Y-127001132D01*
X82974356Y-127001132D01*
X82975592Y-126998868D01*
X82975461Y-126997035D01*
X82971210Y-126990420D01*
X82157884Y-126177094D01*
X82146348Y-126170794D01*
X82134065Y-126180418D01*
X82070849Y-126273089D01*
X82065750Y-126282063D01*
X82013237Y-126395192D01*
X81966413Y-126448559D01*
X81898170Y-126468139D01*
X81830174Y-126447715D01*
X81792536Y-126405296D01*
X81790739Y-126406397D01*
X81787719Y-126401469D01*
X81785165Y-126396290D01*
X81691453Y-126270794D01*
X81662104Y-126231491D01*
X81662103Y-126231490D01*
X81658651Y-126226867D01*
X81503381Y-126083337D01*
X81470014Y-126062284D01*
X81329434Y-125973584D01*
X81329433Y-125973584D01*
X81324554Y-125970505D01*
X81128160Y-125892152D01*
X81122503Y-125891027D01*
X81122497Y-125891025D01*
X80926442Y-125852028D01*
X80926440Y-125852028D01*
X80920775Y-125850901D01*
X80915000Y-125850825D01*
X80914996Y-125850825D01*
X80808976Y-125849437D01*
X80709346Y-125848133D01*
X80703649Y-125849112D01*
X80703648Y-125849112D01*
X80506650Y-125882962D01*
X80506649Y-125882962D01*
X80500953Y-125883941D01*
X80302575Y-125957127D01*
X80297614Y-125960079D01*
X80297613Y-125960079D01*
X80129528Y-126060079D01*
X80120856Y-126065238D01*
X79961881Y-126204655D01*
X79830976Y-126370708D01*
X79828287Y-126375819D01*
X79828285Y-126375822D01*
X79780750Y-126466171D01*
X79732523Y-126557836D01*
X79669820Y-126759773D01*
X79644967Y-126969754D01*
X59892289Y-126969754D01*
X59883776Y-126866206D01*
X59882093Y-126856044D01*
X59826204Y-126633539D01*
X59822883Y-126623784D01*
X59731409Y-126413410D01*
X59726531Y-126404312D01*
X59645384Y-126278876D01*
X59634698Y-126269674D01*
X59625133Y-126274077D01*
X58812022Y-127087188D01*
X58804408Y-127101132D01*
X58074356Y-127101132D01*
X58075592Y-127098868D01*
X58075461Y-127097035D01*
X58071210Y-127090420D01*
X57257884Y-126277094D01*
X57246348Y-126270794D01*
X57234065Y-126280418D01*
X57170849Y-126373089D01*
X57165750Y-126382063D01*
X57113237Y-126495192D01*
X57066413Y-126548559D01*
X56998170Y-126568139D01*
X56930174Y-126547715D01*
X56892536Y-126505296D01*
X56890739Y-126506397D01*
X56887719Y-126501469D01*
X56885165Y-126496290D01*
X56758651Y-126326867D01*
X56626443Y-126204655D01*
X56607622Y-126187257D01*
X56607620Y-126187255D01*
X56603381Y-126183337D01*
X56596311Y-126178876D01*
X56429434Y-126073584D01*
X56429433Y-126073584D01*
X56424554Y-126070505D01*
X56228160Y-125992152D01*
X56222503Y-125991027D01*
X56222497Y-125991025D01*
X56026442Y-125952028D01*
X56026440Y-125952028D01*
X56020775Y-125950901D01*
X56015000Y-125950825D01*
X56014996Y-125950825D01*
X55908976Y-125949437D01*
X55809346Y-125948133D01*
X55803649Y-125949112D01*
X55803648Y-125949112D01*
X55606650Y-125982962D01*
X55606649Y-125982962D01*
X55600953Y-125983941D01*
X55402575Y-126057127D01*
X55397614Y-126060079D01*
X55397613Y-126060079D01*
X55380089Y-126070505D01*
X55220856Y-126165238D01*
X55061881Y-126304655D01*
X54930976Y-126470708D01*
X54928287Y-126475819D01*
X54928285Y-126475822D01*
X54887827Y-126552720D01*
X54832523Y-126657836D01*
X54769820Y-126859773D01*
X54744967Y-127069754D01*
X37506613Y-127069754D01*
X37507489Y-125904999D01*
X57609795Y-125904999D01*
X57616540Y-125917330D01*
X58427188Y-126727978D01*
X58441132Y-126735592D01*
X58442965Y-126735461D01*
X58449580Y-126731210D01*
X59264590Y-125916200D01*
X59271611Y-125903343D01*
X59263838Y-125892676D01*
X59253667Y-125884643D01*
X59245083Y-125878940D01*
X59111139Y-125804999D01*
X82509795Y-125804999D01*
X82516540Y-125817330D01*
X83327188Y-126627978D01*
X83341132Y-126635592D01*
X83342965Y-126635461D01*
X83349580Y-126631210D01*
X84164590Y-125816200D01*
X84171611Y-125803343D01*
X84163838Y-125792676D01*
X84153667Y-125784643D01*
X84145083Y-125778940D01*
X83944250Y-125668074D01*
X83934838Y-125663844D01*
X83718591Y-125587266D01*
X83708620Y-125584632D01*
X83482769Y-125544402D01*
X83472516Y-125543433D01*
X83243116Y-125540630D01*
X83232832Y-125541350D01*
X83006067Y-125576050D01*
X82996039Y-125578439D01*
X82777984Y-125649710D01*
X82768475Y-125653707D01*
X82564993Y-125759633D01*
X82556268Y-125765127D01*
X82518248Y-125793674D01*
X82509795Y-125804999D01*
X59111139Y-125804999D01*
X59044250Y-125768074D01*
X59034838Y-125763844D01*
X58818591Y-125687266D01*
X58808620Y-125684632D01*
X58582769Y-125644402D01*
X58572516Y-125643433D01*
X58343116Y-125640630D01*
X58332832Y-125641350D01*
X58106067Y-125676050D01*
X58096039Y-125678439D01*
X57877984Y-125749710D01*
X57868475Y-125753707D01*
X57664993Y-125859633D01*
X57656268Y-125865127D01*
X57618248Y-125893674D01*
X57609795Y-125904999D01*
X37507489Y-125904999D01*
X37518726Y-110960000D01*
X56334318Y-110960000D01*
X56354956Y-111116762D01*
X56415464Y-111262841D01*
X56511718Y-111388282D01*
X56637159Y-111484536D01*
X56783238Y-111545044D01*
X56940000Y-111565682D01*
X56948188Y-111564604D01*
X57088574Y-111546122D01*
X57096762Y-111545044D01*
X57242841Y-111484536D01*
X57368282Y-111388282D01*
X57464536Y-111262841D01*
X57525044Y-111116762D01*
X57545682Y-110960000D01*
X57525044Y-110803238D01*
X57464536Y-110657159D01*
X57368282Y-110531718D01*
X57242841Y-110435464D01*
X57096762Y-110374956D01*
X56940000Y-110354318D01*
X56783238Y-110374956D01*
X56637159Y-110435464D01*
X56511718Y-110531718D01*
X56415464Y-110657159D01*
X56354956Y-110803238D01*
X56334318Y-110960000D01*
X37518726Y-110960000D01*
X37519330Y-110156185D01*
X57864318Y-110156185D01*
X57884956Y-110312947D01*
X57945464Y-110459026D01*
X58041718Y-110584467D01*
X58167159Y-110680721D01*
X58313238Y-110741229D01*
X58470000Y-110761867D01*
X58478188Y-110760789D01*
X58618574Y-110742307D01*
X58626762Y-110741229D01*
X58772841Y-110680721D01*
X58898282Y-110584467D01*
X58994536Y-110459026D01*
X59055044Y-110312947D01*
X59075682Y-110156185D01*
X59055044Y-109999423D01*
X58994536Y-109853344D01*
X58898282Y-109727903D01*
X58772841Y-109631649D01*
X58626762Y-109571141D01*
X58470000Y-109550503D01*
X58313238Y-109571141D01*
X58167159Y-109631649D01*
X58041718Y-109727903D01*
X57945464Y-109853344D01*
X57884956Y-109999423D01*
X57864318Y-110156185D01*
X37519330Y-110156185D01*
X37520538Y-108550000D01*
X57894318Y-108550000D01*
X57914956Y-108706762D01*
X57975464Y-108852841D01*
X58071718Y-108978282D01*
X58197159Y-109074536D01*
X58343238Y-109135044D01*
X58500000Y-109155682D01*
X58508188Y-109154604D01*
X58648574Y-109136122D01*
X58656762Y-109135044D01*
X58802841Y-109074536D01*
X58928282Y-108978282D01*
X59024536Y-108852841D01*
X59085044Y-108706762D01*
X59105682Y-108550000D01*
X59085044Y-108393238D01*
X59024536Y-108247159D01*
X58928282Y-108121718D01*
X58802841Y-108025464D01*
X58656762Y-107964956D01*
X58500000Y-107944318D01*
X58343238Y-107964956D01*
X58197159Y-108025464D01*
X58071718Y-108121718D01*
X57975464Y-108247159D01*
X57914956Y-108393238D01*
X57894318Y-108550000D01*
X37520538Y-108550000D01*
X37522959Y-105330000D01*
X78794750Y-105330000D01*
X78813670Y-105473709D01*
X78869139Y-105607625D01*
X78957379Y-105722621D01*
X79072375Y-105810861D01*
X79206291Y-105866330D01*
X79350000Y-105885250D01*
X79493709Y-105866330D01*
X79627625Y-105810861D01*
X79742621Y-105722621D01*
X79830861Y-105607625D01*
X79886330Y-105473709D01*
X79905250Y-105330000D01*
X79886330Y-105186291D01*
X79830861Y-105052375D01*
X79742621Y-104937379D01*
X79690826Y-104897635D01*
X79648959Y-104840297D01*
X79644737Y-104769426D01*
X79679501Y-104707523D01*
X79690811Y-104697723D01*
X79762621Y-104642621D01*
X79850861Y-104527625D01*
X79906330Y-104393709D01*
X79925250Y-104250000D01*
X79906330Y-104106291D01*
X79850861Y-103972375D01*
X79762621Y-103857379D01*
X79647625Y-103769139D01*
X79513709Y-103713670D01*
X79370000Y-103694750D01*
X79226291Y-103713670D01*
X79092375Y-103769139D01*
X78977379Y-103857379D01*
X78889139Y-103972375D01*
X78833670Y-104106291D01*
X78814750Y-104250000D01*
X78833670Y-104393709D01*
X78889139Y-104527625D01*
X78977379Y-104642621D01*
X78983929Y-104647647D01*
X79029174Y-104682365D01*
X79071041Y-104739703D01*
X79075263Y-104810574D01*
X79040499Y-104872477D01*
X79029189Y-104882277D01*
X78957379Y-104937379D01*
X78869139Y-105052375D01*
X78813670Y-105186291D01*
X78794750Y-105330000D01*
X37522959Y-105330000D01*
X37525824Y-101520000D01*
X48184318Y-101520000D01*
X48204956Y-101676762D01*
X48265464Y-101822841D01*
X48361718Y-101948282D01*
X48487159Y-102044536D01*
X48633238Y-102105044D01*
X48790000Y-102125682D01*
X48798188Y-102124604D01*
X48938574Y-102106122D01*
X48946762Y-102105044D01*
X49092841Y-102044536D01*
X49218282Y-101948282D01*
X49314536Y-101822841D01*
X49375044Y-101676762D01*
X49395682Y-101520000D01*
X49375044Y-101363238D01*
X49314536Y-101217159D01*
X49218282Y-101091718D01*
X49092841Y-100995464D01*
X48946762Y-100934956D01*
X48790000Y-100914318D01*
X48633238Y-100934956D01*
X48487159Y-100995464D01*
X48361718Y-101091718D01*
X48265464Y-101217159D01*
X48204956Y-101363238D01*
X48184318Y-101520000D01*
X37525824Y-101520000D01*
X37526914Y-100070000D01*
X68264318Y-100070000D01*
X68284956Y-100226762D01*
X68345464Y-100372841D01*
X68441718Y-100498282D01*
X68567159Y-100594536D01*
X68713238Y-100655044D01*
X68870000Y-100675682D01*
X68878188Y-100674604D01*
X69018574Y-100656122D01*
X69026762Y-100655044D01*
X69172841Y-100594536D01*
X69298282Y-100498282D01*
X69394536Y-100372841D01*
X69455044Y-100226762D01*
X69475682Y-100070000D01*
X69455044Y-99913238D01*
X69394536Y-99767159D01*
X69298282Y-99641718D01*
X69172841Y-99545464D01*
X69026762Y-99484956D01*
X68870000Y-99464318D01*
X68713238Y-99484956D01*
X68567159Y-99545464D01*
X68441718Y-99641718D01*
X68345464Y-99767159D01*
X68284956Y-99913238D01*
X68264318Y-100070000D01*
X37526914Y-100070000D01*
X37528681Y-97720000D01*
X74244318Y-97720000D01*
X74264956Y-97876762D01*
X74325464Y-98022841D01*
X74421718Y-98148282D01*
X74547159Y-98244536D01*
X74693238Y-98305044D01*
X74850000Y-98325682D01*
X74858188Y-98324604D01*
X74998574Y-98306122D01*
X75006762Y-98305044D01*
X75152841Y-98244536D01*
X75278282Y-98148282D01*
X75374536Y-98022841D01*
X75435044Y-97876762D01*
X75455682Y-97720000D01*
X75440257Y-97602835D01*
X75451196Y-97532686D01*
X75498324Y-97479588D01*
X75548732Y-97461467D01*
X75663709Y-97446330D01*
X75797625Y-97390861D01*
X75912621Y-97302621D01*
X76000861Y-97187625D01*
X76056330Y-97053709D01*
X76075250Y-96910000D01*
X76056330Y-96766291D01*
X76000861Y-96632375D01*
X75912621Y-96517379D01*
X75797625Y-96429139D01*
X75663709Y-96373670D01*
X75520000Y-96354750D01*
X75376291Y-96373670D01*
X75242375Y-96429139D01*
X75127379Y-96517379D01*
X75039139Y-96632375D01*
X74983670Y-96766291D01*
X74964750Y-96910000D01*
X74972995Y-96972621D01*
X74973038Y-96972949D01*
X74962099Y-97043097D01*
X74914972Y-97096196D01*
X74851282Y-97114487D01*
X74850000Y-97114318D01*
X74693238Y-97134956D01*
X74547159Y-97195464D01*
X74421718Y-97291718D01*
X74325464Y-97417159D01*
X74264956Y-97563238D01*
X74244318Y-97720000D01*
X37528681Y-97720000D01*
X37529749Y-96300000D01*
X47784318Y-96300000D01*
X47804956Y-96456762D01*
X47865464Y-96602841D01*
X47961718Y-96728282D01*
X48087159Y-96824536D01*
X48233238Y-96885044D01*
X48390000Y-96905682D01*
X48398188Y-96904604D01*
X48538574Y-96886122D01*
X48546762Y-96885044D01*
X48692841Y-96824536D01*
X48818282Y-96728282D01*
X48914536Y-96602841D01*
X48923997Y-96580000D01*
X57954750Y-96580000D01*
X57973670Y-96723709D01*
X58029139Y-96857625D01*
X58117379Y-96972621D01*
X58232375Y-97060861D01*
X58366291Y-97116330D01*
X58510000Y-97135250D01*
X58653709Y-97116330D01*
X58787625Y-97060861D01*
X58902621Y-96972621D01*
X58990861Y-96857625D01*
X59046330Y-96723709D01*
X59065250Y-96580000D01*
X59046330Y-96436291D01*
X58990861Y-96302375D01*
X58902621Y-96187379D01*
X58787625Y-96099139D01*
X58653709Y-96043670D01*
X58510000Y-96024750D01*
X58366291Y-96043670D01*
X58232375Y-96099139D01*
X58117379Y-96187379D01*
X58029139Y-96302375D01*
X57973670Y-96436291D01*
X57954750Y-96580000D01*
X48923997Y-96580000D01*
X48975044Y-96456762D01*
X48995682Y-96300000D01*
X48975044Y-96143238D01*
X48914536Y-95997159D01*
X48818282Y-95871718D01*
X48692841Y-95775464D01*
X48546762Y-95714956D01*
X48390000Y-95694318D01*
X48233238Y-95714956D01*
X48087159Y-95775464D01*
X47961718Y-95871718D01*
X47865464Y-95997159D01*
X47804956Y-96143238D01*
X47784318Y-96300000D01*
X37529749Y-96300000D01*
X37530260Y-95620000D01*
X53524318Y-95620000D01*
X53544956Y-95776762D01*
X53605464Y-95922841D01*
X53701718Y-96048282D01*
X53827159Y-96144536D01*
X53973238Y-96205044D01*
X54130000Y-96225682D01*
X54138188Y-96224604D01*
X54278574Y-96206122D01*
X54286762Y-96205044D01*
X54432841Y-96144536D01*
X54558282Y-96048282D01*
X54654536Y-95922841D01*
X54715044Y-95776762D01*
X54735682Y-95620000D01*
X54715044Y-95463238D01*
X54654536Y-95317159D01*
X54558282Y-95191718D01*
X54432841Y-95095464D01*
X54286762Y-95034956D01*
X54130000Y-95014318D01*
X53973238Y-95034956D01*
X53827159Y-95095464D01*
X53701718Y-95191718D01*
X53605464Y-95317159D01*
X53544956Y-95463238D01*
X53524318Y-95620000D01*
X37530260Y-95620000D01*
X37530906Y-94760000D01*
X58484750Y-94760000D01*
X58503670Y-94903709D01*
X58559139Y-95037625D01*
X58647379Y-95152621D01*
X58762375Y-95240861D01*
X58896291Y-95296330D01*
X59040000Y-95315250D01*
X59183709Y-95296330D01*
X59198991Y-95290000D01*
X75054750Y-95290000D01*
X75073670Y-95433709D01*
X75129139Y-95567625D01*
X75217379Y-95682621D01*
X75332375Y-95770861D01*
X75466291Y-95826330D01*
X75610000Y-95845250D01*
X75753709Y-95826330D01*
X75887625Y-95770861D01*
X76002621Y-95682621D01*
X76090861Y-95567625D01*
X76146330Y-95433709D01*
X76165250Y-95290000D01*
X76146330Y-95146291D01*
X76090861Y-95012375D01*
X76002621Y-94897379D01*
X75887625Y-94809139D01*
X75753709Y-94753670D01*
X75610000Y-94734750D01*
X75466291Y-94753670D01*
X75332375Y-94809139D01*
X75217379Y-94897379D01*
X75129139Y-95012375D01*
X75073670Y-95146291D01*
X75054750Y-95290000D01*
X59198991Y-95290000D01*
X59317625Y-95240861D01*
X59432621Y-95152621D01*
X59520861Y-95037625D01*
X59576330Y-94903709D01*
X59595250Y-94760000D01*
X59576330Y-94616291D01*
X59520861Y-94482375D01*
X59432621Y-94367379D01*
X59317625Y-94279139D01*
X59183709Y-94223670D01*
X59040000Y-94204750D01*
X58896291Y-94223670D01*
X58762375Y-94279139D01*
X58647379Y-94367379D01*
X58559139Y-94482375D01*
X58503670Y-94616291D01*
X58484750Y-94760000D01*
X37530906Y-94760000D01*
X37530912Y-94752592D01*
X37531358Y-94160000D01*
X72954318Y-94160000D01*
X72974956Y-94316762D01*
X73035464Y-94462841D01*
X73131718Y-94588282D01*
X73257159Y-94684536D01*
X73403238Y-94745044D01*
X73560000Y-94765682D01*
X73568188Y-94764604D01*
X73708574Y-94746122D01*
X73716762Y-94745044D01*
X73862841Y-94684536D01*
X73988282Y-94588282D01*
X74084536Y-94462841D01*
X74145044Y-94316762D01*
X74165682Y-94160000D01*
X74145044Y-94003238D01*
X74084536Y-93857159D01*
X73988282Y-93731718D01*
X73862841Y-93635464D01*
X73716762Y-93574956D01*
X73560000Y-93554318D01*
X73403238Y-93574956D01*
X73257159Y-93635464D01*
X73131718Y-93731718D01*
X73035464Y-93857159D01*
X72974956Y-94003238D01*
X72954318Y-94160000D01*
X37531358Y-94160000D01*
X37532192Y-93050000D01*
X56104318Y-93050000D01*
X56124956Y-93206762D01*
X56185464Y-93352841D01*
X56281718Y-93478282D01*
X56407159Y-93574536D01*
X56553238Y-93635044D01*
X56710000Y-93655682D01*
X56718188Y-93654604D01*
X56858574Y-93636122D01*
X56866762Y-93635044D01*
X57012841Y-93574536D01*
X57138282Y-93478282D01*
X57234536Y-93352841D01*
X57295044Y-93206762D01*
X57315682Y-93050000D01*
X60164318Y-93050000D01*
X60184956Y-93206762D01*
X60245464Y-93352841D01*
X60341718Y-93478282D01*
X60467159Y-93574536D01*
X60613238Y-93635044D01*
X60770000Y-93655682D01*
X60778188Y-93654604D01*
X60918574Y-93636122D01*
X60926762Y-93635044D01*
X61072841Y-93574536D01*
X61198282Y-93478282D01*
X61294536Y-93352841D01*
X61355044Y-93206762D01*
X61375682Y-93050000D01*
X69144318Y-93050000D01*
X69164956Y-93206762D01*
X69225464Y-93352841D01*
X69321718Y-93478282D01*
X69447159Y-93574536D01*
X69593238Y-93635044D01*
X69750000Y-93655682D01*
X69758188Y-93654604D01*
X69898574Y-93636122D01*
X69906762Y-93635044D01*
X70052841Y-93574536D01*
X70178282Y-93478282D01*
X70274536Y-93352841D01*
X70335044Y-93206762D01*
X70355682Y-93050000D01*
X70337251Y-92910000D01*
X78624750Y-92910000D01*
X78643670Y-93053709D01*
X78699139Y-93187625D01*
X78787379Y-93302621D01*
X78902375Y-93390861D01*
X79036291Y-93446330D01*
X79180000Y-93465250D01*
X79323709Y-93446330D01*
X79457625Y-93390861D01*
X79572621Y-93302621D01*
X79660861Y-93187625D01*
X79716330Y-93053709D01*
X79735250Y-92910000D01*
X79716330Y-92766291D01*
X79660861Y-92632375D01*
X79572621Y-92517379D01*
X79457625Y-92429139D01*
X79323709Y-92373670D01*
X79180000Y-92354750D01*
X79036291Y-92373670D01*
X78902375Y-92429139D01*
X78787379Y-92517379D01*
X78699139Y-92632375D01*
X78643670Y-92766291D01*
X78624750Y-92910000D01*
X70337251Y-92910000D01*
X70335044Y-92893238D01*
X70274536Y-92747159D01*
X70178282Y-92621718D01*
X70052841Y-92525464D01*
X69906762Y-92464956D01*
X69750000Y-92444318D01*
X69593238Y-92464956D01*
X69447159Y-92525464D01*
X69321718Y-92621718D01*
X69225464Y-92747159D01*
X69164956Y-92893238D01*
X69144318Y-93050000D01*
X61375682Y-93050000D01*
X61355044Y-92893238D01*
X61294536Y-92747159D01*
X61198282Y-92621718D01*
X61072841Y-92525464D01*
X60926762Y-92464956D01*
X60770000Y-92444318D01*
X60613238Y-92464956D01*
X60467159Y-92525464D01*
X60341718Y-92621718D01*
X60245464Y-92747159D01*
X60184956Y-92893238D01*
X60164318Y-93050000D01*
X57315682Y-93050000D01*
X57295044Y-92893238D01*
X57234536Y-92747159D01*
X57138282Y-92621718D01*
X57012841Y-92525464D01*
X56866762Y-92464956D01*
X56710000Y-92444318D01*
X56553238Y-92464956D01*
X56407159Y-92525464D01*
X56281718Y-92621718D01*
X56185464Y-92747159D01*
X56124956Y-92893238D01*
X56104318Y-93050000D01*
X37532192Y-93050000D01*
X37534748Y-89650000D01*
X52794750Y-89650000D01*
X52813670Y-89793709D01*
X52869139Y-89927625D01*
X52957379Y-90042621D01*
X53042208Y-90107713D01*
X53084073Y-90165048D01*
X53088295Y-90235919D01*
X53053531Y-90297822D01*
X53042206Y-90307635D01*
X52977379Y-90357379D01*
X52889139Y-90472375D01*
X52833670Y-90606291D01*
X52814750Y-90750000D01*
X52833670Y-90893709D01*
X52889139Y-91027625D01*
X52977379Y-91142621D01*
X53092375Y-91230861D01*
X53226291Y-91286330D01*
X53234480Y-91287408D01*
X53242455Y-91289545D01*
X53241764Y-91292124D01*
X53294603Y-91315504D01*
X53333690Y-91374772D01*
X53334529Y-91445764D01*
X53296854Y-91505940D01*
X53261439Y-91528106D01*
X53170007Y-91565977D01*
X53170004Y-91565979D01*
X53162375Y-91569139D01*
X53047379Y-91657379D01*
X52959139Y-91772375D01*
X52903670Y-91906291D01*
X52884750Y-92050000D01*
X52903670Y-92193709D01*
X52959139Y-92327625D01*
X53047379Y-92442621D01*
X53162375Y-92530861D01*
X53296291Y-92586330D01*
X53440000Y-92605250D01*
X53583709Y-92586330D01*
X53717625Y-92530861D01*
X53832621Y-92442621D01*
X53911365Y-92340000D01*
X75704750Y-92340000D01*
X75723670Y-92483709D01*
X75779139Y-92617625D01*
X75867379Y-92732621D01*
X75982375Y-92820861D01*
X76116291Y-92876330D01*
X76260000Y-92895250D01*
X76403709Y-92876330D01*
X76537625Y-92820861D01*
X76652621Y-92732621D01*
X76740861Y-92617625D01*
X76796330Y-92483709D01*
X76815250Y-92340000D01*
X76796330Y-92196291D01*
X76740861Y-92062375D01*
X76652621Y-91947379D01*
X76537625Y-91859139D01*
X76403709Y-91803670D01*
X76260000Y-91784750D01*
X76116291Y-91803670D01*
X75982375Y-91859139D01*
X75867379Y-91947379D01*
X75779139Y-92062375D01*
X75723670Y-92196291D01*
X75704750Y-92340000D01*
X53911365Y-92340000D01*
X53920861Y-92327625D01*
X53976330Y-92193709D01*
X53995250Y-92050000D01*
X53976330Y-91906291D01*
X53920861Y-91772375D01*
X53832621Y-91657379D01*
X53717625Y-91569139D01*
X53583709Y-91513670D01*
X53575520Y-91512592D01*
X53567545Y-91510455D01*
X53568236Y-91507876D01*
X53515397Y-91484496D01*
X53476310Y-91425228D01*
X53475471Y-91354236D01*
X53513146Y-91294060D01*
X53548561Y-91271894D01*
X53639993Y-91234023D01*
X53639998Y-91234020D01*
X53647625Y-91230861D01*
X53762621Y-91142621D01*
X53850861Y-91027625D01*
X53906330Y-90893709D01*
X53925250Y-90750000D01*
X53906330Y-90606291D01*
X53850861Y-90472375D01*
X53762621Y-90357379D01*
X53677792Y-90292287D01*
X53635927Y-90234952D01*
X53631705Y-90164081D01*
X53666469Y-90102178D01*
X53677794Y-90092365D01*
X53736071Y-90047647D01*
X53742621Y-90042621D01*
X53830861Y-89927625D01*
X53886330Y-89793709D01*
X53905250Y-89650000D01*
X53886330Y-89506291D01*
X53835083Y-89382569D01*
X93642930Y-89382569D01*
X93652853Y-89540295D01*
X93655304Y-89547838D01*
X93688499Y-89650000D01*
X93701690Y-89690598D01*
X93786371Y-89824034D01*
X93901575Y-89932219D01*
X94040065Y-90008354D01*
X94193138Y-90047657D01*
X94311507Y-90047657D01*
X94315432Y-90047161D01*
X94315435Y-90047161D01*
X94421090Y-90033814D01*
X94421092Y-90033814D01*
X94428949Y-90032821D01*
X94500391Y-90004535D01*
X94568520Y-89977561D01*
X94568523Y-89977560D01*
X94575889Y-89974643D01*
X94631585Y-89934178D01*
X94697330Y-89886411D01*
X94703744Y-89881751D01*
X94747001Y-89829462D01*
X94799428Y-89766089D01*
X94799431Y-89766085D01*
X94804481Y-89759980D01*
X94871771Y-89616983D01*
X94887910Y-89532378D01*
X94899899Y-89469531D01*
X94899899Y-89469529D01*
X94901384Y-89461745D01*
X94891461Y-89304019D01*
X94876307Y-89257379D01*
X94845073Y-89161252D01*
X94845072Y-89161249D01*
X94842624Y-89153716D01*
X94757943Y-89020280D01*
X94703754Y-88969392D01*
X94648515Y-88917519D01*
X94642739Y-88912095D01*
X94504249Y-88835960D01*
X94351176Y-88796657D01*
X94232807Y-88796657D01*
X94228882Y-88797153D01*
X94228879Y-88797153D01*
X94123224Y-88810500D01*
X94123222Y-88810500D01*
X94115365Y-88811493D01*
X94107997Y-88814410D01*
X94107998Y-88814410D01*
X93975794Y-88866753D01*
X93975791Y-88866754D01*
X93968425Y-88869671D01*
X93840570Y-88962563D01*
X93835517Y-88968671D01*
X93744886Y-89078225D01*
X93744883Y-89078229D01*
X93739833Y-89084334D01*
X93672543Y-89227331D01*
X93671058Y-89235114D01*
X93671058Y-89235115D01*
X93644875Y-89372375D01*
X93642930Y-89382569D01*
X53835083Y-89382569D01*
X53830861Y-89372375D01*
X53742621Y-89257379D01*
X53627625Y-89169139D01*
X53493709Y-89113670D01*
X53350000Y-89094750D01*
X53206291Y-89113670D01*
X53072375Y-89169139D01*
X52957379Y-89257379D01*
X52869139Y-89372375D01*
X52813670Y-89506291D01*
X52794750Y-89650000D01*
X37534748Y-89650000D01*
X37535492Y-88660000D01*
X82364318Y-88660000D01*
X82384956Y-88816762D01*
X82445464Y-88962841D01*
X82541718Y-89088282D01*
X82667159Y-89184536D01*
X82813238Y-89245044D01*
X82970000Y-89265682D01*
X82978188Y-89264604D01*
X83118574Y-89246122D01*
X83126762Y-89245044D01*
X83272841Y-89184536D01*
X83398282Y-89088282D01*
X83494536Y-88962841D01*
X83555044Y-88816762D01*
X83575682Y-88660000D01*
X83555044Y-88503238D01*
X83494536Y-88357159D01*
X83398282Y-88231718D01*
X83272841Y-88135464D01*
X83126762Y-88074956D01*
X82970000Y-88054318D01*
X82813238Y-88074956D01*
X82667159Y-88135464D01*
X82541718Y-88231718D01*
X82445464Y-88357159D01*
X82384956Y-88503238D01*
X82364318Y-88660000D01*
X37535492Y-88660000D01*
X37537410Y-86110000D01*
X64614750Y-86110000D01*
X64633670Y-86253709D01*
X64689139Y-86387625D01*
X64777379Y-86502621D01*
X64892375Y-86590861D01*
X65026291Y-86646330D01*
X65170000Y-86665250D01*
X65313709Y-86646330D01*
X65447625Y-86590861D01*
X65562621Y-86502621D01*
X65650861Y-86387625D01*
X65706330Y-86253709D01*
X65725250Y-86110000D01*
X65706330Y-85966291D01*
X65650861Y-85832375D01*
X65562621Y-85717379D01*
X65447625Y-85629139D01*
X65313709Y-85573670D01*
X65170000Y-85554750D01*
X65026291Y-85573670D01*
X64892375Y-85629139D01*
X64777379Y-85717379D01*
X64689139Y-85832375D01*
X64633670Y-85966291D01*
X64614750Y-86110000D01*
X37537410Y-86110000D01*
X37538342Y-84870000D01*
X63504750Y-84870000D01*
X63523670Y-85013709D01*
X63579139Y-85147625D01*
X63667379Y-85262621D01*
X63782375Y-85350861D01*
X63916291Y-85406330D01*
X64060000Y-85425250D01*
X64203709Y-85406330D01*
X64337625Y-85350861D01*
X64452621Y-85262621D01*
X64539039Y-85150000D01*
X66714750Y-85150000D01*
X66733670Y-85293709D01*
X66789139Y-85427625D01*
X66877379Y-85542621D01*
X66992375Y-85630861D01*
X67126291Y-85686330D01*
X67270000Y-85705250D01*
X67413709Y-85686330D01*
X67547625Y-85630861D01*
X67662621Y-85542621D01*
X67750861Y-85427625D01*
X67806330Y-85293709D01*
X67825250Y-85150000D01*
X67806330Y-85006291D01*
X67750861Y-84872375D01*
X67662621Y-84757379D01*
X67547625Y-84669139D01*
X67501419Y-84650000D01*
X76444318Y-84650000D01*
X76464956Y-84806762D01*
X76468116Y-84814391D01*
X76468833Y-84816122D01*
X76525464Y-84952841D01*
X76621718Y-85078282D01*
X76747159Y-85174536D01*
X76893238Y-85235044D01*
X77050000Y-85255682D01*
X77058188Y-85254604D01*
X77198574Y-85236122D01*
X77206762Y-85235044D01*
X77352841Y-85174536D01*
X77478282Y-85078282D01*
X77574536Y-84952841D01*
X77631167Y-84816122D01*
X77631884Y-84814391D01*
X77635044Y-84806762D01*
X77655682Y-84650000D01*
X77635044Y-84493238D01*
X77574536Y-84347159D01*
X77484637Y-84230000D01*
X81764318Y-84230000D01*
X81784956Y-84386762D01*
X81845464Y-84532841D01*
X81941718Y-84658282D01*
X82067159Y-84754536D01*
X82213238Y-84815044D01*
X82370000Y-84835682D01*
X82378188Y-84834604D01*
X82518574Y-84816122D01*
X82526762Y-84815044D01*
X82672841Y-84754536D01*
X82798282Y-84658282D01*
X82894536Y-84532841D01*
X82955044Y-84386762D01*
X82975682Y-84230000D01*
X82955044Y-84073238D01*
X82951614Y-84064956D01*
X82940174Y-84037338D01*
X82894536Y-83927159D01*
X82798282Y-83801718D01*
X82672841Y-83705464D01*
X82526762Y-83644956D01*
X82370000Y-83624318D01*
X82213238Y-83644956D01*
X82067159Y-83705464D01*
X81941718Y-83801718D01*
X81845464Y-83927159D01*
X81799826Y-84037338D01*
X81788387Y-84064956D01*
X81784956Y-84073238D01*
X81764318Y-84230000D01*
X77484637Y-84230000D01*
X77478282Y-84221718D01*
X77352841Y-84125464D01*
X77206762Y-84064956D01*
X77050000Y-84044318D01*
X76893238Y-84064956D01*
X76747159Y-84125464D01*
X76621718Y-84221718D01*
X76525464Y-84347159D01*
X76464956Y-84493238D01*
X76444318Y-84650000D01*
X67501419Y-84650000D01*
X67413709Y-84613670D01*
X67270000Y-84594750D01*
X67126291Y-84613670D01*
X66992375Y-84669139D01*
X66877379Y-84757379D01*
X66789139Y-84872375D01*
X66733670Y-85006291D01*
X66714750Y-85150000D01*
X64539039Y-85150000D01*
X64540861Y-85147625D01*
X64596330Y-85013709D01*
X64615250Y-84870000D01*
X64596330Y-84726291D01*
X64540861Y-84592375D01*
X64452621Y-84477379D01*
X64337625Y-84389139D01*
X64203709Y-84333670D01*
X64060000Y-84314750D01*
X63916291Y-84333670D01*
X63782375Y-84389139D01*
X63667379Y-84477379D01*
X63579139Y-84592375D01*
X63523670Y-84726291D01*
X63504750Y-84870000D01*
X37538342Y-84870000D01*
X37539295Y-83602569D01*
X93642930Y-83602569D01*
X93652853Y-83760295D01*
X93655304Y-83767838D01*
X93675242Y-83829199D01*
X93701690Y-83910598D01*
X93786371Y-84044034D01*
X93901575Y-84152219D01*
X94040065Y-84228354D01*
X94193138Y-84267657D01*
X94311507Y-84267657D01*
X94315432Y-84267161D01*
X94315435Y-84267161D01*
X94421090Y-84253814D01*
X94421092Y-84253814D01*
X94428949Y-84252821D01*
X94500391Y-84224535D01*
X94568520Y-84197561D01*
X94568523Y-84197560D01*
X94575889Y-84194643D01*
X94703744Y-84101751D01*
X94733643Y-84065609D01*
X94799428Y-83986089D01*
X94799431Y-83986085D01*
X94804481Y-83979980D01*
X94871771Y-83836983D01*
X94873256Y-83829199D01*
X94899899Y-83689531D01*
X94899899Y-83689529D01*
X94901384Y-83681745D01*
X94891461Y-83524019D01*
X94879703Y-83487832D01*
X94845073Y-83381252D01*
X94845072Y-83381249D01*
X94842624Y-83373716D01*
X94757943Y-83240280D01*
X94736515Y-83220157D01*
X94648515Y-83137519D01*
X94642739Y-83132095D01*
X94504249Y-83055960D01*
X94351176Y-83016657D01*
X94232807Y-83016657D01*
X94228882Y-83017153D01*
X94228879Y-83017153D01*
X94123224Y-83030500D01*
X94123222Y-83030500D01*
X94115365Y-83031493D01*
X94107997Y-83034410D01*
X94107998Y-83034410D01*
X93975794Y-83086753D01*
X93975791Y-83086754D01*
X93968425Y-83089671D01*
X93962014Y-83094329D01*
X93962012Y-83094330D01*
X93873990Y-83158282D01*
X93840570Y-83182563D01*
X93835517Y-83188671D01*
X93744886Y-83298225D01*
X93744883Y-83298229D01*
X93739833Y-83304334D01*
X93672543Y-83447331D01*
X93642930Y-83602569D01*
X37539295Y-83602569D01*
X37539951Y-82730000D01*
X60074318Y-82730000D01*
X60094956Y-82886762D01*
X60155464Y-83032841D01*
X60251718Y-83158282D01*
X60377159Y-83254536D01*
X60523238Y-83315044D01*
X60680000Y-83335682D01*
X60688188Y-83334604D01*
X60828574Y-83316122D01*
X60836762Y-83315044D01*
X60982841Y-83254536D01*
X61108282Y-83158282D01*
X61204536Y-83032841D01*
X61265044Y-82886762D01*
X61285682Y-82730000D01*
X61272517Y-82630000D01*
X70764318Y-82630000D01*
X70784956Y-82786762D01*
X70845464Y-82932841D01*
X70941718Y-83058282D01*
X71067159Y-83154536D01*
X71213238Y-83215044D01*
X71370000Y-83235682D01*
X71378188Y-83234604D01*
X71518574Y-83216122D01*
X71526762Y-83215044D01*
X71672841Y-83154536D01*
X71798282Y-83058282D01*
X71894536Y-82932841D01*
X71955044Y-82786762D01*
X71975682Y-82630000D01*
X71955661Y-82477925D01*
X96649582Y-82477925D01*
X96681295Y-82585678D01*
X96685888Y-82597046D01*
X96771764Y-82761311D01*
X96778478Y-82771572D01*
X96894625Y-82916030D01*
X96903203Y-82924789D01*
X97045196Y-83043935D01*
X97055316Y-83050865D01*
X97217742Y-83140159D01*
X97229015Y-83144991D01*
X97405695Y-83201037D01*
X97417689Y-83203587D01*
X97561918Y-83219764D01*
X97568942Y-83220157D01*
X97650042Y-83220157D01*
X97665281Y-83215682D01*
X97666486Y-83214292D01*
X97668157Y-83206609D01*
X97668157Y-83202042D01*
X98176157Y-83202042D01*
X98180632Y-83217281D01*
X98182022Y-83218486D01*
X98189705Y-83220157D01*
X98268814Y-83220157D01*
X98274962Y-83219856D01*
X98412760Y-83206345D01*
X98424795Y-83203962D01*
X98602233Y-83150390D01*
X98613573Y-83145716D01*
X98777234Y-83058697D01*
X98787451Y-83051908D01*
X98931090Y-82934760D01*
X98939794Y-82926116D01*
X99057941Y-82783301D01*
X99064801Y-82773130D01*
X99152961Y-82610081D01*
X99157713Y-82598776D01*
X99193407Y-82483465D01*
X99193613Y-82469362D01*
X99186858Y-82466157D01*
X98194272Y-82466157D01*
X98179033Y-82470632D01*
X98177828Y-82472022D01*
X98176157Y-82479705D01*
X98176157Y-83202042D01*
X97668157Y-83202042D01*
X97668157Y-82484272D01*
X97663682Y-82469033D01*
X97662292Y-82467828D01*
X97654609Y-82466157D01*
X96664233Y-82466157D01*
X96650702Y-82470130D01*
X96649582Y-82477925D01*
X71955661Y-82477925D01*
X71955044Y-82473238D01*
X71894536Y-82327159D01*
X71798282Y-82201718D01*
X71672841Y-82105464D01*
X71526762Y-82044956D01*
X71370000Y-82024318D01*
X71213238Y-82044956D01*
X71067159Y-82105464D01*
X70941718Y-82201718D01*
X70845464Y-82327159D01*
X70784956Y-82473238D01*
X70764318Y-82630000D01*
X61272517Y-82630000D01*
X61265044Y-82573238D01*
X61204536Y-82427159D01*
X61108282Y-82301718D01*
X60982841Y-82205464D01*
X60836762Y-82144956D01*
X60680000Y-82124318D01*
X60523238Y-82144956D01*
X60377159Y-82205464D01*
X60251718Y-82301718D01*
X60155464Y-82427159D01*
X60094956Y-82573238D01*
X60074318Y-82730000D01*
X37539951Y-82730000D01*
X37540534Y-81954952D01*
X96650701Y-81954952D01*
X96657456Y-81958157D01*
X97650042Y-81958157D01*
X97665281Y-81953682D01*
X97666486Y-81952292D01*
X97668157Y-81944609D01*
X97668157Y-81940042D01*
X98176157Y-81940042D01*
X98180632Y-81955281D01*
X98182022Y-81956486D01*
X98189705Y-81958157D01*
X99180081Y-81958157D01*
X99193612Y-81954184D01*
X99194732Y-81946389D01*
X99163019Y-81838636D01*
X99158426Y-81827268D01*
X99072550Y-81663003D01*
X99065836Y-81652742D01*
X98949689Y-81508284D01*
X98941111Y-81499525D01*
X98799118Y-81380379D01*
X98788998Y-81373449D01*
X98626572Y-81284155D01*
X98615299Y-81279323D01*
X98438619Y-81223277D01*
X98426625Y-81220727D01*
X98282396Y-81204550D01*
X98275372Y-81204157D01*
X98194272Y-81204157D01*
X98179033Y-81208632D01*
X98177828Y-81210022D01*
X98176157Y-81217705D01*
X98176157Y-81940042D01*
X97668157Y-81940042D01*
X97668157Y-81222272D01*
X97663682Y-81207033D01*
X97662292Y-81205828D01*
X97654609Y-81204157D01*
X97575500Y-81204157D01*
X97569352Y-81204458D01*
X97431554Y-81217969D01*
X97419519Y-81220352D01*
X97242081Y-81273924D01*
X97230741Y-81278598D01*
X97067080Y-81365617D01*
X97056863Y-81372406D01*
X96913224Y-81489554D01*
X96904520Y-81498198D01*
X96786373Y-81641013D01*
X96779513Y-81651184D01*
X96691353Y-81814233D01*
X96686601Y-81825538D01*
X96650907Y-81940849D01*
X96650701Y-81954952D01*
X37540534Y-81954952D01*
X37541906Y-80130000D01*
X62294318Y-80130000D01*
X62314956Y-80286762D01*
X62375464Y-80432841D01*
X62471718Y-80558282D01*
X62597159Y-80654536D01*
X62743238Y-80715044D01*
X62900000Y-80735682D01*
X62908188Y-80734604D01*
X63048574Y-80716122D01*
X63056762Y-80715044D01*
X63202841Y-80654536D01*
X63328282Y-80558282D01*
X63424536Y-80432841D01*
X63485044Y-80286762D01*
X63505682Y-80130000D01*
X63485044Y-79973238D01*
X63462992Y-79920000D01*
X78684318Y-79920000D01*
X78704956Y-80076762D01*
X78765464Y-80222841D01*
X78861718Y-80348282D01*
X78987159Y-80444536D01*
X79133238Y-80505044D01*
X79290000Y-80525682D01*
X79298188Y-80524604D01*
X79438574Y-80506122D01*
X79446762Y-80505044D01*
X79592841Y-80444536D01*
X79718282Y-80348282D01*
X79814536Y-80222841D01*
X79875044Y-80076762D01*
X79895682Y-79920000D01*
X79875044Y-79763238D01*
X79814536Y-79617159D01*
X79743297Y-79524318D01*
X79723305Y-79498264D01*
X79718282Y-79491718D01*
X79592841Y-79395464D01*
X79446762Y-79334956D01*
X79290000Y-79314318D01*
X79133238Y-79334956D01*
X78987159Y-79395464D01*
X78861718Y-79491718D01*
X78856695Y-79498264D01*
X78836703Y-79524318D01*
X78765464Y-79617159D01*
X78704956Y-79763238D01*
X78684318Y-79920000D01*
X63462992Y-79920000D01*
X63424536Y-79827159D01*
X63328282Y-79701718D01*
X63202841Y-79605464D01*
X63056762Y-79544956D01*
X62900000Y-79524318D01*
X62743238Y-79544956D01*
X62597159Y-79605464D01*
X62471718Y-79701718D01*
X62375464Y-79827159D01*
X62314956Y-79973238D01*
X62294318Y-80130000D01*
X37541906Y-80130000D01*
X37542470Y-79380000D01*
X55394750Y-79380000D01*
X55413670Y-79523709D01*
X55469139Y-79657625D01*
X55557379Y-79772621D01*
X55672375Y-79860861D01*
X55806291Y-79916330D01*
X55950000Y-79935250D01*
X56093709Y-79916330D01*
X56227625Y-79860861D01*
X56342621Y-79772621D01*
X56430861Y-79657625D01*
X56486330Y-79523709D01*
X56505250Y-79380000D01*
X56486330Y-79236291D01*
X56430861Y-79102375D01*
X56342621Y-78987379D01*
X56227625Y-78899139D01*
X56093709Y-78843670D01*
X55950000Y-78824750D01*
X55806291Y-78843670D01*
X55672375Y-78899139D01*
X55557379Y-78987379D01*
X55469139Y-79102375D01*
X55413670Y-79236291D01*
X55394750Y-79380000D01*
X37542470Y-79380000D01*
X37544350Y-76880000D01*
X55414750Y-76880000D01*
X55433670Y-77023709D01*
X55489139Y-77157625D01*
X55577379Y-77272621D01*
X55692375Y-77360861D01*
X55826291Y-77416330D01*
X55970000Y-77435250D01*
X56113709Y-77416330D01*
X56247625Y-77360861D01*
X56362621Y-77272621D01*
X56450861Y-77157625D01*
X56506330Y-77023709D01*
X56525250Y-76880000D01*
X56506330Y-76736291D01*
X56450861Y-76602375D01*
X56362621Y-76487379D01*
X56247625Y-76399139D01*
X56113709Y-76343670D01*
X55970000Y-76324750D01*
X55826291Y-76343670D01*
X55692375Y-76399139D01*
X55577379Y-76487379D01*
X55489139Y-76602375D01*
X55433670Y-76736291D01*
X55414750Y-76880000D01*
X37544350Y-76880000D01*
X37544989Y-76030000D01*
X39724318Y-76030000D01*
X39744956Y-76186762D01*
X39805464Y-76332841D01*
X39901718Y-76458282D01*
X40027159Y-76554536D01*
X40173238Y-76615044D01*
X40330000Y-76635682D01*
X40338188Y-76634604D01*
X40478574Y-76616122D01*
X40486762Y-76615044D01*
X40632841Y-76554536D01*
X40758282Y-76458282D01*
X40854536Y-76332841D01*
X40915044Y-76186762D01*
X40935682Y-76030000D01*
X40915044Y-75873238D01*
X40854536Y-75727159D01*
X40758282Y-75601718D01*
X40632841Y-75505464D01*
X40486762Y-75444956D01*
X40330000Y-75424318D01*
X40173238Y-75444956D01*
X40027159Y-75505464D01*
X39901718Y-75601718D01*
X39805464Y-75727159D01*
X39744956Y-75873238D01*
X39724318Y-76030000D01*
X37544989Y-76030000D01*
X37545651Y-75150000D01*
X83274318Y-75150000D01*
X83294956Y-75306762D01*
X83355464Y-75452841D01*
X83360491Y-75459392D01*
X83436372Y-75558282D01*
X83451718Y-75578282D01*
X83577159Y-75674536D01*
X83723238Y-75735044D01*
X83880000Y-75755682D01*
X83888188Y-75754604D01*
X84028574Y-75736122D01*
X84036762Y-75735044D01*
X84182841Y-75674536D01*
X84308282Y-75578282D01*
X84323629Y-75558282D01*
X84399509Y-75459392D01*
X84404536Y-75452841D01*
X84465044Y-75306762D01*
X84485682Y-75150000D01*
X84483049Y-75130000D01*
X85004318Y-75130000D01*
X85024956Y-75286762D01*
X85085464Y-75432841D01*
X85181718Y-75558282D01*
X85307159Y-75654536D01*
X85453238Y-75715044D01*
X85610000Y-75735682D01*
X85618188Y-75734604D01*
X85758574Y-75716122D01*
X85766762Y-75715044D01*
X85912841Y-75654536D01*
X86038282Y-75558282D01*
X86134536Y-75432841D01*
X86195044Y-75286762D01*
X86215682Y-75130000D01*
X86195044Y-74973238D01*
X86134536Y-74827159D01*
X86058651Y-74728264D01*
X86043305Y-74708264D01*
X86038282Y-74701718D01*
X85912841Y-74605464D01*
X85766762Y-74544956D01*
X85610000Y-74524318D01*
X85453238Y-74544956D01*
X85307159Y-74605464D01*
X85181718Y-74701718D01*
X85176695Y-74708264D01*
X85161349Y-74728264D01*
X85085464Y-74827159D01*
X85024956Y-74973238D01*
X85004318Y-75130000D01*
X84483049Y-75130000D01*
X84465044Y-74993238D01*
X84404536Y-74847159D01*
X84308282Y-74721718D01*
X84182841Y-74625464D01*
X84036762Y-74564956D01*
X83880000Y-74544318D01*
X83723238Y-74564956D01*
X83577159Y-74625464D01*
X83451718Y-74721718D01*
X83355464Y-74847159D01*
X83294956Y-74993238D01*
X83274318Y-75150000D01*
X37545651Y-75150000D01*
X37550393Y-68843233D01*
X40294906Y-68843233D01*
X40321102Y-69117792D01*
X40322187Y-69122226D01*
X40322188Y-69122232D01*
X40354581Y-69254611D01*
X40386657Y-69385694D01*
X40490199Y-69641326D01*
X40492500Y-69645256D01*
X40492503Y-69645262D01*
X40627255Y-69875403D01*
X40627260Y-69875410D01*
X40629558Y-69879335D01*
X40632405Y-69882895D01*
X40750028Y-70029974D01*
X40801816Y-70094732D01*
X40805157Y-70097853D01*
X40958744Y-70241326D01*
X41003364Y-70283008D01*
X41229979Y-70440216D01*
X41234055Y-70442244D01*
X41234057Y-70442245D01*
X41472827Y-70561032D01*
X41472830Y-70561033D01*
X41476914Y-70563065D01*
X41738998Y-70648980D01*
X41743489Y-70649760D01*
X41743490Y-70649760D01*
X42006957Y-70695506D01*
X42006965Y-70695507D01*
X42010738Y-70696162D01*
X42014575Y-70696353D01*
X42096305Y-70700422D01*
X42096313Y-70700422D01*
X42097876Y-70700500D01*
X42270070Y-70700500D01*
X42272338Y-70700335D01*
X42272350Y-70700335D01*
X42406603Y-70690594D01*
X42475083Y-70685625D01*
X42479538Y-70684641D01*
X42479541Y-70684641D01*
X42739947Y-70627148D01*
X42739950Y-70627147D01*
X42744403Y-70626164D01*
X43002319Y-70528449D01*
X43243428Y-70394525D01*
X43462678Y-70227198D01*
X43521592Y-70166932D01*
X43652283Y-70033242D01*
X43652287Y-70033237D01*
X43655477Y-70029974D01*
X43817787Y-69806984D01*
X43946206Y-69562899D01*
X43988464Y-69443233D01*
X92494906Y-69443233D01*
X92521102Y-69717792D01*
X92522187Y-69722226D01*
X92522188Y-69722232D01*
X92559669Y-69875403D01*
X92586657Y-69985694D01*
X92690199Y-70241326D01*
X92692500Y-70245256D01*
X92692503Y-70245262D01*
X92827255Y-70475403D01*
X92827260Y-70475410D01*
X92829558Y-70479335D01*
X92832405Y-70482895D01*
X92950028Y-70629974D01*
X93001816Y-70694732D01*
X93203364Y-70883008D01*
X93429979Y-71040216D01*
X93434055Y-71042244D01*
X93434057Y-71042245D01*
X93672827Y-71161032D01*
X93672830Y-71161033D01*
X93676914Y-71163065D01*
X93938998Y-71248980D01*
X93943489Y-71249760D01*
X93943490Y-71249760D01*
X94206957Y-71295506D01*
X94206965Y-71295507D01*
X94210738Y-71296162D01*
X94214575Y-71296353D01*
X94296305Y-71300422D01*
X94296313Y-71300422D01*
X94297876Y-71300500D01*
X94470070Y-71300500D01*
X94472338Y-71300335D01*
X94472350Y-71300335D01*
X94606603Y-71290594D01*
X94675083Y-71285625D01*
X94679538Y-71284641D01*
X94679541Y-71284641D01*
X94939947Y-71227148D01*
X94939950Y-71227147D01*
X94944403Y-71226164D01*
X95202319Y-71128449D01*
X95443428Y-70994525D01*
X95662678Y-70827198D01*
X95665873Y-70823930D01*
X95852283Y-70633242D01*
X95852287Y-70633237D01*
X95855477Y-70629974D01*
X95929375Y-70528449D01*
X96015100Y-70410676D01*
X96015102Y-70410673D01*
X96017787Y-70406984D01*
X96146206Y-70162899D01*
X96238045Y-69902832D01*
X96274516Y-69717792D01*
X96290499Y-69636704D01*
X96290500Y-69636698D01*
X96291380Y-69632232D01*
X96295046Y-69558603D01*
X96304867Y-69361336D01*
X96304867Y-69361330D01*
X96305094Y-69356767D01*
X96278898Y-69082208D01*
X96267764Y-69036704D01*
X96214429Y-68818744D01*
X96213343Y-68814306D01*
X96109801Y-68558674D01*
X96107500Y-68554744D01*
X96107497Y-68554738D01*
X95972745Y-68324597D01*
X95972740Y-68324590D01*
X95970442Y-68320665D01*
X95948447Y-68293162D01*
X95801036Y-68108834D01*
X95801035Y-68108833D01*
X95798184Y-68105268D01*
X95725212Y-68037101D01*
X95599972Y-67920108D01*
X95599969Y-67920106D01*
X95596636Y-67916992D01*
X95370021Y-67759784D01*
X95299293Y-67724597D01*
X95127173Y-67638968D01*
X95127170Y-67638967D01*
X95123086Y-67636935D01*
X94861002Y-67551020D01*
X94845826Y-67548385D01*
X94593043Y-67504494D01*
X94593035Y-67504493D01*
X94589262Y-67503838D01*
X94579029Y-67503329D01*
X94503695Y-67499578D01*
X94503687Y-67499578D01*
X94502124Y-67499500D01*
X94329930Y-67499500D01*
X94327662Y-67499665D01*
X94327650Y-67499665D01*
X94201285Y-67508834D01*
X94124917Y-67514375D01*
X94120462Y-67515359D01*
X94120459Y-67515359D01*
X93860053Y-67572852D01*
X93860050Y-67572853D01*
X93855597Y-67573836D01*
X93597681Y-67671551D01*
X93356572Y-67805475D01*
X93352940Y-67808247D01*
X93145462Y-67966590D01*
X93137322Y-67972802D01*
X93134129Y-67976068D01*
X93134127Y-67976070D01*
X92947717Y-68166758D01*
X92947713Y-68166763D01*
X92944523Y-68170026D01*
X92941836Y-68173718D01*
X92941834Y-68173720D01*
X92807270Y-68358592D01*
X92782213Y-68393016D01*
X92653794Y-68637101D01*
X92561955Y-68897168D01*
X92561075Y-68901634D01*
X92524587Y-69086760D01*
X92508620Y-69167768D01*
X92508393Y-69172322D01*
X92508393Y-69172324D01*
X92497771Y-69385694D01*
X92494906Y-69443233D01*
X43988464Y-69443233D01*
X44038045Y-69302832D01*
X44064666Y-69167768D01*
X44090499Y-69036704D01*
X44090500Y-69036698D01*
X44091380Y-69032232D01*
X44098318Y-68892876D01*
X44104867Y-68761336D01*
X44104867Y-68761330D01*
X44105094Y-68756767D01*
X44078898Y-68482208D01*
X44056170Y-68389324D01*
X44014429Y-68218744D01*
X44013343Y-68214306D01*
X43909801Y-67958674D01*
X43907500Y-67954744D01*
X43907497Y-67954738D01*
X43772745Y-67724597D01*
X43772740Y-67724590D01*
X43770442Y-67720665D01*
X43654313Y-67575453D01*
X43601036Y-67508834D01*
X43601035Y-67508833D01*
X43598184Y-67505268D01*
X43575664Y-67484231D01*
X43399972Y-67320108D01*
X43399969Y-67320106D01*
X43396636Y-67316992D01*
X43170021Y-67159784D01*
X43163961Y-67156769D01*
X42927173Y-67038968D01*
X42927170Y-67038967D01*
X42923086Y-67036935D01*
X42661002Y-66951020D01*
X42656510Y-66950240D01*
X42393043Y-66904494D01*
X42393035Y-66904493D01*
X42389262Y-66903838D01*
X42379029Y-66903329D01*
X42303695Y-66899578D01*
X42303687Y-66899578D01*
X42302124Y-66899500D01*
X42129930Y-66899500D01*
X42127662Y-66899665D01*
X42127650Y-66899665D01*
X41993595Y-66909392D01*
X41924917Y-66914375D01*
X41920462Y-66915359D01*
X41920459Y-66915359D01*
X41660053Y-66972852D01*
X41660050Y-66972853D01*
X41655597Y-66973836D01*
X41397681Y-67071551D01*
X41393694Y-67073765D01*
X41393693Y-67073766D01*
X41311340Y-67119509D01*
X41156572Y-67205475D01*
X40937322Y-67372802D01*
X40934129Y-67376068D01*
X40934127Y-67376070D01*
X40747717Y-67566758D01*
X40747713Y-67566763D01*
X40744523Y-67570026D01*
X40741836Y-67573718D01*
X40741834Y-67573720D01*
X40607879Y-67757755D01*
X40582213Y-67793016D01*
X40453794Y-68037101D01*
X40361955Y-68297168D01*
X40357324Y-68320665D01*
X40324587Y-68486760D01*
X40308620Y-68567768D01*
X40308393Y-68572322D01*
X40308393Y-68572324D01*
X40296277Y-68815704D01*
X40294906Y-68843233D01*
X37550393Y-68843233D01*
X37550470Y-68740973D01*
X37552608Y-68721368D01*
X37552691Y-68717277D01*
X37555357Y-68705158D01*
X37553183Y-68692942D01*
X37553406Y-68681907D01*
X37552721Y-68669695D01*
X37554538Y-68641397D01*
X37576536Y-68298689D01*
X37577728Y-68287694D01*
X37588964Y-68214306D01*
X37638515Y-67890642D01*
X37640667Y-67879795D01*
X37660891Y-67797054D01*
X37736043Y-67489599D01*
X37739138Y-67478983D01*
X37793121Y-67320108D01*
X37868363Y-67098666D01*
X37872376Y-67088363D01*
X37879791Y-67071551D01*
X38034457Y-66720848D01*
X38039360Y-66710933D01*
X38100420Y-66600000D01*
X62694318Y-66600000D01*
X62714956Y-66756762D01*
X62775464Y-66902841D01*
X62871718Y-67028282D01*
X62997159Y-67124536D01*
X63143238Y-67185044D01*
X63300000Y-67205682D01*
X63308188Y-67204604D01*
X63448574Y-67186122D01*
X63456762Y-67185044D01*
X63602841Y-67124536D01*
X63728282Y-67028282D01*
X63824536Y-66902841D01*
X63885044Y-66756762D01*
X63905682Y-66600000D01*
X63885044Y-66443238D01*
X63824536Y-66297159D01*
X63728282Y-66171718D01*
X63602841Y-66075464D01*
X63456762Y-66014956D01*
X63430147Y-66011452D01*
X63308188Y-65995396D01*
X63300000Y-65994318D01*
X63291812Y-65995396D01*
X63169854Y-66011452D01*
X63143238Y-66014956D01*
X62997159Y-66075464D01*
X62871718Y-66171718D01*
X62775464Y-66297159D01*
X62714956Y-66443238D01*
X62694318Y-66600000D01*
X38100420Y-66600000D01*
X38233049Y-66359043D01*
X38238803Y-66349596D01*
X38440370Y-66049191D01*
X38462605Y-66016052D01*
X38469164Y-66007149D01*
X38721367Y-65694503D01*
X38728683Y-65686207D01*
X39007318Y-65396901D01*
X39015333Y-65389279D01*
X39318272Y-65125520D01*
X39326908Y-65118642D01*
X39651828Y-64882455D01*
X39661044Y-64876356D01*
X40005418Y-64669578D01*
X40015142Y-64664306D01*
X40360925Y-64496022D01*
X40376317Y-64488531D01*
X40386458Y-64484136D01*
X40761660Y-64340712D01*
X40772144Y-64337224D01*
X41146439Y-64230686D01*
X41158468Y-64227262D01*
X41169229Y-64224703D01*
X41205969Y-64217657D01*
X41563737Y-64149040D01*
X41574663Y-64147438D01*
X41974266Y-64106668D01*
X41985296Y-64106029D01*
X42215253Y-64102841D01*
X42357029Y-64100876D01*
X42369230Y-64102177D01*
X42380236Y-64102508D01*
X42392328Y-64105293D01*
X42410528Y-64102238D01*
X42431386Y-64100500D01*
X94268095Y-64100500D01*
X94289297Y-64102297D01*
G37*
%TD.AperFunction*%
%TD*%
M02*
