M48
; DRILL file {KiCad (6.0.9)} date Sun 20 Nov 2022 05:41:53 PM EST
; FORMAT={-:-/ absolute / metric / decimal}
; #@! TF.CreationDate,2022-11-20T17:41:53-05:00
; #@! TF.GenerationSoftware,Kicad,Pcbnew,(6.0.9)
; #@! TF.FileFunction,MixedPlating,1,4
FMAT,2
METRIC
; #@! TA.AperFunction,Plated,PTH,ViaDrill
T1C0.300
; #@! TA.AperFunction,Plated,PTH,ViaDrill
T2C0.400
; #@! TA.AperFunction,Plated,PTH,ComponentDrill
T3C0.600
; #@! TA.AperFunction,Plated,PTH,ComponentDrill
T4C1.100
; #@! TA.AperFunction,Plated,PTH,ComponentDrill
T5C2.000
; #@! TA.AperFunction,NonPlated,NPTH,ComponentDrill
T6C0.650
; #@! TA.AperFunction,NonPlated,NPTH,ComponentDrill
T7C3.200
%
G90
G05
T1
X42.16Y-77.36
X49.655Y-112.455
X50.61Y-103.87
X51.04Y-111.89
X51.7Y-67.74
X52.017Y-82.12
X52.15Y-104.15
X52.16Y-103.29
X52.21Y-99.17
X53.35Y-89.65
X53.37Y-90.75
X53.44Y-92.05
X53.68Y-116.47
X54.837Y-85.2
X54.86Y-79.39
X55.17Y-107.28
X55.95Y-79.38
X55.97Y-76.88
X56.08Y-105.9
X56.24Y-74.0
X56.64Y-68.49
X57.07Y-121.15
X57.1Y-76.88
X57.197Y-87.07
X57.57Y-111.95
X57.87Y-65.0
X57.99Y-116.69
X58.09Y-94.73
X58.47Y-97.62
X58.51Y-96.58
X58.997Y-87.06
X59.04Y-94.76
X59.067Y-82.54
X59.16Y-72.23
X59.65Y-73.99
X59.88Y-116.85
X60.9Y-111.65
X61.39Y-67.77
X62.64Y-75.73
X63.197Y-84.2
X64.06Y-84.87
X64.98Y-117.83
X65.17Y-86.11
X65.64Y-115.19
X65.72Y-80.2
X66.06Y-86.75
X67.27Y-85.15
X68.267Y-84.79
X69.8Y-115.24
X74.54Y-96.11
X74.76Y-104.81
X74.79Y-100.44
X75.52Y-96.91
X75.61Y-95.29
X76.25Y-116.48
X76.26Y-92.34
X76.32Y-91.07
X77.49Y-107.97
X78.76Y-108.93
X79.18Y-92.91
X79.22Y-91.53
X79.35Y-105.33
X79.37Y-104.25
X80.2Y-116.45
X80.23Y-111.73
X80.31Y-104.74
X81.57Y-114.41
X81.65Y-121.31
X85.28Y-92.64
X87.2Y-92.63
X89.27Y-83.6
X89.852Y-86.042
X91.312Y-89.772
X91.462Y-83.262
X91.742Y-90.702
X91.782Y-82.382
T2
X38.769Y-121.481
X38.81Y-96.362
X38.81Y-98.648
X38.81Y-100.68
X38.81Y-103.22
X38.81Y-105.76
X38.81Y-108.3
X38.81Y-110.84
X38.81Y-113.38
X38.81Y-116.428
X38.81Y-118.968
X38.81Y-124.048
X38.81Y-126.842
X38.81Y-129.382
X38.81Y-131.668
X39.318Y-84.678
X39.318Y-86.964
X39.318Y-89.25
X39.318Y-91.536
X39.318Y-93.822
X39.55Y-75.26
X40.33Y-76.03
X41.309Y-121.481
X41.35Y-96.362
X41.35Y-98.648
X41.35Y-100.68
X41.35Y-103.22
X41.35Y-105.76
X41.35Y-108.3
X41.35Y-110.84
X41.35Y-113.38
X41.35Y-116.428
X41.35Y-118.968
X41.35Y-124.048
X41.35Y-126.842
X41.35Y-129.382
X41.35Y-131.668
X41.604Y-72.74
X41.604Y-74.264
X41.858Y-84.678
X41.858Y-86.964
X41.858Y-89.25
X41.858Y-91.536
X41.858Y-93.822
X43.13Y-96.27
X43.636Y-72.74
X43.636Y-74.264
X43.636Y-98.648
X43.636Y-100.68
X44.144Y-77.312
X44.144Y-84.678
X44.144Y-86.964
X44.144Y-89.25
X44.144Y-91.536
X44.144Y-93.822
X44.398Y-116.428
X44.398Y-118.968
X44.398Y-121.508
X44.398Y-123.794
X44.398Y-126.842
X44.398Y-129.636
X44.398Y-131.668
X44.652Y-110.84
X44.906Y-105.76
X45.414Y-66.898
X45.414Y-68.422
X45.414Y-70.2
X45.414Y-72.74
X45.414Y-74.264
X45.414Y-133.954
X45.414Y-136.24
X45.414Y-138.526
X45.922Y-103.474
X46.176Y-91.536
X46.176Y-93.822
X46.49Y-108.28
X46.55Y-109.25
X46.938Y-116.428
X46.938Y-118.968
X46.938Y-121.508
X46.938Y-123.794
X46.938Y-126.842
X46.938Y-129.636
X46.938Y-131.668
X47.192Y-66.898
X47.192Y-68.422
X47.192Y-70.2
X47.192Y-72.74
X47.192Y-74.264
X47.954Y-98.14
X47.954Y-133.954
X47.954Y-136.24
X47.954Y-138.526
X48.208Y-92.806
X48.39Y-96.3
X48.41Y-95.09
X48.75Y-100.41
X48.79Y-101.52
X49.224Y-77.82
X49.478Y-118.968
X49.478Y-121.508
X49.478Y-123.794
X49.478Y-126.842
X49.478Y-129.636
X50.24Y-136.24
X50.24Y-138.526
X50.748Y-94.838
X51.71Y-72.91
X52.018Y-118.968
X52.018Y-121.508
X52.018Y-123.794
X52.018Y-126.842
X52.018Y-129.636
X52.78Y-136.24
X52.78Y-138.526
X52.97Y-95.75
X54.13Y-95.62
X55.066Y-129.636
X55.066Y-131.668
X55.066Y-133.954
X55.066Y-136.24
X55.066Y-138.526
X56.7Y-94.27
X56.71Y-93.05
X56.94Y-110.96
X57.39Y-108.49
X57.606Y-129.636
X57.606Y-131.668
X57.606Y-133.954
X57.606Y-136.24
X57.606Y-138.526
X58.47Y-110.156
X58.5Y-108.55
X59.384Y-136.24
X59.384Y-138.526
X59.55Y-110.2
X59.638Y-102.204
X59.638Y-104.236
X59.638Y-106.268
X59.88Y-81.43
X60.68Y-82.73
X60.77Y-93.05
X61.416Y-127.096
X61.416Y-128.874
X61.66Y-80.18
X61.67Y-98.394
X61.924Y-121.508
X61.924Y-136.24
X61.924Y-138.526
X62.686Y-102.204
X62.9Y-80.13
X63.3Y-66.6
X63.34Y-65.32
X63.68Y-105.4
X63.68Y-106.51
X63.68Y-107.43
X63.956Y-127.096
X63.956Y-128.874
X63.956Y-131.668
X63.956Y-133.954
X63.956Y-136.24
X63.956Y-138.526
X64.464Y-121.508
X64.464Y-124.556
X65.03Y-106.5
X65.04Y-105.41
X65.06Y-107.44
X65.734Y-97.378
X65.734Y-102.204
X66.496Y-127.096
X66.496Y-128.874
X66.496Y-131.668
X66.496Y-133.954
X66.496Y-136.24
X66.496Y-138.526
X67.004Y-121.508
X67.004Y-124.556
X67.74Y-89.61
X68.274Y-65.374
X68.274Y-67.914
X68.274Y-70.2
X68.274Y-72.74
X68.86Y-99.01
X68.87Y-100.07
X69.036Y-127.096
X69.036Y-128.874
X69.036Y-131.668
X69.036Y-133.954
X69.036Y-136.24
X69.036Y-138.526
X69.544Y-119.222
X69.544Y-121.508
X69.544Y-124.556
X69.75Y-93.05
X69.94Y-94.26
X71.068Y-65.374
X71.068Y-67.914
X71.068Y-70.2
X71.068Y-72.74
X71.37Y-82.63
X71.576Y-126.842
X71.576Y-128.874
X71.576Y-131.668
X71.576Y-133.954
X71.576Y-136.24
X71.576Y-138.526
X72.084Y-119.222
X72.084Y-121.508
X72.084Y-124.556
X72.592Y-101.696
X72.592Y-105.76
X72.592Y-108.554
X72.592Y-111.094
X73.24Y-77.73
X73.55Y-98.51
X73.56Y-94.16
X73.608Y-65.374
X74.116Y-126.842
X74.116Y-128.874
X74.18Y-78.48
X74.624Y-119.222
X74.624Y-121.508
X74.624Y-136.24
X74.624Y-138.526
X74.69Y-93.85
X74.85Y-97.72
X76.148Y-65.374
X76.42Y-76.13
X77.05Y-84.65
X77.164Y-119.222
X77.164Y-121.508
X77.164Y-127.096
X77.164Y-128.874
X77.164Y-136.24
X77.164Y-138.526
X77.63Y-76.11
X78.434Y-65.374
X79.29Y-79.92
X79.94Y-80.72
X79.958Y-129.128
X79.958Y-131.668
X79.958Y-133.446
X79.958Y-136.24
X79.958Y-138.526
X80.56Y-78.15
X80.974Y-65.374
X81.76Y-78.18
X82.244Y-107.03
X82.244Y-109.57
X82.37Y-84.23
X82.498Y-129.128
X82.498Y-131.668
X82.498Y-133.446
X82.498Y-136.24
X82.498Y-138.526
X82.97Y-88.66
X83.14Y-89.79
X83.42Y-83.76
X83.88Y-75.15
X84.276Y-65.374
X84.276Y-67.66
X84.276Y-70.2
X84.75Y-74.15
X85.038Y-97.124
X85.038Y-99.664
X85.038Y-101.95
X85.038Y-104.49
X85.038Y-107.03
X85.038Y-109.57
X85.038Y-111.856
X85.038Y-114.396
X85.038Y-116.936
X85.038Y-119.476
X85.038Y-121.762
X85.038Y-124.302
X85.61Y-75.13
X85.8Y-126.842
X85.8Y-129.128
X85.8Y-136.24
X85.8Y-138.526
X86.816Y-65.374
X86.816Y-67.66
X86.816Y-70.2
X86.816Y-72.486
X88.086Y-97.124
X88.086Y-99.664
X88.086Y-101.95
X88.086Y-104.49
X88.086Y-107.03
X88.086Y-109.57
X88.086Y-111.856
X88.086Y-114.396
X88.086Y-116.936
X88.086Y-119.476
X88.086Y-121.762
X88.086Y-124.302
X88.34Y-126.842
X88.34Y-129.128
X88.34Y-136.24
X88.34Y-138.526
X89.102Y-65.374
X89.102Y-67.66
X89.102Y-70.2
X89.3Y-78.84
X89.356Y-72.486
X90.372Y-134.208
X91.134Y-97.124
X91.134Y-99.41
X91.134Y-101.95
X91.134Y-104.49
X91.134Y-106.776
X91.134Y-109.316
X91.134Y-111.856
X91.134Y-114.142
X91.134Y-116.682
X91.134Y-119.476
X91.134Y-121.762
X91.134Y-124.302
X91.134Y-126.842
X91.134Y-129.128
X91.134Y-131.668
X91.134Y-136.24
X91.134Y-138.526
X91.642Y-65.374
X91.642Y-67.66
X91.642Y-70.2
X91.642Y-72.486
X93.674Y-97.124
X93.674Y-99.41
X93.674Y-101.95
X93.674Y-104.49
X93.674Y-106.776
X93.674Y-109.316
X93.674Y-111.856
X93.674Y-114.142
X93.674Y-116.682
X93.674Y-119.476
X93.674Y-121.762
X93.674Y-124.302
X93.674Y-126.842
X93.674Y-129.128
X93.674Y-131.668
X93.674Y-138.526
X93.99Y-80.44
X94.182Y-72.486
X94.49Y-92.6
X95.31Y-78.02
X95.96Y-97.124
X95.96Y-99.41
X95.96Y-101.95
X95.96Y-104.49
X95.96Y-106.776
X95.96Y-109.316
X95.96Y-111.856
X95.96Y-114.142
X95.96Y-116.682
X95.96Y-119.476
X95.96Y-121.762
X95.96Y-124.302
X95.96Y-126.842
X95.96Y-129.128
X95.96Y-131.668
X98.5Y-97.124
X98.5Y-99.41
X98.5Y-101.95
X98.5Y-104.49
X98.5Y-106.776
X98.5Y-109.316
X98.5Y-111.856
X98.5Y-114.142
X98.5Y-116.682
X98.5Y-119.476
X98.5Y-121.762
X98.5Y-124.302
X98.5Y-126.842
X98.5Y-129.128
X98.5Y-131.668
T4
X55.9Y-127.1
X58.44Y-127.1
X80.8Y-127.0
X83.34Y-127.0
T5
X50.82Y-132.18
X60.98Y-132.18
X75.72Y-132.08
X85.88Y-132.08
T6
X94.272Y-83.642
X94.272Y-89.422
T7
X42.2Y-68.8
X42.4Y-134.8
X94.1Y-134.6
X94.4Y-69.4
T3
G00X93.192Y-82.212
M15
G01X94.292Y-82.212
M16
G05
G00X93.192Y-90.852
M15
G01X94.292Y-90.852
M16
G05
G00X97.622Y-82.212
M15
G01X98.222Y-82.212
M16
G05
G00X97.622Y-90.852
M15
G01X98.222Y-90.852
M16
G05
T0
M30
